<svg id="Layer_1" data-name="Layer 1" xmlns="http://www.w3.org/2000/svg" xmlns:xlink="http://www.w3.org/1999/xlink" viewBox="0 0 140 140"><defs><style>.cls-1,.cls-5{fill:url(#linear-gradient);}.cls-1{clip-rule:evenodd;}.cls-2,.cls-4{fill:#679e63;}.cls-3{fill:#333;}.cls-3,.cls-4,.cls-5{fill-rule:evenodd;}.cls-6{clip-path:url(#clip-path);}.cls-7{fill:none;}.cls-8{fill:url(#linear-gradient-3);}.cls-9{fill:url(#linear-gradient-4);}.cls-10{fill:url(#linear-gradient-5);}.cls-11{fill:url(#linear-gradient-6);}.cls-12{fill:url(#linear-gradient-7);}.cls-13{fill:url(#linear-gradient-8);}</style><linearGradient id="linear-gradient" x1="65.84" y1="47.12" x2="46.37" y2="86.84" gradientUnits="userSpaceOnUse"><stop offset="0" stop-color="#3f873f"/><stop offset="0.33" stop-color="#3f8b3d"/><stop offset="0.64" stop-color="#3e9637"/><stop offset="0.93" stop-color="#3da92e"/><stop offset="1" stop-color="#3dae2b"/></linearGradient><clipPath id="clip-path" transform="translate(-5.25 -5.12)"><path class="cls-1" d="M57.88,37.68a1.08,1.08,0,0,0-1.6,0L43,50.2a3.15,3.15,0,0,0-.8,2.26V77.52a3.17,3.17,0,0,0,.8,2.27L56.28,92.32a1.08,1.08,0,0,0,1.6,0L71.13,79.79a3.17,3.17,0,0,0,.8-2.27V52.46a3.15,3.15,0,0,0-.8-2.26Z"/></clipPath><linearGradient id="linear-gradient-3" x1="54.5" y1="67.1" x2="94.9" y2="37.25" gradientUnits="userSpaceOnUse"><stop offset="0.14" stop-color="#3f873f"/><stop offset="0.4" stop-color="#529f44"/><stop offset="0.71" stop-color="#63b649"/><stop offset="0.91" stop-color="#6abf4b"/></linearGradient><linearGradient id="linear-gradient-4" x1="36.3" y1="27.89" x2="67.09" y2="27.89" gradientUnits="userSpaceOnUse"><stop offset="0.09" stop-color="#6abf4b"/><stop offset="0.29" stop-color="#63b649"/><stop offset="0.6" stop-color="#529f44"/><stop offset="0.86" stop-color="#3f873f"/></linearGradient><linearGradient id="linear-gradient-5" x1="41.55" y1="64.99" x2="72.34" y2="64.99" xlink:href="#linear-gradient-4"/><linearGradient id="linear-gradient-6" x1="36.3" y1="74.25" x2="67.09" y2="74.25" xlink:href="#linear-gradient-4"/><linearGradient id="linear-gradient-7" x1="41.55" y1="85.87" x2="72.34" y2="85.87" xlink:href="#linear-gradient-4"/><linearGradient id="linear-gradient-8" x1="81.24" y1="52.44" x2="55.36" y2="105.24" xlink:href="#linear-gradient"/></defs><title>nodejs</title><path class="cls-2" d="M74.72,145.12a1.89,1.89,0,0,1-1.3-.57l-4.11-4c-.61-.56-.32-.76-.11-.88a7.28,7.28,0,0,0,1.86-1.38c.09-.09.21-.06.3,0l3.16,3.07a.29.29,0,0,0,.39,0l12.32-11.64a.83.83,0,0,0,.19-.55V105.16a.84.84,0,0,0-.2-.57L74.65,92.73a.25.25,0,0,0-.38,0L61.7,104.6a.81.81,0,0,0-.2.56V129a.78.78,0,0,0,.2.55l3.43,3.27c1.87,1.54,3-.27,3-2.09V107.14c0-.32.16-.59.36-.59H70c.2,0,.36.27.36.6v23.54c0,4.1-1.37,6.45-3.77,6.45-.73,0-1.31,0-2.93-1.29l-3.34-3.12A5.34,5.34,0,0,1,59,129V105.21a5.32,5.32,0,0,1,1.33-3.77L73,89.45a1.87,1.87,0,0,1,2.66,0l12.67,12a5.32,5.32,0,0,1,1.33,3.77v24a5.21,5.21,0,0,1-1.3,3.68L76,144.55A1.85,1.85,0,0,1,74.72,145.12Z" transform="translate(-5.25 -5.12)"/><path class="cls-2" d="M78.34,128.67c-5.46,0-6.61-4.11-6.62-7.56,0-.33.17-.6.37-.6H73.7c.18,0,.33.22.36.51.25,2.69,1,4,4.28,4,2.64,0,3.76-1,3.76-3.26,0-1.32-.32-2.3-4.41-3-3.42-.55-5.54-1.79-5.54-6.27,0-4.13,2.13-6.59,5.69-6.59,4,0,6,2.27,6.24,7.16a.93.93,0,0,1-.09.45.33.33,0,0,1-.27.19H82.1c-.17,0-.32-.19-.35-.46-.39-2.84-1.34-3.74-3.91-3.74-2.88,0-3.21,1.64-3.21,2.87,0,1.49.4,1.92,4.28,2.76s5.67,2,5.67,6.43S82.31,128.67,78.34,128.67Z" transform="translate(-5.25 -5.12)"/><path class="cls-2" d="M96.55,103.87c0,2.2-1.09,4-2.43,4s-2.44-1.77-2.44-4,1.14-4,2.44-4S96.55,101.62,96.55,103.87Zm-4.47,0c0,1.86.91,3.35,2,3.35s2-1.52,2-3.35-.93-3.33-2-3.33S92.08,102,92.08,103.86Zm1-2.48h1c.32.26,1,.26,1,1.44,0,.82-.33,1-.52,1.1.37,0,.4.44.45,1,0,.36.14,1.1.14,1.1h-.58s-.1-1.27-.1-1.33c0-.26-.09-.38-.28-.22h-.47V106h-.63Zm.63,2.07h.4c.35.15.41-.25.41-.48,0-.61-.25-.61-.39-.56h-.42Z" transform="translate(-5.25 -5.12)"/><path class="cls-3" d="M35.3,52a3.17,3.17,0,0,0-.82-2.29L20.91,37.07a1.21,1.21,0,0,0-.75-.35h.19a1.24,1.24,0,0,0-.75.35L6.07,49.68A3.17,3.17,0,0,0,5.25,52l0,34a1.55,1.55,0,0,0,.41,1.14.55.55,0,0,0,.81,0l8-7.46a3.22,3.22,0,0,0,.82-2.29V61.43a3.15,3.15,0,0,1,.79-2.24l3.32-3.13a1.18,1.18,0,0,1,.79-.35,1.16,1.16,0,0,1,.79.35l3.32,3.13a3.15,3.15,0,0,1,.79,2.24V77.32A3.21,3.21,0,0,0,26,79.61l8.07,7.46a.56.56,0,0,0,.82,0,1.59,1.59,0,0,0,.4-1.14Z" transform="translate(-5.25 -5.12)"/><path class="cls-3" d="M99.69,5.29a.55.55,0,0,0-.81,0,1.64,1.64,0,0,0-.4,1.16V40.15a1.13,1.13,0,0,1-.28.79.38.38,0,0,1-.57,0L94.3,37.8a1.1,1.1,0,0,0-1.61,0L79.38,50.38a3.21,3.21,0,0,0-.81,2.29V78a3.25,3.25,0,0,0,.81,2.3L92.77,93a1.11,1.11,0,0,0,1.62,0L107.78,80.3a3.25,3.25,0,0,0,.81-2.3V15a3.23,3.23,0,0,0-.84-2.34ZM98.48,69.74a.8.8,0,0,1-.21.58L93.62,74.7a.27.27,0,0,1-.4,0l-4.65-4.38a.8.8,0,0,1-.2-.58V61a.8.8,0,0,1,.2-.58L93.22,56a.27.27,0,0,1,.4,0l4.65,4.39a.8.8,0,0,1,.21.58Z" transform="translate(-5.25 -5.12)"/><path class="cls-3" d="M144.44,60.75a3.24,3.24,0,0,0,.81-2.3V52.38a3.25,3.25,0,0,0-.81-2.3L131.09,37.4a1.1,1.1,0,0,0-1.62,0L116,50.08a3.25,3.25,0,0,0-.81,2.3v25.3A3.17,3.17,0,0,0,116,80l13.18,12.3a1.08,1.08,0,0,0,1.57,0l8-7.25a1.59,1.59,0,0,0,.41-1.14,1.63,1.63,0,0,0-.4-1.15L125.43,70.19a1.59,1.59,0,0,1-.41-1.14v-8a1.65,1.65,0,0,1,.41-1.16l4.24-4a.56.56,0,0,1,.82,0l4.24,4a1.64,1.64,0,0,1,.41,1.15v6.2a2.21,2.21,0,0,0,.11.74c.26.65.75.8,1.11.46Z" transform="translate(-5.25 -5.12)"/><path class="cls-4" d="M130.23,59.65l2.54,2.4a.6.6,0,0,1,.15.44v4.79a.6.6,0,0,1-.15.44l-2.54,2.39a.21.21,0,0,1-.31,0l-2.53-2.39a.65.65,0,0,1-.15-.44V62.49a.65.65,0,0,1,.15-.44l2.53-2.4A.21.21,0,0,1,130.23,59.65Z" transform="translate(-5.25 -5.12)"/><path class="cls-5" d="M57.88,37.68a1.08,1.08,0,0,0-1.6,0L43,50.2a3.15,3.15,0,0,0-.8,2.26V77.52a3.17,3.17,0,0,0,.8,2.27L56.28,92.32a1.08,1.08,0,0,0,1.6,0L71.13,79.79a3.17,3.17,0,0,0,.8-2.27V52.46a3.15,3.15,0,0,0-.8-2.26Z" transform="translate(-5.25 -5.12)"/><g class="cls-6"><path class="cls-7" d="M56.11,37.55,42.77,50.13a3.22,3.22,0,0,0-.86,2.28V77.58a3.56,3.56,0,0,0,.41,1.67l15-42A1.1,1.1,0,0,0,56.11,37.55Z" transform="translate(-5.25 -5.12)"/><path class="cls-7" d="M57.39,92.7a1.47,1.47,0,0,0,.38-.25L71.09,79.86a3.21,3.21,0,0,0,.84-2.28V52.41a3.6,3.6,0,0,0-.48-1.83Z" transform="translate(-5.25 -5.12)"/><path class="cls-8" d="M71.09,50.13,57.73,37.55a1.45,1.45,0,0,0-.41-.27l-15,42a2.41,2.41,0,0,0,.45.61L56.15,92.45a1.1,1.1,0,0,0,1.24.25L71.45,50.58A2.09,2.09,0,0,0,71.09,50.13Z" transform="translate(-5.25 -5.12)"/><path class="cls-7" d="M71.93,77.58V52.41a3.26,3.26,0,0,0-.84-2.28L57.73,37.55a1.28,1.28,0,0,0-.49-.3L71.88,78.18A3.83,3.83,0,0,0,71.93,77.58Z" transform="translate(-5.25 -5.12)"/><path class="cls-7" d="M42.77,50.13a3.22,3.22,0,0,0-.86,2.28V77.58a3.27,3.27,0,0,0,.86,2.28L56.15,92.45a1.13,1.13,0,0,0,1,.32L42.85,50.05Z" transform="translate(-5.25 -5.12)"/><polygon class="cls-9" points="50.45 27.81 50.26 27.98 50.51 27.98 50.45 27.81"/><path class="cls-10" d="M71.09,79.86a3,3,0,0,0,.79-1.68L57.24,37.25a1.11,1.11,0,0,0-1.13.3L42.85,50.05,57.18,92.77a1.28,1.28,0,0,0,.59-.32Z" transform="translate(-5.25 -5.12)"/><polygon class="cls-11" points="67.09 74.33 67 74.09 67 74.42 67.09 74.33"/><path class="cls-12" d="M71.09,79.86,57.77,92.45a1.28,1.28,0,0,1-.59.32l.26.8,14.81-14v-.33l-.37-1A3,3,0,0,1,71.09,79.86Z" transform="translate(-5.25 -5.12)"/><path class="cls-13" d="M71.09,79.86,57.77,92.45a1.28,1.28,0,0,1-.59.32l.26.8,14.81-14v-.33l-.37-1A3,3,0,0,1,71.09,79.86Z" transform="translate(-5.25 -5.12)"/></g></svg>