<svg id="Layer_1" data-name="Layer 1" xmlns="http://www.w3.org/2000/svg" viewBox="0 0 1399.99 852.12"><defs><style>.cls-1{fill:#45489e;}.cls-2{fill:#3c3c3c;}.cls-3{fill:#fff;}.cls-4{fill:#bdbdbd;}.cls-5{fill:#ccc;}.cls-6{fill:#d1d3d4;}.cls-7{fill:#717274;}.cls-8{fill:none;stroke:#fff;stroke-miterlimit:10;}.cls-9{fill:#615f44;}.cls-10{fill:#b2ab7e;}.cls-11{fill:#9a946d;}.cls-12{fill:#a69f75;}.cls-13{fill:#08bbe6;}.cls-14{fill:#10a8ce;}.cls-15{fill:#f26c5b;}.cls-16{fill:#db6253;}.cls-17{fill:#f8ed39;}.cls-18{fill:#dad337;}.cls-19{fill:#62606c;}.cls-20{fill:#58595b;}.cls-21{fill:#4c4a4d;}.cls-22{fill:#6e6f73;}.cls-23{fill:#434445;}.cls-24{fill:#343635;}.cls-25{fill:#5a5b5d;}.cls-26{fill:#6d6e72;}</style></defs><title>about</title><rect class="cls-1" y="508.16" width="1399.99" height="343.95"/><path class="cls-2" d="M1045.26,129.6H373a21.64,21.64,0,0,0-21.63,21.63V575.94A21.63,21.63,0,0,0,373,597.56h672.22a21.62,21.62,0,0,0,21.63-21.62V151.23A21.63,21.63,0,0,0,1045.26,129.6Z" transform="translate(0 -129.6)"/><path class="cls-3" d="M367.63,570V151.23a5.42,5.42,0,0,1,5.41-5.41h672.22a5.41,5.41,0,0,1,5.41,5.41V570Z" transform="translate(0 -129.6)"/><polygon class="cls-4" points="601.32 539.15 711.85 539.15 822.39 539.15 832 532.24 591.71 532.24 601.32 539.15"/><path class="cls-3" d="M628.5,644.42s-1.35,12.32-17,14.42l-19.82,3H832l-19.82-3c-15.62-2.1-17-14.42-17-14.42l-2.52-23.63-161.3-3.48Z" transform="translate(0 -129.6)"/><polygon class="cls-5" points="631.39 487.71 792.69 491.18 790.21 467.96 633.49 467.96 631.39 487.71"/><circle class="cls-3" cx="709.15" cy="453.83" r="7.5"/><polygon class="cls-3" points="551.26 635.99 549.51 635.99 506.41 635.99 506.41 780.8 917.66 780.8 917.66 635.99 551.26 635.99"/><rect class="cls-6" x="514.03" y="646.28" width="18.83" height="18.83" rx="2.11"/><rect class="cls-6" x="540.97" y="646.28" width="18.83" height="18.83" rx="2.11"/><rect class="cls-6" x="567.91" y="646.28" width="18.82" height="18.83" rx="2.11"/><rect class="cls-6" x="594.85" y="646.28" width="18.83" height="18.83" rx="2.11"/><rect class="cls-6" x="621.8" y="646.28" width="18.83" height="18.83" rx="2.11"/><rect class="cls-6" x="648.74" y="646.28" width="18.83" height="18.83" rx="2.11"/><rect class="cls-6" x="675.68" y="646.28" width="18.83" height="18.83" rx="2.11"/><rect class="cls-6" x="702.62" y="646.28" width="18.83" height="18.83" rx="2.11"/><rect class="cls-6" x="729.57" y="646.28" width="18.83" height="18.83" rx="2.11"/><rect class="cls-6" x="756.51" y="646.28" width="18.83" height="18.83" rx="2.11"/><rect class="cls-6" x="783.45" y="646.28" width="18.83" height="18.83" rx="2.11"/><rect class="cls-6" x="810.39" y="646.28" width="18.83" height="18.83" rx="2.11"/><rect class="cls-6" x="837.33" y="646.28" width="18.83" height="18.83" rx="2.11"/><path class="cls-6" d="M866.39,794.71a2.1,2.1,0,0,1-2.11-2.11V778a2.11,2.11,0,0,1,2.11-2.11H881a2.11,2.11,0,0,1,2.1,2.11V792.6a2.1,2.1,0,0,1-2.1,2.11Z" transform="translate(0 -129.6)"/><rect class="cls-6" x="891.22" y="646.28" width="18.83" height="18.83" rx="2.11"/><rect class="cls-6" x="514.03" y="672.63" width="18.83" height="18.83" rx="2.11"/><rect class="cls-6" x="540.97" y="672.63" width="18.83" height="18.83" rx="2.11"/><rect class="cls-6" x="567.91" y="672.63" width="18.82" height="18.83" rx="2.11"/><rect class="cls-6" x="594.85" y="672.63" width="18.83" height="18.83" rx="2.11"/><rect class="cls-6" x="621.8" y="672.63" width="18.83" height="18.83" rx="2.11"/><rect class="cls-6" x="648.74" y="672.63" width="18.83" height="18.83" rx="2.11"/><rect class="cls-6" x="675.68" y="672.63" width="18.83" height="18.83" rx="2.11"/><rect class="cls-6" x="702.62" y="672.63" width="18.83" height="18.83" rx="2.11"/><rect class="cls-6" x="729.57" y="672.63" width="18.83" height="18.83" rx="2.11"/><rect class="cls-6" x="756.51" y="672.63" width="18.83" height="18.83" rx="2.11"/><rect class="cls-6" x="837.33" y="672.63" width="18.83" height="18.83" rx="2.11"/><rect class="cls-6" x="864.28" y="672.63" width="18.82" height="18.83" rx="2.11"/><rect class="cls-6" x="891.22" y="672.63" width="18.83" height="18.83" rx="2.11"/><rect class="cls-6" x="514.03" y="698.98" width="18.83" height="18.83" rx="2.11"/><rect class="cls-6" x="540.97" y="698.98" width="18.83" height="18.83" rx="2.11"/><rect class="cls-6" x="567.91" y="698.98" width="18.82" height="18.83" rx="2.11"/><rect class="cls-6" x="594.85" y="698.98" width="18.83" height="18.83" rx="2.11"/><rect class="cls-6" x="621.8" y="698.98" width="18.83" height="18.83" rx="2.11"/><rect class="cls-6" x="648.74" y="698.98" width="18.83" height="18.83" rx="2.11"/><rect class="cls-6" x="675.68" y="698.98" width="18.83" height="18.83" rx="2.11"/><rect class="cls-6" x="702.62" y="698.98" width="18.83" height="18.83" rx="2.11"/><rect class="cls-6" x="729.57" y="698.98" width="18.83" height="18.83" rx="2.11"/><rect class="cls-6" x="756.51" y="698.98" width="18.83" height="18.83" rx="2.11"/><rect class="cls-6" x="783.45" y="698.98" width="18.83" height="18.83" rx="2.11"/><path class="cls-6" d="M812.5,847.41a2.1,2.1,0,0,1-2.1-2.11V821.06H785.56a2.11,2.11,0,0,1-2.11-2.1V804.34a2.12,2.12,0,0,1,2.11-2.11h41.55a2.11,2.11,0,0,1,2.11,2.11v41a2.1,2.1,0,0,1-2.11,2.11Z" transform="translate(0 -129.6)"/><rect class="cls-6" x="837.33" y="698.98" width="18.83" height="18.83" rx="2.11"/><path class="cls-6" d="M866.39,847.41a2.1,2.1,0,0,1-2.11-2.11V830.69a2.11,2.11,0,0,1,2.11-2.11H881a2.11,2.11,0,0,1,2.1,2.11V845.3a2.1,2.1,0,0,1-2.1,2.11Z" transform="translate(0 -129.6)"/><rect class="cls-6" x="891.22" y="698.98" width="18.83" height="18.83" rx="2.11"/><rect class="cls-6" x="514.03" y="725.33" width="18.83" height="18.83" rx="2.11"/><rect class="cls-6" x="540.97" y="725.33" width="18.83" height="18.83" rx="2.11"/><rect class="cls-6" x="567.91" y="725.33" width="18.82" height="18.83" rx="2.11"/><rect class="cls-6" x="594.85" y="725.33" width="18.83" height="18.83" rx="2.11"/><rect class="cls-6" x="621.8" y="725.33" width="18.83" height="18.83" rx="2.11"/><rect class="cls-6" x="648.74" y="725.33" width="18.83" height="18.83" rx="2.11"/><rect class="cls-6" x="675.68" y="725.33" width="18.83" height="18.83" rx="2.11"/><rect class="cls-6" x="702.62" y="725.33" width="18.83" height="18.83" rx="2.11"/><rect class="cls-6" x="729.57" y="725.33" width="18.83" height="18.83" rx="2.11"/><rect class="cls-6" x="756.51" y="725.33" width="18.83" height="18.83" rx="2.11"/><rect class="cls-6" x="810.39" y="725.33" width="18.83" height="18.83" rx="2.11"/><rect class="cls-6" x="864.28" y="725.33" width="18.82" height="18.83" rx="2.11"/><rect class="cls-6" x="891.22" y="725.33" width="18.83" height="18.83" rx="2.11"/><rect class="cls-6" x="514.03" y="751.69" width="18.83" height="18.83" rx="2.11"/><path class="cls-6" d="M543.08,900.12A2.12,2.12,0,0,1,541,898V883.39a2.11,2.11,0,0,1,2.11-2.1h41.56a2.1,2.1,0,0,1,2.1,2.1V898a2.11,2.11,0,0,1-2.1,2.11Z" transform="translate(0 -129.6)"/><rect class="cls-6" x="594.85" y="751.69" width="153.54" height="18.83" rx="2.11"/><rect class="cls-6" x="756.51" y="751.69" width="45.77" height="18.83" rx="2.11"/><rect class="cls-6" x="810.39" y="751.69" width="18.83" height="18.83" rx="2.11"/><rect class="cls-6" x="837.33" y="751.69" width="18.83" height="18.83" rx="2.11"/><rect class="cls-6" x="864.28" y="751.69" width="18.82" height="18.83" rx="2.11"/><rect class="cls-6" x="891.22" y="751.69" width="18.83" height="18.83" rx="2.11"/><path class="cls-3" d="M980.61,719.81l17.49,7.12a5.09,5.09,0,0,1,6.38-2.27l19.94,8.11a5.11,5.11,0,1,1-3.85,9.47l-20-8.11a5.11,5.11,0,0,1-3-6.08l-17.49-7.12a30.35,30.35,0,0,0,16.89,39l37.49,15.26A30.36,30.36,0,1,0,1057.42,719l-37.49-15.26A30.35,30.35,0,0,0,980.61,719.81Z" transform="translate(0 -129.6)"/><path class="cls-7" d="M997.82,727.46a3.35,3.35,0,0,1,.28-.53l-17.49-7.12c-.08.18-.17.36-.24.55s-.14.38-.22.57l17.49,7.12C997.7,727.85,997.74,727.66,997.82,727.46Z" transform="translate(0 -129.6)"/><path class="cls-6" d="M998.1,726.93a3.35,3.35,0,0,0-.28.53c-.08.2-.12.39-.18.59a5.11,5.11,0,0,0,3,6.08l20,8.11a5.11,5.11,0,1,0,3.85-9.47l-19.94-8.11A5.09,5.09,0,0,0,998.1,726.93Z" transform="translate(0 -129.6)"/><path class="cls-8" d="M563.86,766.17V741.73c0-13.44-12.6-24.44-28-24.44h-24a28.08,28.08,0,0,1-28-28V636.05" transform="translate(0 -129.6)"/><path class="cls-8" d="M980.36,720.47,939.27,703a29,29,0,0,1-15.53-37l11.76-29.94" transform="translate(0 -129.6)"/><path class="cls-3" d="M1170.16,835a25.26,25.26,0,0,1,0-50.52H1173l0,47.21.58,3.3Zm-2.82-44.67a19.62,19.62,0,0,0,0,38.83Z" transform="translate(0 -129.6)"/><path class="cls-9" d="M1228.71,343.64h50.14a12,12,0,0,1,12,12v1.1a12,12,0,0,1-12,12h-50.14a12,12,0,0,1-12-12v-1.1A12,12,0,0,1,1228.71,343.64Z"/><path class="cls-10" d="M1352.24,445.56V415.89a12.51,12.51,0,0,0-12.5-12.51H1167.83a12.51,12.51,0,0,0-12.51,12.51v29.67h196.92Z" transform="translate(0 -129.6)"/><polygon class="cls-11" points="1348.54 315.96 1159.02 315.96 1159.02 320 1348.54 331.28 1348.54 315.96"/><path class="cls-12" d="M1159,449.6V578.46a12,12,0,0,0,12,12h165.45a12,12,0,0,0,12-12V460.89Zm131.86,36.77a12,12,0,0,1-12,12h-50.14a12,12,0,0,1-12-12v-1.09a12,12,0,0,1,12-12h50.14a12,12,0,0,1,12,12Z" transform="translate(0 -129.6)"/><path class="cls-13" d="M1101.49,698.07a12,12,0,0,0,12,11.95h218.38a11.82,11.82,0,0,0,3.92-.67,11.92,11.92,0,0,1-5.5-18.63H1104A11.86,11.86,0,0,0,1101.49,698.07Z" transform="translate(0 -129.6)"/><path class="cls-14" d="M1113.44,686.12a11.92,11.92,0,0,0-9.41,4.6h226.21a11.91,11.91,0,0,1,5.5-3.93,11.82,11.82,0,0,0-3.92-.67H1113.44Z" transform="translate(0 -129.6)"/><path class="cls-15" d="M1120.79,674.17a12,12,0,0,0,12,12h218.38a11.76,11.76,0,0,0,3.91-.67,12,12,0,0,1-8-11.28,11.83,11.83,0,0,1,2.63-7.45H1123.4A11.9,11.9,0,0,0,1120.79,674.17Z" transform="translate(0 -129.6)"/><path class="cls-16" d="M1123.4,666.72h226.22a11.92,11.92,0,0,1,5.41-3.84,12,12,0,0,0-3.91-.67H1132.74A11.9,11.9,0,0,0,1123.4,666.72Z" transform="translate(0 -129.6)"/><path class="cls-17" d="M1096.66,650.26a12,12,0,0,0,12,12H1327a11.81,11.81,0,0,0,3.91-.67,11.91,11.91,0,0,1-5.34-18.82H1099.35A11.86,11.86,0,0,0,1096.66,650.26Z" transform="translate(0 -129.6)"/><path class="cls-18" d="M1108.62,638.31a11.93,11.93,0,0,0-9.27,4.41h226.22a12.06,12.06,0,0,1,5.34-3.75,12.06,12.06,0,0,0-3.91-.66H1108.62Z" transform="translate(0 -129.6)"/><path class="cls-15" d="M1120.79,626.36a12,12,0,0,0,12,11.95h218.38a12,12,0,0,0,3.91-.67,11.93,11.93,0,0,1-5.27-18.92H1123.55A11.86,11.86,0,0,0,1120.79,626.36Z" transform="translate(0 -129.6)"/><path class="cls-16" d="M1132.74,614.4a11.9,11.9,0,0,0-9.19,4.32h226.21a12,12,0,0,1,5.27-3.65,11.76,11.76,0,0,0-3.91-.67H1132.74Z" transform="translate(0 -129.6)"/><path class="cls-13" d="M1366.29,602.45a11.9,11.9,0,0,1,3.15-8.07H1143.23a11.94,11.94,0,0,0,8.81,20h218.38a11.81,11.81,0,0,0,3.91-.67A11.94,11.94,0,0,1,1366.29,602.45Z" transform="translate(0 -129.6)"/><path class="cls-14" d="M1374.33,591.17a11.81,11.81,0,0,0-3.91-.67H1152a11.94,11.94,0,0,0-8.81,3.88h226.21A12,12,0,0,1,1374.33,591.17Z" transform="translate(0 -129.6)"/><path class="cls-19" d="M1274.4,867.52a6.87,6.87,0,0,1-6.87,6.86h-69.72a6.87,6.87,0,0,1-6.87-6.86h0a6.88,6.88,0,0,1,6.87-6.87h69.72a6.88,6.88,0,0,1,6.87,6.87Z" transform="translate(0 -129.6)"/><path class="cls-3" d="M1228.07,784.48h-55.5v51.37s0,.16.06.39c.55,3.11,5.19,25.29,27.69,29.14h55.51c24.21-4.14,27.75-29.53,27.75-29.53V784.48Z" transform="translate(0 -129.6)"/><rect class="cls-20" x="133.95" y="250.94" width="93.12" height="286.39"/><rect class="cls-21" x="227.08" y="250.94" width="93.12" height="286.39"/><path class="cls-22" d="M281.77,585.21a54.69,54.69,0,1,1-54.69-54.69A54.7,54.7,0,0,1,281.77,585.21Z" transform="translate(0 -129.6)"/><path class="cls-23" d="M269.58,585.21a42.5,42.5,0,1,1-42.5-42.49A42.5,42.5,0,0,1,269.58,585.21Z" transform="translate(0 -129.6)"/><path class="cls-24" d="M261.89,585.21a34.81,34.81,0,1,1-34.81-34.81A34.82,34.82,0,0,1,261.89,585.21Z" transform="translate(0 -129.6)"/><path class="cls-25" d="M250.4,585.21a23.32,23.32,0,1,1-23.32-23.32A23.32,23.32,0,0,1,250.4,585.21Z" transform="translate(0 -129.6)"/><path class="cls-26" d="M243.26,585.21A16.18,16.18,0,1,1,227.08,569,16.19,16.19,0,0,1,243.26,585.21Z" transform="translate(0 -129.6)"/><path class="cls-22" d="M281.77,462.26a54.69,54.69,0,1,1-54.69-54.69A54.69,54.69,0,0,1,281.77,462.26Z" transform="translate(0 -129.6)"/><path class="cls-23" d="M269.58,462.26a42.5,42.5,0,1,1-42.5-42.5A42.49,42.49,0,0,1,269.58,462.26Z" transform="translate(0 -129.6)"/><path class="cls-24" d="M261.89,462.26a34.81,34.81,0,1,1-34.81-34.81A34.82,34.82,0,0,1,261.89,462.26Z" transform="translate(0 -129.6)"/><path class="cls-25" d="M250.4,462.26a23.32,23.32,0,1,1-23.32-23.32A23.32,23.32,0,0,1,250.4,462.26Z" transform="translate(0 -129.6)"/><path class="cls-26" d="M243.26,462.26a16.18,16.18,0,1,1-16.18-16.18A16.18,16.18,0,0,1,243.26,462.26Z" transform="translate(0 -129.6)"/></svg>