<?xml version="1.0" encoding="utf-8"?>
<!-- Generator: Adobe Illustrator 23.1.0, SVG Export Plug-In . SVG Version: 6.00 Build 0)  -->
<svg version="1.1" id="Layer_1" xmlns="http://www.w3.org/2000/svg" xmlns:xlink="http://www.w3.org/1999/xlink" x="0px" y="0px"
	 viewBox="0 0 335.99 235.19" style="enable-background:new 0 0 335.99 235.19;" xml:space="preserve">
<style type="text/css">
	.st0{fill:#FFFFFF;}
	.st1{fill-rule:evenodd;clip-rule:evenodd;fill:#73B3B8;}
	.st2{fill-rule:evenodd;clip-rule:evenodd;fill:#3D3D3D;}
	.st3{fill-rule:evenodd;clip-rule:evenodd;fill:#E8E9E8;}
	.st4{fill-rule:evenodd;clip-rule:evenodd;fill:#9D9E9D;}
	.st5{fill-rule:evenodd;clip-rule:evenodd;fill:#DBDBDB;}
	.st6{opacity:0.2;}
	.st7{fill-rule:evenodd;clip-rule:evenodd;fill:#FFFFFF;}
	.st8{fill:#3D3D3D;}
	.st9{fill:#5C6265;}
	.st10{fill:#EBF2F2;}
	.st11{fill:#F4927C;}
	.st12{fill:#DFE3E0;}
	.st13{fill-rule:evenodd;clip-rule:evenodd;fill:#FFE896;}
	.st14{fill-rule:evenodd;clip-rule:evenodd;fill:#F4927C;}
	.st15{fill:#DBDBDB;}
</style>
<g>
	<g>
		<g>
			<rect x="169.16" y="113.9" class="st0" width="1" height="2"/>
		</g>
		<g>
			<path class="st0" d="M170.16,109.67h-1v-4.23h1V109.67z M170.16,101.21h-1v-4.23h1V101.21z M170.16,92.74h-1v-4.23h1V92.74z
				 M170.16,84.28h-1v-4.23h1V84.28z M170.16,75.82h-1v-4.23h1V75.82z M170.16,67.35h-1v-4.23h1V67.35z"/>
		</g>
		<g>
			<polygon class="st0" points="170.16,58.89 169.16,58.89 169.16,57.39 167.66,57.39 167.66,56.39 170.16,56.39 			"/>
		</g>
		<g>
			<path class="st0" d="M163.96,57.39h-3.69v-1h3.69V57.39z M156.57,57.39h-3.69v-1h3.69V57.39z M149.19,57.39h-3.69v-1h3.69V57.39z
				 M141.8,57.39h-3.69v-1h3.69V57.39z M134.41,57.39h-3.69v-1h3.69V57.39z M127.02,57.39h-3.69v-1h3.69V57.39z"/>
		</g>
		<g>
			<polygon class="st0" points="119.64,57.39 117.14,57.39 117.14,54.89 118.14,54.89 118.14,56.39 119.64,56.39 			"/>
		</g>
		<g>
			<path class="st0" d="M118.14,51.17h-1v-3.72h1V51.17z M118.14,43.74h-1v-3.72h1V43.74z M118.14,36.31h-1v-3.72h1V36.31z"/>
		</g>
		<g>
			<polygon class="st0" points="118.14,28.87 117.14,28.87 117.14,27.37 115.64,27.37 115.64,26.37 118.14,26.37 			"/>
		</g>
		<g>
			<path class="st0" d="M111.5,27.37h-4.13v-1h4.13V27.37z M103.23,27.37H99.1v-1h4.13V27.37z M94.96,27.37h-4.13v-1h4.13V27.37z
				 M86.69,27.37h-4.13v-1h4.13V27.37z M78.42,27.37h-4.13v-1h4.13V27.37z M70.16,27.37h-4.13v-1h4.13V27.37z M61.89,27.37h-4.13v-1
				h4.13V27.37z M53.62,27.37h-4.13v-1h4.13V27.37z"/>
		</g>
		<g>
			<polygon class="st0" points="43.85,28.87 42.85,28.87 42.85,26.37 45.35,26.37 45.35,27.37 43.85,27.37 			"/>
		</g>
		<g>
			<path class="st0" d="M43.85,65.69h-1v-3.68h1V65.69z M43.85,58.33h-1v-3.68h1V58.33z M43.85,50.96h-1v-3.68h1V50.96z M43.85,43.6
				h-1v-3.68h1V43.6z M43.85,36.24h-1v-3.68h1V36.24z"/>
		</g>
		<g>
			<polygon class="st0" points="45.35,71.87 42.85,71.87 42.85,69.37 43.85,69.37 43.85,70.87 45.35,70.87 			"/>
		</g>
		<g>
			<rect x="47.59" y="70.87" class="st0" width="2.24" height="1"/>
		</g>
		<g>
			<polygon class="st0" points="54.57,73.37 53.57,73.37 53.57,71.87 52.07,71.87 52.07,70.87 54.57,70.87 			"/>
		</g>
		<g>
			<path class="st0" d="M54.57,123.6h-1v-4.19h1V123.6z M54.57,115.23h-1v-4.19h1V115.23z M54.57,106.86h-1v-4.19h1V106.86z
				 M54.57,98.49h-1V94.3h1V98.49z M54.57,90.12h-1v-4.19h1V90.12z M54.57,81.74h-1v-4.19h1V81.74z"/>
		</g>
		<g>
			<polygon class="st0" points="56.07,130.29 53.57,130.29 53.57,127.79 54.57,127.79 54.57,129.29 56.07,129.29 			"/>
		</g>
		<g>
			<path class="st0" d="M81.6,130.29h-4.25v-1h4.25V130.29z M73.09,130.29h-4.25v-1h4.25V130.29z M64.58,130.29h-4.25v-1h4.25
				V130.29z"/>
		</g>
		<g>
			<rect x="85.85" y="129.29" class="st0" width="2" height="1"/>
		</g>
	</g>
	<g>
		<g>
			<rect x="200.14" y="39.71" class="st0" width="2" height="1"/>
		</g>
		<g>
			<path class="st0" d="M196.12,40.71h-4.02v-1h4.02V40.71z M188.07,40.71h-4.02v-1h4.02V40.71z M180.03,40.71H176v-1h4.02V40.71z
				 M171.98,40.71h-4.02v-1h4.02V40.71z M163.94,40.71h-4.02v-1h4.02V40.71z"/>
		</g>
		<g>
			<polygon class="st0" points="154.39,42.21 153.39,42.21 153.39,39.71 155.89,39.71 155.89,40.71 154.39,40.71 			"/>
		</g>
		<g>
			<path class="st0" d="M154.39,116.45h-1v-4.12h1V116.45z M154.39,108.21h-1v-4.12h1V108.21z M154.39,99.96h-1v-4.12h1V99.96z
				 M154.39,91.71h-1v-4.12h1V91.71z M154.39,83.46h-1v-4.12h1V83.46z M154.39,75.21h-1v-4.12h1V75.21z M154.39,66.96h-1v-4.12h1
				V66.96z M154.39,58.71h-1v-4.12h1V58.71z M154.39,50.46h-1v-4.12h1V50.46z"/>
		</g>
		<g>
			<rect x="153.39" y="120.58" class="st0" width="1" height="2"/>
		</g>
	</g>
	<g>
		<g>
			<rect x="227.9" y="96.08" class="st0" width="1" height="2"/>
		</g>
		<g>
			<path class="st0" d="M228.9,92.34h-1V88.6h1V92.34z M228.9,84.87h-1v-3.74h1V84.87z M228.9,77.4h-1v-3.74h1V77.4z M228.9,69.92
				h-1v-3.74h1V69.92z"/>
		</g>
		<g>
			<polygon class="st0" points="228.9,62.45 227.9,62.45 227.9,59.95 230.4,59.95 230.4,60.95 228.9,60.95 			"/>
		</g>
		<g>
			<rect x="232.7" y="59.95" class="st0" width="2.3" height="1"/>
		</g>
		<g>
			<polygon class="st0" points="239.79,60.95 237.29,60.95 237.29,59.95 238.79,59.95 238.79,58.45 239.79,58.45 			"/>
		</g>
		<g>
			<path class="st0" d="M239.79,54.62h-1V50.8h1V54.62z M239.79,46.97h-1v-3.83h1V46.97z"/>
		</g>
		<g>
			<polygon class="st0" points="239.79,39.32 238.79,39.32 238.79,36.82 241.29,36.82 241.29,37.82 239.79,37.82 			"/>
		</g>
		<g>
			<path class="st0" d="M262.59,37.82h-3.55v-1h3.55V37.82z M255.49,37.82h-3.55v-1h3.55V37.82z M248.39,37.82h-3.55v-1h3.55V37.82z
				"/>
		</g>
		<g>
			<polygon class="st0" points="268.64,39.32 267.64,39.32 267.64,37.82 266.14,37.82 266.14,36.82 268.64,36.82 			"/>
		</g>
		<g>
			<path class="st0" d="M268.64,60.15h-1v-3.47h1V60.15z M268.64,53.2h-1v-3.47h1V53.2z M268.64,46.26h-1v-3.47h1V46.26z"/>
		</g>
		<g>
			<polygon class="st0" points="270.14,66.12 267.64,66.12 267.64,63.62 268.64,63.62 268.64,65.12 270.14,65.12 			"/>
		</g>
		<g>
			<path class="st0" d="M294.06,66.12h-3.99v-1h3.99V66.12z M286.09,66.12h-3.99v-1h3.99V66.12z M278.11,66.12h-3.99v-1h3.99V66.12z
				"/>
		</g>
		<g>
			<polygon class="st0" points="300.55,67.62 299.55,67.62 299.55,66.12 298.05,66.12 298.05,65.12 300.55,65.12 			"/>
		</g>
		<g>
			<path class="st0" d="M300.55,144.56h-1v-3.85h1V144.56z M300.55,136.86h-1v-3.85h1V136.86z M300.55,129.17h-1v-3.85h1V129.17z
				 M300.55,121.47h-1v-3.85h1V121.47z M300.55,113.78h-1v-3.85h1V113.78z M300.55,106.09h-1v-3.85h1V106.09z M300.55,98.39h-1
				v-3.85h1V98.39z M300.55,90.7h-1v-3.85h1V90.7z M300.55,83h-1v-3.85h1V83z M300.55,75.31h-1v-3.85h1V75.31z"/>
		</g>
		<g>
			<polygon class="st0" points="302.05,150.9 299.55,150.9 299.55,148.4 300.55,148.4 300.55,149.9 302.05,149.9 			"/>
		</g>
		<g>
			<rect x="305.99" y="149.9" class="st0" width="3.94" height="1"/>
		</g>
		<g>
			<polygon class="st0" points="316.37,152.4 315.37,152.4 315.37,150.9 313.87,150.9 313.87,149.9 316.37,149.9 			"/>
		</g>
		<g>
			<path class="st0" d="M316.37,174.08h-1v-3.61h1V174.08z M316.37,166.85h-1v-3.61h1V166.85z M316.37,159.63h-1v-3.61h1V159.63z"/>
		</g>
		<g>
			<polygon class="st0" points="316.37,180.19 313.87,180.19 313.87,179.19 315.37,179.19 315.37,177.69 316.37,177.69 			"/>
		</g>
		<g>
			<path class="st0" d="M309.88,180.19h-3.99v-1h3.99V180.19z M301.9,180.19h-3.99v-1h3.99V180.19z M293.92,180.19h-3.99v-1h3.99
				V180.19z M285.94,180.19h-3.99v-1h3.99V180.19z M277.96,180.19h-3.99v-1h3.99V180.19z M269.98,180.19h-3.99v-1h3.99V180.19z"/>
		</g>
		<g>
			<polygon class="st0" points="262,180.19 259.5,180.19 259.5,177.69 260.5,177.69 260.5,179.19 262,179.19 			"/>
		</g>
		<g>
			<path class="st0" d="M260.5,173.49h-1v-4.2h1V173.49z M260.5,165.09h-1v-4.2h1V165.09z M260.5,156.68h-1v-4.2h1V156.68z"/>
		</g>
		<g>
			<polygon class="st0" points="260.5,148.27 259.5,148.27 259.5,146.77 258,146.77 258,145.77 260.5,145.77 			"/>
		</g>
		<g>
			<path class="st0" d="M253.87,146.77h-4.13v-1h4.13V146.77z M245.62,146.77h-4.13v-1h4.13V146.77z M237.37,146.77h-4.13v-1h4.13
				V146.77z M229.12,146.77H225v-1h4.13V146.77z M220.87,146.77h-4.13v-1h4.13V146.77z"/>
		</g>
		<g>
			<rect x="210.62" y="145.77" class="st0" width="2" height="1"/>
		</g>
	</g>
	<g>
		<g>
			<rect x="90.28" y="145.42" class="st0" width="1" height="2"/>
		</g>
		<g>
			<path class="st0" d="M91.28,160.32h-1v-3.22h1V160.32z M91.28,153.87h-1v-3.23h1V153.87z"/>
		</g>
		<g>
			<polygon class="st0" points="91.28,166.05 88.78,166.05 88.78,165.05 90.28,165.05 90.28,163.55 91.28,163.55 			"/>
		</g>
		<g>
			<path class="st0" d="M85.07,166.05h-3.71v-1h3.71V166.05z M77.64,166.05h-3.71v-1h3.71V166.05z"/>
		</g>
		<g>
			<polygon class="st0" points="68.72,167.55 67.72,167.55 67.72,165.05 70.22,165.05 70.22,166.05 68.72,166.05 			"/>
		</g>
		<g>
			<rect x="67.72" y="172.15" class="st0" width="1" height="4.6"/>
		</g>
		<g>
			<polygon class="st0" points="68.72,183.85 66.22,183.85 66.22,182.85 67.72,182.85 67.72,181.35 68.72,181.35 			"/>
		</g>
		<g>
			<path class="st0" d="M62.52,183.85h-3.69v-1h3.69V183.85z M55.14,183.85h-3.69v-1h3.69V183.85z M47.75,183.85h-3.69v-1h3.69
				V183.85z"/>
		</g>
		<g>
			<polygon class="st0" points="40.36,183.85 37.86,183.85 37.86,181.35 38.86,181.35 38.86,182.85 40.36,182.85 			"/>
		</g>
		<g>
			<path class="st0" d="M38.86,177.79h-1v-3.56h1V177.79z M38.86,170.67h-1v-3.56h1V170.67z M38.86,163.56h-1V160h1V163.56z
				 M38.86,156.44h-1v-3.56h1V156.44z"/>
		</g>
		<g>
			<polygon class="st0" points="38.86,149.32 37.86,149.32 37.86,147.82 36.36,147.82 36.36,146.82 38.86,146.82 			"/>
		</g>
		<g>
			<path class="st0" d="M33.16,147.82h-3.2v-1h3.2V147.82z M26.77,147.82h-3.2v-1h3.2V147.82z"/>
		</g>
		<g>
			<polygon class="st0" points="20.37,147.82 17.87,147.82 17.87,145.32 18.87,145.32 18.87,146.82 20.37,146.82 			"/>
		</g>
		<g>
			<path class="st0" d="M18.87,141.54h-1v-3.78h1V141.54z M18.87,133.98h-1v-3.78h1V133.98z M18.87,126.42h-1v-3.78h1V126.42z
				 M18.87,118.86h-1v-3.78h1V118.86z M18.87,111.3h-1v-3.78h1V111.3z M18.87,103.74h-1v-3.78h1V103.74z M18.87,96.18h-1V92.4h1
				V96.18z M18.87,88.63h-1v-3.78h1V88.63z"/>
		</g>
		<g>
			<polygon class="st0" points="18.87,81.07 17.87,81.07 17.87,78.57 20.37,78.57 20.37,79.57 18.87,79.57 			"/>
		</g>
		<g>
			<path class="st0" d="M60.08,79.57h-3.97v-1h3.97V79.57z M52.14,79.57h-3.97v-1h3.97V79.57z M44.19,79.57h-3.97v-1h3.97V79.57z
				 M36.25,79.57h-3.97v-1h3.97V79.57z M28.31,79.57h-3.97v-1h3.97V79.57z"/>
		</g>
		<g>
			<rect x="64.05" y="78.57" class="st0" width="2" height="1"/>
		</g>
	</g>
	<g>
		<g>
			<rect x="300.65" y="118.57" class="st0" width="2" height="1"/>
		</g>
		<g>
			<path class="st0" d="M297.11,119.57h-3.53v-1h3.53V119.57z M290.05,119.57h-3.53v-1h3.53V119.57z"/>
		</g>
		<g>
			<polygon class="st0" points="282.98,119.57 280.48,119.57 280.48,117.07 281.48,117.07 281.48,118.57 282.98,118.57 			"/>
		</g>
		<g>
			<path class="st0" d="M281.48,113.67h-1v-3.4h1V113.67z M281.48,106.87h-1v-3.4h1V106.87z"/>
		</g>
		<g>
			<polygon class="st0" points="281.48,100.08 280.48,100.08 280.48,98.58 278.98,98.58 278.98,97.58 281.48,97.58 			"/>
		</g>
		<g>
			<path class="st0" d="M275.04,98.58h-3.94v-1h3.94V98.58z M267.15,98.58h-3.94v-1h3.94V98.58z M259.26,98.58h-3.94v-1h3.94V98.58z
				 M251.38,98.58h-3.94v-1h3.94V98.58z"/>
		</g>
		<g>
			<rect x="241.49" y="97.58" class="st0" width="2" height="1"/>
		</g>
	</g>
</g>
<g>
	<g>
		<path class="st1" d="M125.72,98.5h12.41V37.32h-12.41V98.5z M144.33,98.5h12.41V84.3h-12.41V98.5z M162.95,98.5h12.41V48.81
			h-12.41V98.5z M181.57,98.5h12.41V20.41h-12.41V98.5z M200.19,63.01V98.5h12.41V63.01H200.19z"/>
	</g>
</g>
<g>
	<g>
		<path class="st1" d="M268.14,102.83h-43.63v12.41h43.63V102.83z M280.98,121.45H224.5v12.41h56.48V121.45z M224.5,140.07v12.41
			h64.92v-12.41H224.5z M224.5,171.09H260v-12.41H224.5V171.09z"/>
	</g>
</g>
<g>
	<g>
		<path class="st1" d="M64.89,171.09h43.63v-12.41H64.89V171.09z M52.05,152.47h56.48v-12.41H52.05V152.47z M43.6,121.45v12.41
			h64.92v-12.41H43.6z M108.52,102.83H73.03v12.41h35.49V102.83z"/>
	</g>
</g>
<g>
	<path class="st0" d="M90.75,214h0.39v2.67h1.28v0.32h-1.67V214z"/>
	<path class="st0" d="M94.71,215.9c0,0.79-0.55,1.14-1.07,1.14c-0.58,0-1.03-0.43-1.03-1.11c0-0.72,0.47-1.14,1.07-1.14
		C94.29,214.79,94.71,215.24,94.71,215.9z M93,215.92c0,0.47,0.27,0.83,0.65,0.83c0.37,0,0.65-0.35,0.65-0.83
		c0-0.36-0.18-0.83-0.64-0.83S93,215.51,93,215.92z"/>
	<path class="st0" d="M95.2,215.51c0-0.25,0-0.47-0.02-0.67h0.34l0.01,0.42h0.02c0.1-0.29,0.33-0.47,0.6-0.47
		c0.04,0,0.08,0,0.11,0.01v0.37c-0.04-0.01-0.08-0.01-0.13-0.01c-0.27,0-0.47,0.21-0.52,0.5c-0.01,0.05-0.02,0.12-0.02,0.18v1.14
		H95.2V215.51z"/>
	<path class="st0" d="M96.82,215.99c0.01,0.53,0.35,0.75,0.74,0.75c0.28,0,0.45-0.05,0.6-0.11l0.07,0.28
		c-0.14,0.06-0.37,0.13-0.71,0.13c-0.66,0-1.06-0.44-1.06-1.08c0-0.65,0.38-1.16,1.01-1.16c0.7,0,0.89,0.62,0.89,1.01
		c0,0.08-0.01,0.14-0.01,0.18H96.82z M97.97,215.71c0-0.25-0.1-0.63-0.54-0.63c-0.4,0-0.57,0.36-0.6,0.63H97.97z"/>
	<path class="st0" d="M98.83,215.42c0-0.22,0-0.4-0.02-0.58h0.34l0.02,0.35h0.01c0.12-0.2,0.32-0.39,0.68-0.39
		c0.29,0,0.51,0.18,0.61,0.43h0.01c0.07-0.12,0.15-0.21,0.24-0.28c0.13-0.1,0.27-0.15,0.48-0.15c0.28,0,0.71,0.19,0.71,0.93v1.27
		h-0.38v-1.22c0-0.41-0.15-0.66-0.47-0.66c-0.22,0-0.4,0.17-0.46,0.36c-0.02,0.05-0.03,0.12-0.03,0.2v1.33h-0.38v-1.29
		c0-0.34-0.15-0.59-0.45-0.59c-0.24,0-0.42,0.2-0.48,0.39c-0.02,0.06-0.03,0.12-0.03,0.19v1.3h-0.38V215.42z"/>
	<path class="st0" d="M105.1,214.24c0,0.13-0.09,0.24-0.25,0.24c-0.14,0-0.24-0.11-0.24-0.24c0-0.14,0.1-0.24,0.24-0.24
		C105,213.99,105.1,214.1,105.1,214.24z M104.66,216.99v-2.15h0.39v2.15H104.66z"/>
	<path class="st0" d="M105.7,215.54c0-0.28-0.01-0.5-0.02-0.7h0.35l0.02,0.37h0.01c0.16-0.26,0.41-0.42,0.76-0.42
		c0.52,0,0.91,0.44,0.91,1.09c0,0.77-0.47,1.15-0.98,1.15c-0.28,0-0.53-0.12-0.66-0.34h-0.01v1.17h-0.39V215.54z M106.09,216.11
		c0,0.06,0.01,0.11,0.02,0.16c0.07,0.27,0.31,0.46,0.59,0.46c0.41,0,0.65-0.34,0.65-0.83c0-0.43-0.23-0.8-0.64-0.8
		c-0.27,0-0.52,0.19-0.59,0.48c-0.01,0.05-0.03,0.11-0.03,0.16V216.11z"/>
	<path class="st0" d="M108.17,216.59c0.12,0.07,0.32,0.15,0.52,0.15c0.28,0,0.42-0.14,0.42-0.32c0-0.19-0.11-0.29-0.4-0.4
		c-0.39-0.14-0.57-0.35-0.57-0.61c0-0.35,0.28-0.63,0.74-0.63c0.22,0,0.41,0.06,0.53,0.13l-0.1,0.28c-0.08-0.05-0.24-0.12-0.44-0.12
		c-0.23,0-0.36,0.13-0.36,0.29c0,0.18,0.13,0.26,0.41,0.36c0.37,0.14,0.56,0.33,0.56,0.65c0,0.38-0.29,0.64-0.8,0.64
		c-0.24,0-0.45-0.06-0.6-0.15L108.17,216.59z"/>
	<path class="st0" d="M111.78,216.4c0,0.22,0,0.42,0.02,0.59h-0.35l-0.02-0.35h-0.01c-0.1,0.17-0.33,0.4-0.71,0.4
		c-0.34,0-0.74-0.19-0.74-0.94v-1.26h0.39v1.19c0,0.41,0.12,0.68,0.48,0.68c0.26,0,0.44-0.18,0.52-0.35
		c0.02-0.06,0.04-0.13,0.04-0.2v-1.32h0.39V216.4z"/>
	<path class="st0" d="M112.42,215.42c0-0.22,0-0.4-0.02-0.58h0.34l0.02,0.35h0.01c0.12-0.2,0.32-0.39,0.68-0.39
		c0.29,0,0.51,0.18,0.61,0.43h0.01c0.07-0.12,0.15-0.21,0.24-0.28c0.13-0.1,0.27-0.15,0.48-0.15c0.28,0,0.71,0.19,0.71,0.93v1.27
		h-0.38v-1.22c0-0.41-0.15-0.66-0.47-0.66c-0.22,0-0.4,0.17-0.46,0.36c-0.02,0.05-0.03,0.12-0.03,0.2v1.33h-0.38v-1.29
		c0-0.34-0.15-0.59-0.45-0.59c-0.24,0-0.42,0.2-0.48,0.39c-0.02,0.06-0.03,0.12-0.03,0.19v1.3h-0.38V215.42z"/>
	<path class="st0" d="M120.12,213.84v2.6c0,0.19,0,0.41,0.02,0.55h-0.35l-0.02-0.37h-0.01c-0.12,0.24-0.38,0.42-0.73,0.42
		c-0.52,0-0.92-0.44-0.92-1.09c0-0.71,0.44-1.15,0.96-1.15c0.33,0,0.55,0.16,0.65,0.33h0.01v-1.28H120.12z M119.72,215.71
		c0-0.05,0-0.12-0.02-0.16c-0.06-0.25-0.27-0.45-0.56-0.45c-0.4,0-0.64,0.36-0.64,0.83c0,0.44,0.21,0.79,0.63,0.79
		c0.26,0,0.5-0.17,0.57-0.47c0.01-0.05,0.02-0.11,0.02-0.17V215.71z"/>
	<path class="st0" d="M122.71,215.9c0,0.79-0.55,1.14-1.07,1.14c-0.58,0-1.03-0.43-1.03-1.11c0-0.72,0.47-1.14,1.07-1.14
		C122.29,214.79,122.71,215.24,122.71,215.9z M121,215.92c0,0.47,0.27,0.83,0.65,0.83c0.37,0,0.65-0.35,0.65-0.83
		c0-0.36-0.18-0.83-0.64-0.83C121.2,215.08,121,215.51,121,215.92z"/>
	<path class="st0" d="M123.19,213.84h0.39v3.15h-0.39V213.84z"/>
	<path class="st0" d="M126.19,215.9c0,0.79-0.55,1.14-1.07,1.14c-0.58,0-1.03-0.43-1.03-1.11c0-0.72,0.47-1.14,1.07-1.14
		C125.77,214.79,126.19,215.24,126.19,215.9z M124.48,215.92c0,0.47,0.27,0.83,0.65,0.83c0.37,0,0.65-0.35,0.65-0.83
		c0-0.36-0.18-0.83-0.64-0.83C124.68,215.08,124.48,215.51,124.48,215.92z"/>
	<path class="st0" d="M126.68,215.51c0-0.25,0-0.47-0.02-0.67H127l0.01,0.42h0.02c0.1-0.29,0.33-0.47,0.6-0.47
		c0.04,0,0.08,0,0.11,0.01v0.37c-0.04-0.01-0.08-0.01-0.13-0.01c-0.27,0-0.47,0.21-0.52,0.5c-0.01,0.05-0.02,0.12-0.02,0.18v1.14
		h-0.39V215.51z"/>
	<path class="st0" d="M130.21,216.59c0.12,0.07,0.32,0.15,0.52,0.15c0.28,0,0.42-0.14,0.42-0.32c0-0.19-0.11-0.29-0.4-0.4
		c-0.39-0.14-0.57-0.35-0.57-0.61c0-0.35,0.28-0.63,0.74-0.63c0.22,0,0.41,0.06,0.53,0.13l-0.1,0.28c-0.08-0.05-0.24-0.12-0.44-0.12
		c-0.23,0-0.36,0.13-0.36,0.29c0,0.18,0.13,0.26,0.41,0.36c0.37,0.14,0.56,0.33,0.56,0.65c0,0.38-0.29,0.64-0.8,0.64
		c-0.24,0-0.45-0.06-0.6-0.15L130.21,216.59z"/>
	<path class="st0" d="M132.45,214.24c0,0.13-0.09,0.24-0.25,0.24c-0.14,0-0.24-0.11-0.24-0.24c0-0.14,0.1-0.24,0.24-0.24
		C132.36,213.99,132.45,214.1,132.45,214.24z M132.02,216.99v-2.15h0.39v2.15H132.02z"/>
	<path class="st0" d="M133.53,214.22v0.62h0.56v0.3h-0.56v1.16c0,0.27,0.08,0.42,0.29,0.42c0.1,0,0.18-0.01,0.23-0.03l0.02,0.29
		c-0.08,0.03-0.2,0.05-0.35,0.05c-0.18,0-0.33-0.06-0.42-0.16c-0.11-0.12-0.15-0.31-0.15-0.56v-1.17h-0.33v-0.3h0.33v-0.52
		L133.53,214.22z"/>
	<path class="st0" d="M137.85,216.99l-0.03-0.27h-0.01c-0.12,0.17-0.35,0.32-0.66,0.32c-0.44,0-0.66-0.31-0.66-0.62
		c0-0.52,0.46-0.8,1.29-0.8v-0.04c0-0.18-0.05-0.5-0.49-0.5c-0.2,0-0.41,0.06-0.56,0.16l-0.09-0.26c0.18-0.12,0.44-0.19,0.71-0.19
		c0.66,0,0.82,0.45,0.82,0.88v0.8c0,0.19,0.01,0.37,0.04,0.51H137.85z M137.79,215.89c-0.43-0.01-0.91,0.07-0.91,0.48
		c0,0.25,0.17,0.37,0.37,0.37c0.28,0,0.46-0.18,0.52-0.36c0.01-0.04,0.02-0.08,0.02-0.12V215.89z"/>
	<path class="st0" d="M138.8,215.42c0-0.22,0-0.4-0.02-0.58h0.34l0.02,0.35h0.01c0.12-0.2,0.32-0.39,0.68-0.39
		c0.29,0,0.51,0.18,0.61,0.43h0.01c0.07-0.12,0.15-0.21,0.24-0.28c0.13-0.1,0.27-0.15,0.48-0.15c0.28,0,0.71,0.19,0.71,0.93v1.27
		h-0.38v-1.22c0-0.41-0.15-0.66-0.47-0.66c-0.22,0-0.4,0.17-0.46,0.36c-0.02,0.05-0.03,0.12-0.03,0.2v1.33h-0.38v-1.29
		c0-0.34-0.15-0.59-0.45-0.59c-0.24,0-0.42,0.2-0.48,0.39c-0.02,0.06-0.03,0.12-0.03,0.19v1.3h-0.38V215.42z"/>
	<path class="st0" d="M142.72,215.99c0.01,0.53,0.35,0.75,0.74,0.75c0.28,0,0.45-0.05,0.6-0.11l0.07,0.28
		c-0.14,0.06-0.37,0.13-0.71,0.13c-0.66,0-1.06-0.44-1.06-1.08c0-0.65,0.38-1.16,1.01-1.16c0.7,0,0.89,0.62,0.89,1.01
		c0,0.08-0.01,0.14-0.01,0.18H142.72z M143.86,215.71c0-0.25-0.1-0.63-0.54-0.63c-0.4,0-0.57,0.36-0.6,0.63H143.86z"/>
	<path class="st0" d="M145.19,214.22v0.62h0.56v0.3h-0.56v1.16c0,0.27,0.08,0.42,0.29,0.42c0.1,0,0.18-0.01,0.23-0.03l0.02,0.29
		c-0.08,0.03-0.2,0.05-0.35,0.05c-0.18,0-0.33-0.06-0.42-0.16c-0.11-0.12-0.15-0.31-0.15-0.56v-1.17h-0.33v-0.3h0.33v-0.52
		L145.19,214.22z"/>
	<path class="st0" d="M145.92,217.54c0.1-0.26,0.22-0.74,0.27-1.06l0.43-0.04c-0.1,0.38-0.3,0.87-0.42,1.08L145.92,217.54z"/>
	<path class="st0" d="M150.76,216.91c-0.1,0.05-0.33,0.13-0.62,0.13c-0.65,0-1.07-0.44-1.07-1.1c0-0.66,0.45-1.14,1.15-1.14
		c0.23,0,0.44,0.06,0.54,0.11l-0.09,0.3c-0.09-0.05-0.24-0.1-0.45-0.1c-0.49,0-0.76,0.37-0.76,0.81c0,0.5,0.32,0.8,0.75,0.8
		c0.22,0,0.37-0.06,0.48-0.11L150.76,216.91z"/>
	<path class="st0" d="M153.13,215.9c0,0.79-0.55,1.14-1.07,1.14c-0.58,0-1.03-0.43-1.03-1.11c0-0.72,0.47-1.14,1.07-1.14
		C152.72,214.79,153.13,215.24,153.13,215.9z M151.43,215.92c0,0.47,0.27,0.83,0.65,0.83c0.37,0,0.65-0.35,0.65-0.83
		c0-0.36-0.18-0.83-0.64-0.83S151.43,215.51,151.43,215.92z"/>
	<path class="st0" d="M153.62,215.42c0-0.22,0-0.4-0.02-0.58h0.35l0.02,0.36h0.01c0.11-0.21,0.36-0.4,0.71-0.4
		c0.3,0,0.76,0.18,0.76,0.91v1.28h-0.39v-1.24c0-0.35-0.13-0.63-0.5-0.63c-0.26,0-0.46,0.18-0.52,0.4
		c-0.02,0.05-0.03,0.12-0.03,0.18v1.29h-0.39V215.42z"/>
	<path class="st0" d="M156.03,216.59c0.12,0.07,0.32,0.15,0.52,0.15c0.28,0,0.42-0.14,0.42-0.32c0-0.19-0.11-0.29-0.4-0.4
		c-0.39-0.14-0.57-0.35-0.57-0.61c0-0.35,0.28-0.63,0.74-0.63c0.22,0,0.41,0.06,0.53,0.13l-0.1,0.28c-0.08-0.05-0.24-0.12-0.44-0.12
		c-0.23,0-0.36,0.13-0.36,0.29c0,0.18,0.13,0.26,0.41,0.36c0.37,0.14,0.56,0.33,0.56,0.65c0,0.38-0.29,0.64-0.8,0.64
		c-0.24,0-0.45-0.06-0.6-0.15L156.03,216.59z"/>
	<path class="st0" d="M158.06,215.99c0.01,0.53,0.35,0.75,0.74,0.75c0.28,0,0.45-0.05,0.6-0.11l0.07,0.28
		c-0.14,0.06-0.37,0.13-0.71,0.13c-0.66,0-1.06-0.44-1.06-1.08c0-0.65,0.38-1.16,1.01-1.16c0.7,0,0.89,0.62,0.89,1.01
		c0,0.08-0.01,0.14-0.01,0.18H158.06z M159.21,215.71c0-0.25-0.1-0.63-0.54-0.63c-0.4,0-0.57,0.36-0.6,0.63H159.21z"/>
	<path class="st0" d="M161.6,216.91c-0.1,0.05-0.33,0.13-0.62,0.13c-0.65,0-1.07-0.44-1.07-1.1c0-0.66,0.45-1.14,1.15-1.14
		c0.23,0,0.43,0.06,0.54,0.11l-0.09,0.3c-0.09-0.05-0.24-0.1-0.45-0.1c-0.49,0-0.76,0.37-0.76,0.81c0,0.5,0.32,0.8,0.75,0.8
		c0.22,0,0.37-0.06,0.48-0.11L161.6,216.91z"/>
	<path class="st0" d="M162.58,214.22v0.62h0.56v0.3h-0.56v1.16c0,0.27,0.08,0.42,0.29,0.42c0.1,0,0.18-0.01,0.23-0.03l0.02,0.29
		c-0.08,0.03-0.2,0.05-0.35,0.05c-0.18,0-0.33-0.06-0.42-0.16c-0.11-0.12-0.15-0.31-0.15-0.56v-1.17h-0.33v-0.3h0.33v-0.52
		L162.58,214.22z"/>
	<path class="st0" d="M163.77,215.99c0.01,0.53,0.35,0.75,0.74,0.75c0.28,0,0.45-0.05,0.6-0.11l0.07,0.28
		c-0.14,0.06-0.37,0.13-0.71,0.13c-0.66,0-1.06-0.44-1.06-1.08c0-0.65,0.38-1.16,1.01-1.16c0.7,0,0.89,0.62,0.89,1.01
		c0,0.08-0.01,0.14-0.01,0.18H163.77z M164.91,215.71c0-0.25-0.1-0.63-0.54-0.63c-0.4,0-0.57,0.36-0.6,0.63H164.91z"/>
	<path class="st0" d="M166.24,214.22v0.62h0.56v0.3h-0.56v1.16c0,0.27,0.08,0.42,0.29,0.42c0.1,0,0.18-0.01,0.23-0.03l0.02,0.29
		c-0.08,0.03-0.2,0.05-0.35,0.05c-0.18,0-0.33-0.06-0.42-0.16c-0.11-0.12-0.15-0.31-0.15-0.56v-1.17h-0.33v-0.3h0.33v-0.52
		L166.24,214.22z"/>
	<path class="st0" d="M169.04,216.4c0,0.22,0,0.42,0.02,0.59h-0.35l-0.02-0.35h-0.01c-0.1,0.17-0.33,0.4-0.71,0.4
		c-0.34,0-0.74-0.19-0.74-0.94v-1.26h0.39v1.19c0,0.41,0.12,0.68,0.48,0.68c0.26,0,0.44-0.18,0.52-0.35
		c0.02-0.06,0.04-0.13,0.04-0.2v-1.32h0.39V216.4z"/>
	<path class="st0" d="M169.68,215.51c0-0.25,0-0.47-0.02-0.67h0.34l0.01,0.42h0.02c0.1-0.29,0.33-0.47,0.59-0.47
		c0.04,0,0.08,0,0.11,0.01v0.37c-0.04-0.01-0.08-0.01-0.13-0.01c-0.28,0-0.47,0.21-0.52,0.5c-0.01,0.05-0.02,0.12-0.02,0.18v1.14
		h-0.39V215.51z"/>
	<path class="st0" d="M174.46,216.99l-0.03-0.27h-0.01c-0.12,0.17-0.35,0.32-0.66,0.32c-0.44,0-0.66-0.31-0.66-0.62
		c0-0.52,0.46-0.8,1.29-0.8v-0.04c0-0.18-0.05-0.5-0.49-0.5c-0.2,0-0.41,0.06-0.56,0.16l-0.09-0.26c0.18-0.12,0.44-0.19,0.71-0.19
		c0.66,0,0.82,0.45,0.82,0.88v0.8c0,0.19,0.01,0.37,0.04,0.51H174.46z M174.4,215.89c-0.43-0.01-0.91,0.07-0.91,0.48
		c0,0.25,0.17,0.37,0.37,0.37c0.28,0,0.46-0.18,0.52-0.36c0.01-0.04,0.02-0.08,0.02-0.12V215.89z"/>
	<path class="st0" d="M177.26,213.84v2.6c0,0.19,0,0.41,0.02,0.55h-0.35l-0.02-0.37h-0.01c-0.12,0.24-0.38,0.42-0.73,0.42
		c-0.52,0-0.92-0.44-0.92-1.09c-0.01-0.71,0.44-1.15,0.96-1.15c0.33,0,0.55,0.16,0.65,0.33h0.01v-1.28H177.26z M176.87,215.71
		c0-0.05,0-0.12-0.02-0.16c-0.06-0.25-0.27-0.45-0.56-0.45c-0.4,0-0.64,0.36-0.64,0.83c0,0.44,0.21,0.79,0.63,0.79
		c0.26,0,0.5-0.17,0.57-0.47c0.01-0.05,0.02-0.11,0.02-0.17V215.71z"/>
	<path class="st0" d="M178.34,214.24c0,0.13-0.09,0.24-0.25,0.24c-0.14,0-0.23-0.11-0.23-0.24c0-0.14,0.1-0.24,0.24-0.24
		C178.25,213.99,178.34,214.1,178.34,214.24z M177.91,216.99v-2.15h0.39v2.15H177.91z"/>
	<path class="st0" d="M178.95,215.54c0-0.28-0.01-0.5-0.02-0.7h0.35l0.02,0.37h0.01c0.16-0.26,0.41-0.42,0.76-0.42
		c0.52,0,0.91,0.44,0.91,1.09c0,0.77-0.47,1.15-0.98,1.15c-0.28,0-0.53-0.12-0.66-0.34h-0.01v1.17h-0.39V215.54z M179.33,216.11
		c0,0.06,0.01,0.11,0.02,0.16c0.07,0.27,0.31,0.46,0.59,0.46c0.41,0,0.65-0.34,0.65-0.83c0-0.43-0.23-0.8-0.64-0.8
		c-0.27,0-0.52,0.19-0.59,0.48c-0.01,0.05-0.03,0.11-0.03,0.16V216.11z"/>
	<path class="st0" d="M181.9,214.24c0,0.13-0.09,0.24-0.25,0.24c-0.14,0-0.24-0.11-0.24-0.24c0-0.14,0.1-0.24,0.24-0.24
		C181.81,213.99,181.9,214.1,181.9,214.24z M181.47,216.99v-2.15h0.39v2.15H181.47z"/>
	<path class="st0" d="M182.45,216.59c0.12,0.07,0.32,0.15,0.52,0.15c0.28,0,0.42-0.14,0.42-0.32c0-0.19-0.11-0.29-0.4-0.4
		c-0.39-0.14-0.57-0.35-0.57-0.61c0-0.35,0.28-0.63,0.74-0.63c0.22,0,0.41,0.06,0.53,0.13l-0.1,0.28c-0.08-0.05-0.24-0.12-0.44-0.12
		c-0.23,0-0.36,0.13-0.36,0.29c0,0.18,0.13,0.26,0.41,0.36c0.37,0.14,0.56,0.33,0.56,0.65c0,0.38-0.29,0.64-0.8,0.64
		c-0.24,0-0.45-0.06-0.6-0.15L182.45,216.59z"/>
	<path class="st0" d="M185.79,216.91c-0.1,0.05-0.33,0.13-0.62,0.13c-0.65,0-1.07-0.44-1.07-1.1c0-0.66,0.45-1.14,1.15-1.14
		c0.23,0,0.44,0.06,0.54,0.11l-0.09,0.3c-0.09-0.05-0.24-0.1-0.45-0.1c-0.49,0-0.76,0.37-0.76,0.81c0,0.5,0.32,0.8,0.75,0.8
		c0.22,0,0.37-0.06,0.48-0.11L185.79,216.91z"/>
	<path class="st0" d="M186.68,214.24c0,0.13-0.09,0.24-0.25,0.24c-0.14,0-0.23-0.11-0.23-0.24c0-0.14,0.1-0.24,0.24-0.24
		C186.59,213.99,186.68,214.1,186.68,214.24z M186.25,216.99v-2.15h0.39v2.15H186.25z"/>
	<path class="st0" d="M187.29,215.42c0-0.22,0-0.4-0.02-0.58h0.35l0.02,0.36h0.01c0.11-0.21,0.36-0.4,0.71-0.4
		c0.3,0,0.76,0.18,0.76,0.91v1.28h-0.39v-1.24c0-0.35-0.13-0.63-0.5-0.63c-0.26,0-0.46,0.18-0.52,0.4
		c-0.02,0.05-0.03,0.12-0.03,0.18v1.29h-0.39V215.42z"/>
	<path class="st0" d="M191.6,214.84c-0.01,0.16-0.02,0.33-0.02,0.59v1.25c0,0.49-0.1,0.79-0.31,0.98c-0.21,0.2-0.51,0.26-0.78,0.26
		c-0.26,0-0.54-0.06-0.71-0.18l0.1-0.3c0.14,0.09,0.36,0.17,0.63,0.17c0.4,0,0.69-0.21,0.69-0.75v-0.24h-0.01
		c-0.12,0.2-0.35,0.36-0.68,0.36c-0.53,0-0.91-0.45-0.91-1.05c0-0.73,0.47-1.14,0.97-1.14c0.37,0,0.58,0.2,0.67,0.37h0.01l0.02-0.32
		H191.6z M191.2,215.69c0-0.07,0-0.12-0.02-0.18c-0.07-0.23-0.26-0.41-0.55-0.41c-0.37,0-0.64,0.31-0.64,0.81
		c0,0.42,0.21,0.77,0.63,0.77c0.24,0,0.46-0.15,0.54-0.4c0.02-0.07,0.03-0.14,0.03-0.21V215.69z"/>
	<path class="st0" d="M194.58,215.99c0.01,0.53,0.35,0.75,0.74,0.75c0.28,0,0.45-0.05,0.6-0.11l0.07,0.28
		c-0.14,0.06-0.37,0.13-0.71,0.13c-0.66,0-1.06-0.44-1.06-1.08c0-0.65,0.38-1.16,1.01-1.16c0.7,0,0.89,0.62,0.89,1.01
		c0,0.08-0.01,0.14-0.01,0.18H194.58z M195.73,215.71c0-0.25-0.1-0.63-0.54-0.63c-0.39,0-0.57,0.36-0.6,0.63H195.73z"/>
	<path class="st0" d="M196.59,213.84h0.39v3.15h-0.39V213.84z"/>
	<path class="st0" d="M198.07,214.24c0,0.13-0.09,0.24-0.25,0.24c-0.14,0-0.23-0.11-0.23-0.24c0-0.14,0.1-0.24,0.24-0.24
		C197.97,213.99,198.07,214.1,198.07,214.24z M197.63,216.99v-2.15h0.39v2.15H197.63z"/>
	<path class="st0" d="M199.14,214.22v0.62h0.56v0.3h-0.56v1.16c0,0.27,0.08,0.42,0.29,0.42c0.1,0,0.18-0.01,0.23-0.03l0.02,0.29
		c-0.08,0.03-0.2,0.05-0.35,0.05c-0.18,0-0.33-0.06-0.42-0.16c-0.11-0.12-0.15-0.31-0.15-0.56v-1.17h-0.33v-0.3h0.33v-0.52
		L199.14,214.22z"/>
	<path class="st0" d="M199.87,217.54c0.1-0.26,0.22-0.74,0.27-1.06l0.43-0.04c-0.1,0.38-0.3,0.87-0.42,1.08L199.87,217.54z"/>
	<path class="st0" d="M203.13,216.59c0.12,0.07,0.32,0.15,0.51,0.15c0.29,0,0.42-0.14,0.42-0.32c0-0.19-0.11-0.29-0.4-0.4
		c-0.39-0.14-0.57-0.35-0.57-0.61c0-0.35,0.28-0.63,0.74-0.63c0.22,0,0.41,0.06,0.53,0.13l-0.1,0.28c-0.08-0.05-0.24-0.12-0.44-0.12
		c-0.23,0-0.36,0.13-0.36,0.29c0,0.18,0.13,0.26,0.41,0.36c0.37,0.14,0.56,0.33,0.56,0.65c0,0.38-0.29,0.64-0.8,0.64
		c-0.24,0-0.45-0.06-0.6-0.15L203.13,216.59z"/>
	<path class="st0" d="M205.15,215.99c0.01,0.53,0.35,0.75,0.74,0.75c0.28,0,0.45-0.05,0.59-0.11l0.07,0.28
		c-0.14,0.06-0.37,0.13-0.71,0.13c-0.66,0-1.06-0.44-1.06-1.08c0-0.65,0.38-1.16,1.01-1.16c0.7,0,0.89,0.62,0.89,1.01
		c0,0.08-0.01,0.14-0.01,0.18H205.15z M206.3,215.71c0-0.25-0.1-0.63-0.54-0.63c-0.4,0-0.57,0.36-0.6,0.63H206.3z"/>
	<path class="st0" d="M209.01,213.84v2.6c0,0.19,0,0.41,0.02,0.55h-0.35l-0.02-0.37h-0.01c-0.12,0.24-0.38,0.42-0.73,0.42
		c-0.52,0-0.92-0.44-0.92-1.09c0-0.71,0.44-1.15,0.96-1.15c0.33,0,0.55,0.16,0.65,0.33h0.01v-1.28H209.01z M208.62,215.71
		c0-0.05,0-0.12-0.02-0.16c-0.06-0.25-0.27-0.45-0.56-0.45c-0.4,0-0.64,0.36-0.64,0.83c0,0.44,0.21,0.79,0.63,0.79
		c0.26,0,0.5-0.17,0.57-0.47c0.01-0.05,0.02-0.11,0.02-0.17V215.71z"/>
	<path class="st0" d="M213.65,213.84v2.6c0,0.19,0,0.41,0.02,0.55h-0.35l-0.02-0.37h-0.01c-0.12,0.24-0.38,0.42-0.73,0.42
		c-0.52,0-0.92-0.44-0.92-1.09c-0.01-0.71,0.44-1.15,0.96-1.15c0.33,0,0.55,0.16,0.65,0.33h0.01v-1.28H213.65z M213.26,215.71
		c0-0.05,0-0.12-0.02-0.16c-0.06-0.25-0.27-0.45-0.56-0.45c-0.4,0-0.64,0.36-0.64,0.83c0,0.44,0.21,0.79,0.63,0.79
		c0.26,0,0.5-0.17,0.57-0.47c0.01-0.05,0.02-0.11,0.02-0.17V215.71z"/>
	<path class="st0" d="M216.24,215.9c0,0.79-0.55,1.14-1.07,1.14c-0.58,0-1.03-0.43-1.03-1.11c0-0.72,0.47-1.14,1.07-1.14
		C215.82,214.79,216.24,215.24,216.24,215.9z M214.54,215.92c0,0.47,0.27,0.83,0.65,0.83c0.37,0,0.65-0.35,0.65-0.83
		c0-0.36-0.18-0.83-0.64-0.83C214.74,215.08,214.54,215.51,214.54,215.92z"/>
	<path class="st0" d="M219.08,215.99c0.01,0.53,0.35,0.75,0.74,0.75c0.28,0,0.45-0.05,0.6-0.11l0.07,0.28
		c-0.14,0.06-0.37,0.13-0.71,0.13c-0.66,0-1.06-0.44-1.06-1.08c0-0.65,0.38-1.16,1.01-1.16c0.7,0,0.89,0.62,0.89,1.01
		c0,0.08-0.01,0.14-0.01,0.18H219.08z M220.23,215.71c0-0.25-0.1-0.63-0.54-0.63c-0.4,0-0.57,0.36-0.6,0.63H220.23z"/>
	<path class="st0" d="M221.52,214.24c0,0.13-0.09,0.24-0.25,0.24c-0.14,0-0.23-0.11-0.23-0.24c0-0.14,0.1-0.24,0.24-0.24
		C221.43,213.99,221.52,214.1,221.52,214.24z M221.09,216.99v-2.15h0.39v2.15H221.09z"/>
	<path class="st0" d="M223.93,216.4c0,0.22,0,0.42,0.02,0.59h-0.35l-0.02-0.35h-0.01c-0.1,0.17-0.33,0.4-0.71,0.4
		c-0.34,0-0.74-0.19-0.74-0.94v-1.26h0.39v1.19c0,0.41,0.13,0.68,0.48,0.68c0.26,0,0.44-0.18,0.51-0.35
		c0.02-0.06,0.04-0.13,0.04-0.2v-1.32h0.39V216.4z"/>
	<path class="st0" d="M224.52,216.59c0.12,0.07,0.32,0.15,0.51,0.15c0.28,0,0.42-0.14,0.42-0.32c0-0.19-0.11-0.29-0.4-0.4
		c-0.39-0.14-0.57-0.35-0.57-0.61c0-0.35,0.28-0.63,0.74-0.63c0.22,0,0.41,0.06,0.53,0.13l-0.1,0.28c-0.08-0.05-0.24-0.12-0.44-0.12
		c-0.23,0-0.36,0.13-0.36,0.29c0,0.18,0.13,0.26,0.41,0.36c0.37,0.14,0.56,0.33,0.56,0.65c0,0.38-0.29,0.64-0.8,0.64
		c-0.24,0-0.45-0.06-0.6-0.15L224.52,216.59z"/>
	<path class="st0" d="M226.33,215.42c0-0.22,0-0.4-0.02-0.58h0.34l0.02,0.35h0.01c0.12-0.2,0.32-0.39,0.68-0.39
		c0.29,0,0.51,0.18,0.61,0.43h0.01c0.07-0.12,0.15-0.21,0.24-0.28c0.13-0.1,0.27-0.15,0.48-0.15c0.28,0,0.71,0.19,0.71,0.93v1.27
		h-0.38v-1.22c0-0.41-0.15-0.66-0.47-0.66c-0.22,0-0.4,0.17-0.46,0.36c-0.02,0.05-0.03,0.12-0.03,0.2v1.33h-0.38v-1.29
		c0-0.34-0.15-0.59-0.45-0.59c-0.24,0-0.42,0.2-0.48,0.39c-0.02,0.06-0.03,0.12-0.03,0.19v1.3h-0.38V215.42z"/>
	<path class="st0" d="M231.97,215.9c0,0.79-0.55,1.14-1.07,1.14c-0.58,0-1.03-0.43-1.03-1.11c0-0.72,0.47-1.14,1.07-1.14
		C231.55,214.79,231.97,215.24,231.97,215.9z M230.27,215.92c0,0.47,0.27,0.83,0.65,0.83c0.37,0,0.65-0.35,0.65-0.83
		c0-0.36-0.18-0.83-0.64-0.83S230.27,215.51,230.27,215.92z"/>
	<path class="st0" d="M234.32,213.84v2.6c0,0.19,0,0.41,0.02,0.55h-0.35l-0.02-0.37h-0.01c-0.12,0.24-0.38,0.42-0.73,0.42
		c-0.52,0-0.92-0.44-0.92-1.09c0-0.71,0.44-1.15,0.96-1.15c0.33,0,0.55,0.16,0.65,0.33h0.01v-1.28H234.32z M233.93,215.71
		c0-0.05,0-0.12-0.02-0.16c-0.06-0.25-0.27-0.45-0.56-0.45c-0.4,0-0.64,0.36-0.64,0.83c0,0.44,0.21,0.79,0.63,0.79
		c0.26,0,0.5-0.17,0.57-0.47c0.01-0.05,0.02-0.11,0.02-0.17V215.71z"/>
	<path class="st0" d="M237.04,216.59c0.12,0.07,0.32,0.15,0.52,0.15c0.28,0,0.42-0.14,0.42-0.32c0-0.19-0.11-0.29-0.4-0.4
		c-0.39-0.14-0.57-0.35-0.57-0.61c0-0.35,0.28-0.63,0.74-0.63c0.22,0,0.41,0.06,0.53,0.13l-0.1,0.28c-0.08-0.05-0.24-0.12-0.44-0.12
		c-0.23,0-0.36,0.13-0.36,0.29c0,0.18,0.13,0.26,0.41,0.36c0.37,0.14,0.56,0.33,0.56,0.65c0,0.38-0.29,0.64-0.8,0.64
		c-0.24,0-0.45-0.06-0.6-0.15L237.04,216.59z"/>
	<path class="st0" d="M240.99,215.42c0-0.22,0-0.4-0.02-0.58h0.35l0.02,0.36h0.01c0.11-0.21,0.36-0.4,0.71-0.4
		c0.3,0,0.76,0.18,0.76,0.91v1.28h-0.39v-1.24c0-0.35-0.13-0.63-0.5-0.63c-0.26,0-0.46,0.18-0.52,0.4
		c-0.02,0.05-0.03,0.12-0.03,0.18v1.29h-0.39V215.42z"/>
	<path class="st0" d="M245.4,215.9c0,0.79-0.55,1.14-1.07,1.14c-0.58,0-1.03-0.43-1.03-1.11c0-0.72,0.47-1.14,1.07-1.14
		C244.98,214.79,245.4,215.24,245.4,215.9z M243.69,215.92c0,0.47,0.27,0.83,0.65,0.83c0.37,0,0.65-0.35,0.65-0.83
		c0-0.36-0.18-0.83-0.64-0.83C243.89,215.08,243.69,215.51,243.69,215.92z"/>
	<path class="st0" d="M245.83,216.59c0.12,0.07,0.32,0.15,0.52,0.15c0.28,0,0.42-0.14,0.42-0.32c0-0.19-0.11-0.29-0.4-0.4
		c-0.39-0.14-0.57-0.35-0.57-0.61c0-0.35,0.28-0.63,0.74-0.63c0.22,0,0.41,0.06,0.53,0.13l-0.1,0.28c-0.08-0.05-0.24-0.12-0.44-0.12
		c-0.23,0-0.36,0.13-0.36,0.29c0,0.18,0.13,0.26,0.41,0.36c0.37,0.14,0.56,0.33,0.56,0.65c0,0.38-0.29,0.64-0.8,0.64
		c-0.24,0-0.45-0.06-0.6-0.15L245.83,216.59z"/>
	<path class="st0" d="M248.11,214.22v0.62h0.56v0.3h-0.56v1.16c0,0.27,0.08,0.42,0.29,0.42c0.1,0,0.18-0.01,0.23-0.03l0.02,0.29
		c-0.08,0.03-0.2,0.05-0.35,0.05c-0.18,0-0.33-0.06-0.42-0.16c-0.11-0.12-0.15-0.31-0.15-0.56v-1.17h-0.33v-0.3h0.33v-0.52
		L248.11,214.22z"/>
	<path class="st0" d="M249.11,215.51c0-0.25,0-0.47-0.02-0.67h0.34l0.01,0.42h0.02c0.1-0.29,0.33-0.47,0.59-0.47
		c0.04,0,0.08,0,0.11,0.01v0.37c-0.04-0.01-0.08-0.01-0.13-0.01c-0.28,0-0.47,0.21-0.52,0.5c-0.01,0.05-0.02,0.12-0.02,0.18v1.14
		h-0.39V215.51z"/>
	<path class="st0" d="M252.36,216.4c0,0.22,0,0.42,0.02,0.59h-0.35l-0.02-0.35H252c-0.1,0.17-0.33,0.4-0.71,0.4
		c-0.34,0-0.74-0.19-0.74-0.94v-1.26h0.39v1.19c0,0.41,0.12,0.68,0.48,0.68c0.26,0,0.44-0.18,0.52-0.35
		c0.02-0.06,0.04-0.13,0.04-0.2v-1.32h0.39V216.4z"/>
	<path class="st0" d="M254.86,213.84v2.6c0,0.19,0,0.41,0.02,0.55h-0.35l-0.02-0.37h-0.01c-0.12,0.24-0.38,0.42-0.73,0.42
		c-0.52,0-0.92-0.44-0.92-1.09c0-0.71,0.44-1.15,0.96-1.15c0.33,0,0.55,0.16,0.65,0.33h0.01v-1.28H254.86z M254.47,215.71
		c0-0.05,0-0.12-0.02-0.16c-0.06-0.25-0.27-0.45-0.56-0.45c-0.4,0-0.64,0.36-0.64,0.83c0,0.44,0.21,0.79,0.63,0.79
		c0.26,0,0.5-0.17,0.57-0.47c0.01-0.05,0.02-0.11,0.02-0.17V215.71z"/>
</g>
<g>
	<path class="st0" d="M130.69,201.13c-0.29-1.29-0.3-2.18-0.3-2.18h-0.07c0,0-0.01,0.88-0.32,2.18l-1.06,4.63
		c-0.33,0.06-0.91,0.11-1.46,0.11s-1.07-0.05-1.38-0.11l-2.35-8.48c0,0,0.4-0.11,1.11-0.11c0.69,0,1.05,0.11,1.05,0.11l1.32,4.83
		c0.23,0.94,0.39,1.93,0.39,1.93h0.05c0,0,0.1-0.97,0.32-1.92l1.14-4.85c0,0,0.4-0.11,1.27-0.11c0.85,0,1.28,0.11,1.28,0.11
		l1.13,4.83c0.22,1.02,0.29,1.93,0.29,1.93h0.06c0,0,0.11-0.87,0.38-1.92l1.35-4.85c0,0,0.37-0.11,0.99-0.11
		c0.61,0,1.02,0.11,1.02,0.11l-2.38,8.48c0,0-0.5,0.11-1.35,0.11c-0.88,0-1.42-0.11-1.42-0.11L130.69,201.13z"/>
	<path class="st0" d="M144.1,197.16c0.07,0.18,0.14,0.44,0.14,0.7c0,0.29-0.05,0.57-0.14,0.77h-3.83v2.1h3.14
		c0.07,0.21,0.14,0.42,0.14,0.71c0,0.3-0.06,0.53-0.14,0.75h-3.14v2.19h3.96c0.08,0.19,0.14,0.46,0.14,0.73
		c0,0.27-0.04,0.53-0.14,0.75h-6.17v-8.7H144.1z"/>
	<path class="st0" d="M149.8,197.16c1.79,0,2.86,0.92,2.86,2.43c0,0.81-0.4,1.41-1.07,1.78c0.84,0.36,1.36,1.03,1.36,1.98
		c0,1.62-1.18,2.51-3.1,2.51h-4.1v-8.7H149.8z M149.36,200.75c0.74,0,1.12-0.44,1.12-1.1c0-0.69-0.37-1.1-1.12-1.1h-1.42v2.2H149.36
		z M149.43,204.46c0.85,0,1.29-0.39,1.29-1.16c0-0.81-0.44-1.16-1.29-1.16h-1.49v2.32H149.43z"/>
	<path class="st0" d="M161.09,197.02c1.65,0,2.53,0.47,2.53,0.47c0.03,0.54-0.23,0.99-0.63,1.33c0,0-0.74-0.24-1.61-0.24
		c-1.4,0-2.3,0.64-2.3,2.95c0,2.31,0.89,2.91,2.3,2.91c0.94,0,1.73-0.27,1.73-0.27c0.41,0.33,0.65,0.85,0.65,1.37
		c0,0-0.91,0.47-2.67,0.47c-2.81,0-4.33-1.57-4.33-4.49C156.76,198.59,158.29,197.02,161.09,197.02z"/>
	<path class="st0" d="M168.53,197.02c2.53,0,4.16,1.35,4.16,4.5c0,3.14-1.6,4.49-4.16,4.49c-2.57,0-4.17-1.35-4.17-4.49
		C164.36,198.41,165.98,197.02,168.53,197.02z M168.53,198.53c-1.13,0-1.83,0.58-1.83,2.99c0,2.39,0.7,2.97,1.83,2.97
		c1.14,0,1.83-0.58,1.83-2.97C170.36,199.11,169.67,198.53,168.53,198.53z"/>
	<path class="st0" d="M176.87,201.34c-0.51-1.03-0.81-2.03-0.81-2.03h-0.07c0,0,0.14,1,0.14,2.31v4.13c0,0-0.32,0.11-0.98,0.11
		c-0.65,0-0.95-0.11-0.95-0.11v-8.48c0,0,0.47-0.11,1.4-0.11c0.94,0,1.36,0.11,1.36,0.11l2.29,4.38c0.51,1.03,0.85,2.16,0.85,2.16
		h0.05c0,0-0.12-1.16-0.12-2.45v-4.08c0,0,0.36-0.11,0.99-0.11c0.65,0,0.95,0.11,0.95,0.11v8.48c0,0-0.43,0.11-1.38,0.11
		c-0.88,0-1.39-0.11-1.39-0.11L176.87,201.34z"/>
	<path class="st0" d="M190.34,197.16c0,0,0.14,0.34,0.14,0.8c0,0.47-0.14,0.82-0.14,0.82h-2.4v6.97c0,0-0.44,0.11-1.1,0.11
		c-0.73,0-1.09-0.11-1.09-0.11v-6.97h-2.46c0,0-0.14-0.31-0.14-0.8c0-0.48,0.14-0.82,0.14-0.82H190.34z"/>
	<path class="st0" d="M197.69,197.16c0.07,0.18,0.14,0.44,0.14,0.7c0,0.29-0.05,0.57-0.14,0.77h-3.83v2.1H197
		c0.07,0.21,0.14,0.42,0.14,0.71c0,0.3-0.06,0.53-0.14,0.75h-3.14v2.19h3.96c0.08,0.19,0.14,0.46,0.14,0.73
		c0,0.27-0.04,0.53-0.14,0.75h-6.17v-8.7H197.69z"/>
	<path class="st0" d="M202,201.34c-0.51-1.03-0.81-2.03-0.81-2.03h-0.07c0,0,0.14,1,0.14,2.31v4.13c0,0-0.32,0.11-0.98,0.11
		c-0.65,0-0.95-0.11-0.95-0.11v-8.48c0,0,0.47-0.11,1.4-0.11c0.94,0,1.36,0.11,1.36,0.11l2.29,4.38c0.51,1.03,0.85,2.16,0.85,2.16
		h0.05c0,0-0.12-1.16-0.12-2.45v-4.08c0,0,0.36-0.11,0.99-0.11c0.65,0,0.95,0.11,0.95,0.11v8.48c0,0-0.43,0.11-1.38,0.11
		c-0.88,0-1.39-0.11-1.39-0.11L202,201.34z"/>
	<path class="st0" d="M215.47,197.16c0,0,0.14,0.34,0.14,0.8c0,0.47-0.14,0.82-0.14,0.82h-2.4v6.97c0,0-0.44,0.11-1.1,0.11
		c-0.73,0-1.09-0.11-1.09-0.11v-6.97h-2.46c0,0-0.14-0.31-0.14-0.8c0-0.48,0.14-0.82,0.14-0.82H215.47z"/>
</g>
<g>
	<g>
		<path class="st2" d="M170.63,178.77h-64.92V97.2c0-2.45,1.99-4.44,4.44-4.44h60.48h57.16c2.45,0,4.44,1.99,4.44,4.44v81.57H170.63
			z"/>
	</g>
	<g>
		<path class="st3" d="M248.87,178.77c0,3.67-2.92,6.66-6.53,6.66H95.6c-3.61,0-6.53-2.98-6.53-6.66H248.87z"/>
	</g>
	<g>
		<path class="st4" d="M90.26,182.6c1.18,1.71,3.13,2.82,5.34,2.82h146.74c2.21,0,4.15-1.12,5.34-2.82H90.26z"/>
	</g>
	<g>
		<path class="st5" d="M110.4,173.45V98.08h117.14v75.38H110.4z"/>
	</g>
	<g class="st6">
		<path class="st7" d="M110.4,173.45V98.08h117.14"/>
	</g>
</g>
<g class="st6">
	<rect x="118.63" y="115.87" class="st8" width="26.83" height="18.06"/>
</g>
<g class="st6">
	<rect x="118.63" y="108.77" class="st8" width="100.96" height="3.94"/>
</g>
<g class="st6">
	<rect x="152.94" y="122.98" class="st8" width="66.65" height="3.94"/>
</g>
<g class="st6">
	<rect x="152.94" y="115.93" class="st8" width="66.65" height="3.94"/>
</g>
<g class="st6">
	<rect x="152.53" y="130.09" class="st8" width="59.33" height="3.94"/>
</g>
<g class="st6">
	<rect x="120.96" y="152.4" class="st8" width="96.5" height="3.94"/>
</g>
<g class="st6">
	<rect x="120.36" y="159.51" class="st8" width="85.9" height="3.94"/>
</g>
<g class="st6">
	<rect x="130.87" y="137.77" class="st8" width="59.33" height="3.94"/>
</g>
<g class="st6">
	<rect x="118.63" y="144.93" class="st8" width="83.81" height="3.94"/>
</g>
<g>
	<g>
		<path class="st9" d="M124.52,149.74c0,2.21-1.79,4-4,4H73.18c-2.21,0-4-1.79-4-4V112.4c0-2.21,1.79-4,4-4h47.33c2.21,0,4,1.79,4,4
			V149.74z"/>
	</g>
	<g>
		<path class="st10" d="M69.18,119.07v30.67c0,2.21,1.79,4,4,4h47.33c2.21,0,4-1.79,4-4v-30.67H69.18z"/>
	</g>
	<g>
		<path class="st11" d="M73.17,119.07v27.72c0,2,1.53,3.62,3.42,3.62h40.51c1.89,0,3.42-1.62,3.42-3.62v-27.72H73.17z"/>
	</g>
	<g>
		<circle class="st10" cx="81.68" cy="113.9" r="2"/>
	</g>
	<g>
		<circle class="st10" cx="75.17" cy="113.9" r="2"/>
	</g>
	<g>
		<circle class="st10" cx="87.85" cy="113.9" r="2"/>
	</g>
	<g>
		<path class="st10" d="M119.43,113.9c0,1.1-0.9,2-2,2h-21c-1.1,0-2-0.9-2-2l0,0c0-1.1,0.9-2,2-2h21
			C118.54,111.9,119.43,112.8,119.43,113.9L119.43,113.9z"/>
	</g>
	<g>
		<path class="st10" d="M115.93,127.65c0,0.91-0.74,1.65-1.65,1.65H79c-0.91,0-1.65-0.74-1.65-1.65l0,0c0-0.91,0.74-1.65,1.65-1.65
			h35.29C115.2,126.01,115.93,126.74,115.93,127.65L115.93,127.65z"/>
	</g>
	<g>
		<path class="st10" d="M115.93,134.74c0,0.91-0.74,1.65-1.65,1.65H79c-0.91,0-1.65-0.74-1.65-1.65l0,0c0-0.91,0.74-1.65,1.65-1.65
			h35.29C115.2,133.09,115.93,133.83,115.93,134.74L115.93,134.74z"/>
	</g>
	<g>
		<path class="st10" d="M115.93,141.82c0,0.91-0.74,1.65-1.65,1.65H79c-0.91,0-1.65-0.74-1.65-1.65l0,0c0-0.91,0.74-1.65,1.65-1.65
			h35.29C115.2,140.17,115.93,140.91,115.93,141.82L115.93,141.82z"/>
	</g>
</g>
<g>
	<path class="st10" d="M256.87,116.78c0,2.21-1.79,4-4,4h-47.33c-2.21,0-4-1.79-4-4V79.45c0-2.21,1.79-4,4-4h47.33
		c2.21,0,4,1.79,4,4V116.78z"/>
</g>
<g>
	<path class="st10" d="M201.54,86.11v30.67c0,2.21,1.79,4,4,4h47.33c2.21,0,4-1.79,4-4V86.11H201.54z"/>
</g>
<g>
	<path class="st11" d="M205.53,86.11v27.72c0,2,1.53,3.62,3.42,3.62h40.51c1.89,0,3.42-1.62,3.42-3.62V86.11H205.53z"/>
</g>
<g>
	<circle class="st9" cx="207.87" cy="80.95" r="2"/>
</g>
<g>
	<circle class="st9" cx="214.04" cy="80.95" r="2"/>
</g>
<g>
	<circle class="st9" cx="220.21" cy="80.95" r="2"/>
</g>
<g>
	<path class="st9" d="M251.79,80.95c0,1.1-0.9,2-2,2h-21c-1.11,0-2-0.9-2-2l0,0c0-1.1,0.89-2,2-2h21
		C250.89,78.95,251.79,79.84,251.79,80.95L251.79,80.95z"/>
</g>
<g>
	<path class="st9" d="M222.44,105.33v0.13l-1.73,1.71l-5.05-5v-0.33l5.05-5l1.73,1.71v0.13l-3.47,3.33L222.44,105.33z"/>
	<path class="st9" d="M233.59,92.1l-7.33,18.61h-2.79l7.31-18.61H233.59z"/>
	<path class="st9" d="M238.04,102.02l-3.47-3.33v-0.13l1.73-1.71l5.05,5v0.33l-5.05,5l-1.73-1.71v-0.13L238.04,102.02z"/>
</g>
<g>
	<g>
		<path class="st10" d="M88.18,96.28c0,2.21-1.79,4-4,4H36.85c-2.21,0-4-1.79-4-4V58.95c0-2.21,1.79-4,4-4h47.33c2.21,0,4,1.79,4,4
			V96.28z"/>
	</g>
	<g>
		<path class="st10" d="M32.85,65.62v30.67c0,2.21,1.79,4,4,4h47.33c2.21,0,4-1.79,4-4V65.62H32.85z"/>
	</g>
	<g>
		<path class="st11" d="M36.84,65.62v27.72c0,2,1.53,3.62,3.42,3.62h40.51c1.89,0,3.42-1.62,3.42-3.62V65.62H36.84z"/>
	</g>
	<g>
		<circle class="st9" cx="39.18" cy="60.45" r="2"/>
	</g>
	<g>
		<circle class="st9" cx="45.35" cy="60.45" r="2"/>
	</g>
	<g>
		<circle class="st9" cx="51.51" cy="60.45" r="2"/>
	</g>
	<g>
		<path class="st9" d="M83.1,60.45c0,1.1-0.9,2-2,2h-21c-1.1,0-2-0.9-2-2l0,0c0-1.1,0.9-2,2-2h21C82.2,58.45,83.1,59.35,83.1,60.45
			L83.1,60.45z"/>
	</g>
	<g>
		<rect x="41.01" y="69.1" class="st12" width="38.67" height="24.93"/>
	</g>
	<g>
		<polygon class="st0" points="45.38,71.37 45.38,86.76 53.61,79.5 61.34,86.76 67.49,81.34 75.42,86.76 75.42,71.37 		"/>
	</g>
	<g>
		<path class="st11" d="M72.98,76.19c0,1.31-1.07,2.38-2.38,2.38c-1.31,0-2.38-1.07-2.38-2.38c0-1.31,1.07-2.38,2.38-2.38
			C71.91,73.81,72.98,74.87,72.98,76.19z"/>
	</g>
</g>
<g>
	<path class="st13" d="M264.55,27.12c2.18,0,2.7-0.53,2.41-1.17c-0.54-1.21-1.54-1.37-1.27-3.07c0.46-2.92,5.12-2.92,5.58,0
		c0.26,1.71-0.73,1.86-1.27,3.07c-0.29,0.64,0.23,1.17,2.41,1.17h6.08v6.08c0,2.18,0.53,2.7,1.17,2.41
		c1.21-0.54,1.37-1.54,3.07-1.27c2.92,0.46,2.92,5.12,0,5.58c-1.71,0.26-1.86-0.73-3.07-1.27c-0.65-0.29-1.17,0.23-1.17,2.41v6.08
		h-6.08c-2.18,0-2.7-0.53-2.41-1.17c0.55-1.21,1.54-1.37,1.27-3.07c-0.46-2.92-5.12-2.92-5.58,0c-0.27,1.71,0.73,1.86,1.27,3.07
		c0.29,0.65-0.22,1.17-2.41,1.17h-6.08v-6.08c0-2.18,0.53-2.7,1.17-2.41c1.21,0.55,1.37,1.54,3.07,1.27c2.92-0.46,2.92-5.12,0-5.58
		c-1.71-0.26-1.86,0.73-3.07,1.27c-0.65,0.29-1.17-0.23-1.17-2.41v-6.08H264.55z"/>
</g>
<g>
	<path class="st13" d="M309.76,115.12c0,2.18,0.53,2.7,1.17,2.41c1.21-0.54,1.37-1.54,3.07-1.27c2.92,0.46,2.93,5.12,0,5.58
		c-1.71,0.27-1.86-0.73-3.07-1.27c-0.64-0.29-1.17,0.22-1.17,2.41v6.08h-6.08c-2.18,0-2.7,0.53-2.4,1.17
		c0.54,1.21,1.54,1.37,1.27,3.07c-0.45,2.92-5.12,2.92-5.58,0c-0.27-1.71,0.73-1.86,1.27-3.07c0.29-0.64-0.22-1.17-2.41-1.17h-6.08
		v-6.08c0-2.18,0.53-2.7,1.17-2.41c1.21,0.54,1.37,1.54,3.07,1.27c2.92-0.46,2.92-5.12,0-5.58c-1.71-0.26-1.86,0.73-3.07,1.27
		c-0.65,0.29-1.17-0.22-1.17-2.41v-6.08h6.08c2.18,0,2.7,0.53,2.41,1.17c-0.54,1.21-1.54,1.37-1.27,3.07c0.46,2.92,5.12,2.92,5.58,0
		c0.26-1.71-0.73-1.86-1.27-3.07c-0.29-0.64,0.22-1.17,2.4-1.17h6.08V115.12z"/>
</g>
<g>
	<path class="st13" d="M73.19,37.05c-2.18,0-2.7,0.53-2.41,1.17c0.54,1.21,1.54,1.37,1.27,3.07c-0.46,2.92-5.12,2.92-5.58,0
		c-0.27-1.71,0.73-1.86,1.27-3.07c0.29-0.64-0.23-1.17-2.41-1.17h-6.08v-6.08c0-2.18-0.53-2.7-1.17-2.41
		c-1.21,0.54-1.37,1.54-3.07,1.27c-2.92-0.46-2.92-5.12,0-5.58c1.71-0.26,1.86,0.73,3.07,1.28c0.64,0.29,1.17-0.23,1.17-2.41v-6.08
		h6.08c2.18,0,2.7,0.53,2.41,1.17c-0.55,1.21-1.54,1.37-1.27,3.07c0.46,2.93,5.12,2.93,5.58,0c0.26-1.71-0.73-1.86-1.27-3.07
		c-0.29-0.64,0.22-1.17,2.41-1.17h6.08v6.08c0,2.18-0.53,2.7-1.17,2.41c-1.21-0.55-1.37-1.54-3.07-1.28c-2.92,0.46-2.92,5.12,0,5.58
		c1.71,0.27,1.86-0.73,3.07-1.27c0.64-0.29,1.17,0.23,1.17,2.41v6.08H73.19z"/>
</g>
<g>
	<path class="st13" d="M29.51,187.33c0-2.18-0.53-2.7-1.17-2.41c-1.21,0.54-1.37,1.54-3.07,1.27c-2.92-0.46-2.92-5.12,0-5.58
		c1.71-0.27,1.86,0.73,3.07,1.27c0.64,0.29,1.17-0.22,1.17-2.41v-6.08h6.08c2.18,0,2.7-0.53,2.41-1.17
		c-0.54-1.21-1.54-1.37-1.27-3.07c0.46-2.92,5.12-2.92,5.58,0c0.26,1.71-0.73,1.86-1.28,3.07c-0.29,0.64,0.23,1.17,2.41,1.17h6.08
		v6.08c0,2.18-0.53,2.7-1.17,2.41c-1.21-0.54-1.37-1.54-3.07-1.27c-2.93,0.46-2.93,5.12,0,5.58c1.71,0.26,1.86-0.73,3.07-1.27
		c0.64-0.29,1.17,0.22,1.17,2.41v6.08h-6.08c-2.18,0-2.7-0.53-2.41-1.17c0.55-1.21,1.54-1.37,1.28-3.07c-0.46-2.92-5.12-2.92-5.58,0
		c-0.27,1.71,0.73,1.86,1.27,3.07c0.29,0.64-0.23,1.17-2.41,1.17h-6.08V187.33z"/>
</g>
<g>
	<path class="st14" d="M131.04,66.29c0,2.21-1.79,4-4,4h-18.81c-2.21,0-4-1.79-4-4V47.49c0-2.21,1.79-4,4-4h18.81c2.21,0,4,1.79,4,4
		V66.29z"/>
</g>
<g>
	<path class="st2" d="M215.54,49.62c0,2.21-1.79,4-4,4h-18.81c-2.21,0-4-1.79-4-4V30.81c0-2.21,1.79-4,4-4h18.81c2.21,0,4,1.79,4,4
		V49.62z"/>
</g>
<g>
	<path class="st2" d="M297.08,187.68c0,2.21-1.79,4-4,4h-18.8c-2.21,0-4-1.79-4-4v-18.8c0-2.21,1.79-4,4-4h18.8c2.21,0,4,1.79,4,4
		V187.68z"/>
</g>
<g>
	<path class="st10" d="M209.11,34.31c0,0-2.33,0.27-3.49,0c-1.1-0.25-3.5-2.1-3.51-2.09c-0.24,0.18-2.39,1.85-3.46,2.09
		c-1.16,0.27-3.49,0-3.49,0s-0.29,3.34,1.16,7.49c1.41,4.03,5.81,6.42,5.81,6.42c0,0,4.4-2.39,5.81-6.42
		C209.4,37.65,209.11,34.31,209.11,34.31z M205.88,41.18c-0.74,2.11-2.55,3.71-3.74,4.58c-1.19-0.87-3-2.47-3.74-4.58
		c-0.65-1.85-0.92-3.54-1.02-4.76c0.72-0.01,1.31-0.06,1.8-0.18c0.87-0.2,1.96-0.82,2.95-1.49c1.62,1.08,2.43,1.37,2.96,1.49
		c0.49,0.11,1.08,0.17,1.8,0.18C206.79,37.64,206.53,39.33,205.88,41.18z"/>
</g>
<g>
	<g>
		<path class="st15" d="M277.2,177.95c1.11,0.92,2.64,1.01,3.84,0.37l0.26,0.24l1.13-0.93c-0.09-0.23-0.12-0.48-0.1-0.73
			c0.03-0.36,0.18-0.69,0.41-0.95c0.19-1.14-0.2-2.34-1.17-3.13c-1.01-0.83-2.32-1.33-3.46-0.86c-0.14,0.06,0.44,1.28,0.44,1.28
			l1.47,0.49l0.48,1.67l-0.46,0.54l-0.46,0.54l-1.76-0.18l-0.75-1.34c0,0-1.33-0.35-1.36-0.21
			C275.46,175.93,276.19,177.11,277.2,177.95z"/>
	</g>
	<g>
		<path class="st15" d="M291.17,182.89l-4.26-3.2c-0.09,0.13-0.19,0.24-0.31,0.34c-0.3,0.25-0.7,0.39-1.1,0.39
			c-0.31,0-0.6-0.08-0.86-0.22l-0.79,0.65l5.11,4.62l1.24,0.29l0.74-0.86l0.73-0.86L291.17,182.89z"/>
	</g>
	<g>
		<path class="st15" d="M285.06,179.1c0.21,0.24,0.57,0.28,0.82,0.07c0.24-0.2,0.28-0.55,0.08-0.8l4.4-3.6
			c0.48-0.4,0.54-1.1,0.14-1.57c-0.4-0.47-1.12-0.53-1.6-0.14l-4.4,3.61c-0.21-0.24-0.57-0.27-0.81-0.06
			c-0.25,0.2-0.28,0.56-0.07,0.8l0.36,0.42l-6.12,5.05l-0.81,0.25l-0.94,1.2l0.73,0.86l1.35-0.66l0.41-0.78l6.12-5.05L285.06,179.1z
			"/>
	</g>
</g>
<g>
	<g>
		<polygon class="st10" points="120.64,64.96 114.64,64.96 117.64,59.96 		"/>
	</g>
	<g>
		<g>
			<polygon class="st10" points="125.64,50.96 109.64,50.96 109.64,62.96 114.07,62.96 115.27,60.96 111.64,60.96 111.64,52.96 
				123.64,52.96 123.64,60.96 120,60.96 121.2,62.96 125.64,62.96 			"/>
		</g>
	</g>
</g>
</svg>
