<?xml version="1.0" encoding="utf-8"?>
<!-- Generator: Adobe Illustrator 23.1.0, SVG Export Plug-In . SVG Version: 6.00 Build 0)  -->
<svg version="1.1" id="Layer_1" xmlns="http://www.w3.org/2000/svg" xmlns:xlink="http://www.w3.org/1999/xlink" x="0px" y="0px"
	 viewBox="0 0 634.49 451.14" style="enable-background:new 0 0 634.49 451.14;" xml:space="preserve">
<style type="text/css">
	.st0{fill:#455D7B;}
	.st1{fill:#1F2838;}
	.st2{fill:#FEE3C0;}
	.st3{fill:#EBD2B1;}
	.st4{fill:#FFFFFF;}
	.st5{fill:#6481B0;}
	.st6{filter:url(#Adobe_OpacityMaskFilter);}
	.st7{filter:url(#Adobe_OpacityMaskFilter_1_);}
	.st8{mask:url(#SVGID_1_);fill:url(#SVGID_2_);}
	.st9{opacity:0.47;fill:#FFF100;}
</style>
<g>
	<rect x="376.81" y="331.1" class="st0" width="40" height="38.39"/>
</g>
<g>
	<rect x="319.56" y="364.54" class="st1" width="154.5" height="12"/>
</g>
<g>
	<rect x="0" y="380.85" class="st2" width="634.49" height="70.29"/>
</g>
<g>
	<g>
		<path class="st3" d="M142.73,446.94c-1.58-4.98-2.55-10.1-5.47-14.52c-3.21-4.88-10.32-7.24-15.54-9.03
			c-12.29-4.23-26.42-4.47-39.26-3.61c-13.64,0.92-27.64,2.42-40.83,6.17c-6.22,1.77-11.42,5.16-17.27,7.71
			c-3.48,1.52-6.9,3.16-10.36,4.71c-2.74,1.23-5.41,1.92-7.79,3.81c-0.85,0.67,1.09,0.61,1.53,0.26c2.85-2.27,7.15-3.41,10.47-4.92
			c2.89-1.32,5.77-2.66,8.69-3.93c5.63-2.45,10.55-5.5,16.55-7.21c11.82-3.36,24.51-4.52,36.72-5.47
			c12.74-0.99,26.03-0.63,38.39,2.86c5.55,1.57,11.97,4.1,16.04,8.29c3.82,3.93,4.61,10.38,6.2,15.39
			C141,448.08,142.92,447.54,142.73,446.94L142.73,446.94z"/>
	</g>
</g>
<g>
	<g>
		<path class="st3" d="M42.55,447.72c2.73,1.26,4.98,1.59,7.66-0.14c5.85-3.79,12.14-7.05,18.64-9.57
			c6.81-2.63,15.47-6.11,22.28-2.26c5.87,3.32,10.13,9.93,14.83,14.64c0.57,0.57,2.4-0.19,1.78-0.82
			c-7.08-7.1-13.89-18.61-25.41-16.83c-5.4,0.84-10.79,2.89-15.87,4.85c-3.25,1.26-6.34,2.9-9.43,4.49
			c-3.41,1.76-9.06,6.37-12.98,4.57C43.36,446.35,41.63,447.3,42.55,447.72L42.55,447.72z"/>
	</g>
</g>
<g>
	<g>
		<path class="st3" d="M5.21,413.53c15.29,0,30.5-1.7,45.69-3.43c17.15-1.95,33.9-2.4,51.12-1.51c16.85,0.87,33.9,4.33,50.42,7.78
			c8.44,1.76,15.52,4.62,21.65,10.81c2.14,2.17,4.79,5.44,5.87,8.27c1.43,3.74-3.24,9.25-4.89,12.4c-0.44,0.83,1.5,0.62,1.8,0.05
			c2.46-4.71,7.21-10.02,3.82-15.31c-4.07-6.35-9.8-11.66-16.87-14.42c-7.06-2.75-14.74-3.82-22.18-5.05
			c-9.1-1.51-18.27-4.07-27.45-4.91c-17.93-1.64-35.72-1.85-53.65-0.19c-18.2,1.68-36.28,4.38-54.59,4.38
			C5.23,412.42,3.91,413.53,5.21,413.53L5.21,413.53z"/>
	</g>
</g>
<g>
	<g>
		<path class="st3" d="M1.1,389.22c32.09,2.15,64.31,5.41,96.46,6.23c15.13,0.39,30.05-0.66,45.02-2.84
			c14.95-2.18,29.77-4.83,44.91-2.99c4.79,0.58,9.71,1.61,13.7,4.46c6.01,4.29,3.48,13.69,1.88,19.59
			c-2.19,8.09-10.18,20.29-3.62,28.07c2.95,3.49,8.39,4.42,12.63,5c6.92,0.95,14.27,0.57,21.19,0c15.1-1.24,30.05-5.23,44.92-7.99
			c31.95-5.93,65.12-4.24,97.48-4.57c33.38-0.34,66.57-1.1,99.92,0.88c14.42,0.86,29.46,2.02,43.87,0.57
			c3.2-0.32,22.08-5.26,11.37-10.04c-12.54-5.6-28.4-4.49-41.82-4.67c-16.02-0.21-32.03,0.35-48.04,0.77
			c-32.65,0.86-65.29-1-97.96-0.51c-16.22,0.24-32.38,1.85-48.63,1.6c-3.8-0.06-7.49-0.64-10.76-2.69
			c-5.01-3.14-3.58-8.96-0.34-12.65c4.98-5.67,14.45-8.02,21.36-10.01c15.02-4.33,30.75-6.18,46.19-8.29
			c15.6-2.13,31.14-3.96,46.9-4.33c32.4-0.75,64.63,4.82,96.85,7.34c15.34,1.2,30.69,2.38,46.04,3.5
			c11.18,0.81,22.84,3.13,33.97,1.15c10.25-1.82,19.58-3.8,30.07-3.55c8.77,0.21,19.5-0.07,27.89,2.91
			c0.81,0.29,2.26-0.88,1.11-1.29c-7.76-2.75-17.35-2.54-25.46-2.91c-9.63-0.44-18.38,0.42-27.78,2.35
			c-4.63,0.95-9.64,2.31-14.4,1.91c-8.25-0.69-16.49-1.36-24.75-1.95c-15.99-1.15-31.98-2.4-47.96-3.65
			c-31.18-2.44-62.2-7.53-93.54-7.23c-15.75,0.15-31.31,2.02-46.9,4.11c-14.62,1.95-29.31,3.91-43.67,7.35
			c-6.04,1.44-11.96,3.31-17.67,5.75c-4.16,1.78-9.39,4.41-11.68,8.58c-6.07,11.06,7.11,15.04,15.62,15.02
			c15.81-0.05,31.54-1.34,47.33-1.62c16.94-0.29,33.89-0.06,50.84,0.29c15.73,0.33,31.39,0.61,47.12,0.22
			c16.57-0.42,33.15-1.02,49.73-0.74c7.62,0.13,15.29,0.32,22.88,0.99c4,0.36,7.91,0.85,11.8,1.88c2.35,0.62,4.64,1.46,6.46,3.2
			c2.25,2.15-7.11,4.91-7.45,5.01c-6.9,1.93-14.56,1.22-21.64,1.19c-8.78-0.04-17.54-0.43-26.3-0.94
			c-32.22-1.85-64.27-1.4-96.52-0.93c-31.85,0.46-64.6-1.52-96.13,3.67c-15.51,2.56-30.81,6.5-46.4,8.52
			c-10.29,1.34-39.71,4.93-38.25-12.03c0.47-5.42,3.36-10.88,5.04-16.01c1.88-5.78,3.34-11.75,2.57-17.86
			c-1.02-8.06-12.08-9.97-18.4-10.82c-13.92-1.86-27.85,0.31-41.61,2.41c-16.09,2.46-32.03,3.75-48.32,3.42
			c-15.89-0.32-31.74-1.9-47.6-2.96c-16.29-1.09-32.57-2.18-48.86-3.27C0.84,387.78-0.21,389.14,1.1,389.22L1.1,389.22z"/>
	</g>
</g>
<g>
	<g>
		<path class="st3" d="M292.72,381.63c-11.18,1.86-25.84,4.83-25.86,18.93c0,3.8,0.47,7.34-0.21,11.13
			c-1.24,6.79-5,10.29-11.47,12.16c-8.13,2.35-19.4,3.16-27.58,1.31c-5.98-1.36-4.07-7.91-3.01-12.14c0.84-3.38,1.56-6.37,1.25-9.86
			c-0.44-4.89-3.4-8.97-7.07-12c-8.12-6.7-19.7-8.54-29.63-10.89c-0.71-0.17-2.29,0.9-1.15,1.17c10.93,2.58,23.95,4.6,31.92,13.28
			c5.46,5.95,4.1,13.07,2.33,20.18c-0.54,2.15-1.77,7.34,0.12,9.3c1.7,1.77,3.84,2.01,6.14,2.64c2.8,0.77,6.27,0.35,9.15,0.22
			c4.04-0.18,7.96-0.4,11.97-0.93c5.8-0.76,11.67-2.34,15.86-6.64c5.4-5.54,2.9-15.46,3.47-22.15
			c0.93-10.99,15.12-13.07,23.57-14.47C293.48,382.7,294.05,381.41,292.72,381.63L292.72,381.63z"/>
	</g>
</g>
<g>
	<g>
		<path class="st3" d="M256.1,383.63c-2.57,4.11-4.62,8.67-5.83,13.38c-0.45,1.76-1.06,3.45-1.94,5.04
			c-2.7,4.86-5.68-3.73-6.05-5.61c-0.75-3.72-0.69-7.34-3.24-10.37c-2.88-3.43-8.12-3.72-12.18-4.33c-0.6-0.09-2.28,0.87-1.19,1.04
			c3.21,0.49,6.31,0.82,9.27,2.28c3.74,1.84,4.49,5.72,5.02,9.4c0.49,3.43,1.24,9.28,5.53,10.13c2.38,0.47,4.06-1.48,5.08-3.33
			c0.88-1.58,1.34-3.42,1.79-5.16c1.12-4.36,3.15-8.64,5.52-12.43C258.37,382.9,256.43,383.1,256.1,383.63L256.1,383.63z"/>
	</g>
</g>
<g>
	<g>
		<path class="st3" d="M585.49,445.54c-1.65-13.05-4.79-23.52-17.13-29.74c-12.21-6.16-28.32-7.07-41.7-7.81
			c-31.44-1.73-62.89,0.63-94.31,1.7c-10.95,0.37-21.92,0.66-32.88,0.44c-7.62-0.15-15.63-0.21-23.07-2.03
			c-1.07-0.26-2.39-0.59-3.16-1.44c-1.74-1.93,6.26-3.3,7.26-3.4c7.19-0.7,14.34-1.42,21.56-1.88c16.58-1.07,33.43,0.69,50.03,1.04
			c7.94,0.17,15.87,0.49,23.8,0.21c9.25-0.33,18.39-1.88,27.64-2.25c14.91-0.6,29.44,1.04,44.04,3.78
			c27.85,5.22,55.85,11.68,84.32,11.82c1.09,0.01,1.49-1.37,0.18-1.38c-26.42-0.13-52.57-5.8-78.4-10.78
			c-11.31-2.18-22.37-4.08-33.89-4.63c-16.05-0.77-31.67,1.8-47.66,2.18c-16.79,0.4-33.71-0.82-50.49-1.37
			c-14.12-0.46-27.84,0.61-41.87,1.97c-2.06,0.2-12.45,3.12-7.31,6.36c5.02,3.16,13.53,2.65,19.18,2.93
			c30.88,1.56,61.94-1.26,92.8-2.26c19.98-0.64,40.48-0.79,60.27,2.26c9.66,1.48,19.92,3.3,27.97,9.18
			c8.19,5.98,9.69,16.27,10.87,25.63C583.67,446.92,585.61,446.45,585.49,445.54L585.49,445.54z"/>
	</g>
</g>
<g>
	<path class="st4" d="M192.33,108.38c0,30.74-24.68,55.65-55.12,55.65c-30.44,0-55.12-24.92-55.12-55.65s24.68-55.65,55.12-55.65
		C167.65,52.72,192.33,77.64,192.33,108.38z"/>
</g>
<g>
	<g>
		<path class="st1" d="M136.48,166.89c-31.93,0-57.9-25.98-57.9-57.9c0-31.93,25.98-57.9,57.9-57.9c31.93,0,57.9,25.98,57.9,57.9
			C194.38,140.91,168.41,166.89,136.48,166.89z M136.48,56.97c-28.68,0-52.01,23.33-52.01,52.01c0,28.68,23.33,52.01,52.01,52.01
			s52.02-23.33,52.02-52.01C188.49,80.31,165.16,56.97,136.48,56.97z"/>
	</g>
</g>
<path class="st4" d="M507.56,332.21c0,1.49-1.21,2.7-2.7,2.7H285.89c-1.49,0-2.7-1.21-2.7-2.7V216.46c0-1.49,1.21-2.7,2.7-2.7
	h218.97c1.49,0,2.7,1.21,2.7,2.7V332.21z"/>
<g>
	<g>
		<rect x="133.53" y="147.92" class="st1" width="5.89" height="13.49"/>
	</g>
</g>
<g>
	<g>
		
			<rect x="158.92" y="141.38" transform="matrix(0.8109 -0.5852 0.5852 0.8109 -56.6025 122.2641)" class="st1" width="3.93" height="14.67"/>
	</g>
</g>
<g>
	<g>
		
			<rect x="175.73" y="122.87" transform="matrix(0.5497 -0.8354 0.8354 0.5497 -29.4962 207.4695)" class="st1" width="3.93" height="16.46"/>
	</g>
</g>
<g>
	<g>
		<rect x="175.97" y="106.04" class="st1" width="13.99" height="5.89"/>
	</g>
</g>
<g>
	<g>
		
			<rect x="169.82" y="82.9" transform="matrix(0.8435 -0.5372 0.5372 0.8435 -18.0016 107.9457)" class="st1" width="12.8" height="3.93"/>
	</g>
</g>
<g>
	<g>
		
			<rect x="153.88" y="66.34" transform="matrix(0.5503 -0.835 0.835 0.5503 14.8837 164.2324)" class="st1" width="12.04" height="3.92"/>
	</g>
</g>
<g>
	<g>
		
			<rect x="105.8" y="146.75" transform="matrix(0.5853 -0.8108 0.8108 0.5853 -73.6609 153.4073)" class="st1" width="14.67" height="3.92"/>
	</g>
</g>
<g>
	<g>
		
			<rect x="88.1" y="129.13" transform="matrix(0.8353 -0.5498 0.5498 0.8353 -56.2114 74.5579)" class="st1" width="16.46" height="3.93"/>
	</g>
</g>
<g>
	<g>
		<rect x="84.06" y="106.04" class="st1" width="13.99" height="5.89"/>
	</g>
</g>
<g>
	<g>
		
			<rect x="95.84" y="78.46" transform="matrix(0.5369 -0.8437 0.8437 0.5369 -26.2979 121.8139)" class="st1" width="3.93" height="12.8"/>
	</g>
</g>
<g>
	<g>
		
			<rect x="112.16" y="62.28" transform="matrix(0.8352 -0.55 0.55 0.8352 -18.7535 74.0269)" class="st1" width="3.92" height="12.04"/>
	</g>
</g>
<g>
	<g>
		<rect x="132.54" y="56.4" class="st1" width="5.89" height="11.9"/>
	</g>
</g>
<g>
	<g>
		<polygon class="st1" points="123.51,127.82 120.48,125.32 134.32,108.52 125.25,75.32 129.04,74.29 138.64,109.45 		"/>
	</g>
</g>
<g>
	<g>
		<circle class="st1" cx="136.48" cy="108.99" r="5.14"/>
	</g>
</g>
<g>
	<polygon class="st5" points="92.78,356.42 84.78,356.42 84.78,264.03 129.71,213.76 135.68,219.09 92.78,267.08 	"/>
</g>
<g>
	<polygon class="st0" points="119.46,216.42 132.7,202.07 149.07,213.73 158.05,213.73 193.49,234.37 150.87,275.65 129.78,238.86 
		130.23,231.23 	"/>
</g>
<g>
	<rect x="45.74" y="363.08" class="st1" width="85.33" height="13.46"/>
</g>
<g>
	<rect x="52.47" y="359.49" class="st1" width="71.86" height="13.46"/>
</g>
<g>
	<path class="st1" d="M97.33,265.56c0,4.72-3.83,8.54-8.54,8.54c-4.72,0-8.54-3.83-8.54-8.54c0-4.72,3.82-8.54,8.54-8.54
		C93.5,257.01,97.33,260.84,97.33,265.56z"/>
</g>
<g>
	<path class="st1" d="M96.94,356.42c0,4.72-3.83,8.54-8.54,8.54c-4.72,0-8.54-3.83-8.54-8.54c0-4.72,3.82-8.54,8.54-8.54
		C93.12,347.87,96.94,351.7,96.94,356.42z"/>
</g>
<g>
	<path class="st1" d="M571.67,363.73c0,6.79-5.5,12.29-12.29,12.29h-22.71c-6.79,0-12.29-5.5-12.29-12.29v-47.45
		c0-6.79,5.5-12.29,12.29-12.29h22.71c6.79,0,12.29,5.5,12.29,12.29V363.73z"/>
</g>
<g>
	<g>
		<path class="st5" d="M548.02,359.65c-10.83,0-19.64-8.81-19.64-19.64c0-10.83,8.81-19.63,19.64-19.63s19.64,8.81,19.64,19.63
			C567.66,350.84,558.85,359.65,548.02,359.65z M548.02,324.38c-8.62,0-15.64,7.01-15.64,15.63c0,8.62,7.01,15.64,15.64,15.64
			c8.62,0,15.64-7.01,15.64-15.64C563.66,331.39,556.65,324.38,548.02,324.38z"/>
	</g>
</g>
<g>
	<g>
		<path class="st5" d="M557.64,340.01c0,5.31-4.31,9.62-9.62,9.62c-5.31,0-9.62-4.31-9.62-9.62c0-5.31,4.31-9.62,9.62-9.62
			C553.34,330.39,557.64,334.7,557.64,340.01z"/>
	</g>
</g>
<g>
	<path class="st1" d="M267.04,363.73c0,6.79-5.5,12.29-12.29,12.29h-22.71c-6.79,0-12.29-5.5-12.29-12.29v-47.45
		c0-6.79,5.5-12.29,12.29-12.29h22.71c6.79,0,12.29,5.5,12.29,12.29V363.73z"/>
</g>
<g>
	<g>
		<path class="st5" d="M243.39,359.65c-10.83,0-19.64-8.81-19.64-19.64c0-10.83,8.81-19.63,19.64-19.63
			c10.83,0,19.64,8.81,19.64,19.63C263.02,350.84,254.21,359.65,243.39,359.65z M243.39,324.38c-8.62,0-15.64,7.01-15.64,15.63
			c0,8.62,7.01,15.64,15.64,15.64c8.62,0,15.64-7.01,15.64-15.64C259.02,331.39,252.01,324.38,243.39,324.38z"/>
	</g>
</g>
<g>
	<g>
		<path class="st5" d="M253.01,340.01c0,5.31-4.31,9.62-9.62,9.62c-5.31,0-9.62-4.31-9.62-9.62c0-5.31,4.31-9.62,9.62-9.62
			C248.7,330.39,253.01,334.7,253.01,340.01z"/>
	</g>
</g>
<g>
	<line class="st2" x1="233.3" y1="152.11" x2="379.19" y2="152.11"/>
	<rect x="233.3" y="143.11" class="st2" width="145.88" height="18"/>
</g>
<g>
	<g>
		<path class="st3" d="M239.08,161.16c12.03-5.72,24.7-4.7,37.57-3.28c12.39,1.36,24.85,1.34,37.28,0.83
			c12.64-0.52,25.37-1.33,37.96-2.53c1.05-0.1,19.62-1.64,18.25-5.24c-0.66-1.75-2.99-1.96-4.6-2.2c-4.9-0.74-9.88-1.02-14.83-1.08
			c-12-0.14-24.13,1.32-36.09,2.21c-26.42,1.97-51.9-2.63-78.08-5.26c-0.81-0.08-2.03,1.06-0.73,1.19
			c22.37,2.25,44.58,6.56,67.15,5.9c10.62-0.31,21.4-1.07,31.98-2.09c6.28-0.61,12.58-0.86,18.88-0.68
			c2.55,0.08,5.08,0.32,7.61,0.61c0.79,0.17,1.6,0.26,2.4,0.28c0.48,0.06,0.96,0.12,1.44,0.18c1.43-0.02,1.72,0.85,0.87,2.62
			c-9.46,3.15-20.48,2.97-30.35,3.49c-12.37,0.65-24.63,1.75-37.04,1.73c-20.08-0.04-41.49-6.62-60.48,2.41
			C237.08,160.83,238.18,161.59,239.08,161.16L239.08,161.16z"/>
	</g>
</g>
<g>
	<path class="st1" d="M267.15,136.84c0,2.04-1.62,3.7-3.63,3.7h-13.41c-2,0-3.63-1.65-3.63-3.7V70.85c0-2.04,1.62-3.7,3.63-3.7
		h13.41c2,0,3.63,1.66,3.63,3.7V136.84z"/>
</g>
<g>
	<path class="st4" d="M259.08,129.08c0,1.25-1.01,2.26-2.26,2.26l0,0c-1.25,0-2.26-1.01-2.26-2.26V78.61c0-1.25,1.01-2.26,2.26-2.26
		l0,0c1.25,0,2.26,1.01,2.26,2.26V129.08z"/>
</g>
<g>
	<path class="st5" d="M291.15,136.84c0,2.04-1.62,3.7-3.63,3.7h-13.41c-2,0-3.63-1.65-3.63-3.7V70.85c0-2.04,1.62-3.7,3.63-3.7
		h13.41c2,0,3.63,1.66,3.63,3.7V136.84z"/>
</g>
<g>
	<path class="st4" d="M283.08,129.08c0,1.25-1.01,2.26-2.26,2.26l0,0c-1.25,0-2.26-1.01-2.26-2.26V78.61c0-1.25,1.01-2.26,2.26-2.26
		l0,0c1.25,0,2.26,1.01,2.26,2.26V129.08z"/>
</g>
<g>
	<path class="st0" d="M315.15,136.84c0,2.04-1.62,3.7-3.63,3.7h-13.41c-2,0-3.63-1.65-3.63-3.7V70.85c0-2.04,1.62-3.7,3.63-3.7
		h13.41c2,0,3.63,1.66,3.63,3.7V136.84z"/>
</g>
<g>
	<path class="st4" d="M307.08,129.08c0,1.25-1.01,2.26-2.26,2.26l0,0c-1.25,0-2.26-1.01-2.26-2.26V78.61c0-1.25,1.01-2.26,2.26-2.26
		l0,0c1.25,0,2.26,1.01,2.26,2.26V129.08z"/>
</g>
<g>
	<path class="st5" d="M321.59,140.4c-2.04,0-3.7-1.62-3.7-3.63v-13.41c0-2,1.65-3.63,3.7-3.63h65.99c2.04,0,3.7,1.62,3.7,3.63v13.41
		c0,2-1.66,3.63-3.7,3.63H321.59z"/>
</g>
<g>
	<path class="st4" d="M329.35,132.33c-1.25,0-2.26-1.01-2.26-2.26l0,0c0-1.25,1.01-2.26,2.26-2.26h50.47c1.25,0,2.26,1.01,2.26,2.26
		l0,0c0,1.25-1.01,2.26-2.26,2.26H329.35z"/>
</g>
<g>
	<path class="st1" d="M321.26,80.16c-1.72-1.11-2.23-3.37-1.14-5.05l7.27-11.27c1.09-1.68,3.36-2.15,5.07-1.04l55.46,35.76
		c1.71,1.11,2.23,3.37,1.14,5.05l-7.27,11.27c-1.09,1.68-3.36,2.15-5.07,1.04L321.26,80.16z"/>
</g>
<g>
	<path class="st4" d="M332.15,77.58c-1.05-0.68-1.35-2.08-0.67-3.13l0,0c0.68-1.05,2.08-1.35,3.13-0.68l42.42,27.35
		c1.05,0.68,1.35,2.08,0.68,3.13l0,0c-0.68,1.05-2.08,1.35-3.13,0.68L332.15,77.58z"/>
</g>
<g>
	<path class="st1" d="M501.52,339.89H289.97c-7.23,0-13.12-5.88-13.12-13.12v-107.3c0-7.23,5.89-13.12,13.12-13.12h211.56
		c7.23,0,13.12,5.89,13.12,13.12v107.3C514.64,334.01,508.76,339.89,501.52,339.89z M289.97,218.35c-0.62,0-1.12,0.5-1.12,1.12
		v107.3c0,0.62,0.5,1.12,1.12,1.12h211.56c0.62,0,1.12-0.5,1.12-1.12v-107.3c0-0.62-0.5-1.12-1.12-1.12H289.97z"/>
</g>
<rect x="314.48" y="234.37" class="st0" width="159.58" height="41.28"/>
<rect x="314.48" y="285.4" class="st5" width="41.62" height="27.81"/>
<rect x="373.46" y="285.4" class="st5" width="41.62" height="27.81"/>
<rect x="432.44" y="285.4" class="st5" width="41.62" height="27.81"/>
<rect x="438.38" y="88.52" class="st2" width="132.81" height="95.18"/>
<g>
	<path class="st4" d="M455.97,104.89c0,0,37.5-4.5,42,2.5c0,0-5,23,0,30c0,0-31.5,2-38,10
		C459.97,147.39,451.47,133.89,455.97,104.89z"/>
</g>
<g>
	<path class="st4" d="M506.38,123.82h42.5c0,0-0.5,39.5-3.5,43h-43C502.38,166.82,507.38,157.32,506.38,123.82z"/>
</g>
<g>
	<rect x="465.06" y="97.22" class="st5" width="22.5" height="12.5"/>
</g>
<g>
	<rect x="517.88" y="117.57" class="st5" width="22.5" height="12.5"/>
</g>
<g>
	<path class="st1" d="M571.19,183.71H432.38V82.52h138.81V183.71z M438.38,177.71h126.81V88.52H438.38V177.71z"/>
</g>
<defs>
	<filter id="Adobe_OpacityMaskFilter" filterUnits="userSpaceOnUse" x="150.87" y="234.37" width="251.9" height="201.09">
		<feFlood  style="flood-color:white;flood-opacity:1" result="back"/>
		<feBlend  in="SourceGraphic" in2="back" mode="normal"/>
	</filter>
</defs>
<mask maskUnits="userSpaceOnUse" x="150.87" y="234.37" width="251.9" height="201.09" id="SVGID_1_">
	<g class="st6">
		<defs>
			<filter id="Adobe_OpacityMaskFilter_1_" filterUnits="userSpaceOnUse" x="150.87" y="234.37" width="251.9" height="201.09">
				<feFlood  style="flood-color:white;flood-opacity:1" result="back"/>
				<feBlend  in="SourceGraphic" in2="back" mode="normal"/>
			</filter>
		</defs>
		<mask maskUnits="userSpaceOnUse" x="150.87" y="234.37" width="251.9" height="201.09" id="SVGID_1_">
			<g class="st7">
			</g>
		</mask>
		<linearGradient id="SVGID_2_" gradientUnits="userSpaceOnUse" x1="174.9947" y1="249.4258" x2="338.7703" y2="413.2014">
			<stop  offset="0" style="stop-color:#FFFFFF"/>
			<stop  offset="0.0356" style="stop-color:#E1E1E1"/>
			<stop  offset="0.0986" style="stop-color:#B2B2B2"/>
			<stop  offset="0.1673" style="stop-color:#888888"/>
			<stop  offset="0.2401" style="stop-color:#636363"/>
			<stop  offset="0.3181" style="stop-color:#444444"/>
			<stop  offset="0.403" style="stop-color:#2B2B2B"/>
			<stop  offset="0.4974" style="stop-color:#181818"/>
			<stop  offset="0.6066" style="stop-color:#0A0A0A"/>
			<stop  offset="0.7439" style="stop-color:#020202"/>
			<stop  offset="1" style="stop-color:#000000"/>
		</linearGradient>
		<polygon class="st8" points="150.87,275.65 193.49,234.37 402.76,296.14 179.98,435.46 		"/>
	</g>
</mask>
<polygon class="st9" points="150.87,275.65 193.49,234.37 402.76,296.14 179.98,435.46 "/>
</svg>
