<?xml version="1.0" encoding="utf-8"?>
<!-- Generator: Adobe Illustrator 23.1.0, SVG Export Plug-In . SVG Version: 6.00 Build 0)  -->
<svg version="1.1" xmlns="http://www.w3.org/2000/svg" xmlns:xlink="http://www.w3.org/1999/xlink" x="0px" y="0px"
	 viewBox="0 0 1400 980" style="enable-background:new 0 0 1400 980;" xml:space="preserve">
<style type="text/css">
	.st0{fill:#00A79D;}
	.st1{fill:#003F5B;}
	.st2{fill:#007FAE;}
</style>
<g id="Background">
	<rect x="0.05" class="st0" width="1399.95" height="980"/>
</g>
<g id="Object">
	<g>
		<g>
			<path class="st1" d="M247.97,497.64l237.01,0.75l0.06-20.32l-41.41-0.13l-0.02,7.9c0,0.64-0.52,1.15-1.16,1.15c0,0,0,0,0,0
				l-185.49-0.59L247.97,497.64z"/>
			
				<rect x="296.89" y="464.39" transform="matrix(3.170843e-03 -1 1 3.170843e-03 -171.8587 768.0726)" class="st1" width="4.86" height="11.7"/>
			
				<rect x="239.76" y="463.12" transform="matrix(3.158653e-03 -1 1 3.158653e-03 -228.6236 710.7686)" class="st1" width="4.86" height="13.87"/>
			
				<rect x="310.91" y="464.43" transform="matrix(3.170816e-03 -1 1 3.170816e-03 -157.9358 782.1284)" class="st1" width="4.86" height="11.7"/>
			
				<rect x="366.95" y="464.61" transform="matrix(3.170843e-03 -1 1 3.170843e-03 -102.2456 838.3503)" class="st1" width="4.86" height="11.7"/>
			
				<rect x="338.93" y="464.52" transform="matrix(3.162269e-03 -1 1 3.162269e-03 -130.0883 810.2428)" class="st1" width="4.86" height="11.7"/>
			
				<rect x="324.92" y="464.48" transform="matrix(3.162702e-03 -1 1 3.162702e-03 -144.0108 796.1874)" class="st1" width="4.86" height="11.7"/>
			
				<rect x="352.94" y="464.57" transform="matrix(3.162296e-03 -1 1 3.162296e-03 -116.1654 824.2986)" class="st1" width="4.86" height="11.7"/>
			
				<rect x="254.86" y="464.26" transform="matrix(3.153723e-03 -1 1 3.153723e-03 -213.6228 725.9133)" class="st1" width="4.86" height="11.7"/>
			<polygon class="st1" points="126.41,497.26 126.46,478.96 123.14,478.95 123.08,497.25 124.04,497.25 			"/>
			<path class="st1" d="M155.52,533.33l0,2.06l9.28,0.03l-6.06-2.56C158.05,533.24,156.77,533.62,155.52,533.33z"/>
			
				<rect x="126.74" y="490.8" transform="matrix(3.362988e-03 -1 1 3.362988e-03 -359.0429 622.3613)" class="st1" width="11.94" height="1.01"/>
			<path class="st2" d="M255.5,484.52c0.22-0.28,0.55-0.43,0.9-0.43c0,0,0,0,0,0l163.71,0.52l0.02-5.73l-4.39-10.13l-12.15-0.04
				c-0.6,0-1.09-0.46-1.15-1.06l-0.84-9.69l-30.34-0.1c-0.64,0-1.15-0.52-1.15-1.16l0.03-10.01l-18.54-0.06l-2.06-0.01l0,0
				l-6.92-0.02l-1.94-0.01l0,0l-4.62-0.01c0,0,0,0,0,0c0,0,0,0,0,0l-7.22-0.02c0,0,0,0,0,0l-4.42-0.01c0,0,0,0,0,0l-7.9-0.02l0,0
				l-4.14-0.01c-0.64,0-1.15-0.52-1.15-1.16l0.02-8.67l-4.8-0.02c0,0-0.01,0-0.01,0c0,0,0,0,0,0l-26.19-0.08l-0.06,19.45
				c0,0.64-0.5,1.18-1.16,1.15l-9.05-0.03l0,0l0,0l-28.31-0.09l0,0c0,0,0,0,0,0l0,0l-27.93-0.09l-5.5,28.89
				c-0.1,0.55-0.58,0.94-1.14,0.94c0,0,0,0,0,0l-4.62-0.01c-0.3,0-0.6-0.12-0.81-0.34c-0.22-0.22-0.34-0.51-0.34-0.82l0.07-20.8
				l-12.52-0.04L188.8,486c0,0.31-0.12,0.6-0.34,0.82c-0.22,0.22-0.63,0.33-0.82,0.34l-16.29-0.05l-10.89,10.27l84.56,0.27
				L255.5,484.52z M233.28,474.43c-0.22-0.22-0.34-0.51-0.34-0.82l0.02-7.17c0-0.64,0.52-1.15,1.16-1.15c0,0,0,0,0,0l160.05,0.51
				c0.64,0,1.15,0.52,1.15,1.16l-0.02,7.17c0,0.31-0.12,0.6-0.34,0.82c-0.22,0.22-0.51,0.34-0.81,0.34c0,0,0,0,0,0l-17.76-0.06
				c0,0,0,0,0,0c0,0,0,0,0,0c0,0,0,0,0,0l-28.01-0.09l0,0c0,0,0,0,0,0l0,0l-14-0.04c0,0,0,0,0,0c0,0,0,0-0.01,0c0,0,0,0,0,0
				l-42.03-0.13c0,0,0,0,0,0l-14.01-0.04l0,0c0,0,0,0,0,0l0,0l-44.2-0.14C233.79,474.77,233.49,474.65,233.28,474.43z"/>
			
				<rect x="138.14" y="491.41" transform="matrix(3.180150e-03 -1 1 3.180150e-03 -352.4382 633.8766)" class="st1" width="7.17" height="4.62"/>
			<path class="st1" d="M603,527.94l-476.88-1.51l-4.02-0.01l3.5,16.77l6.68,0.02l1.19-12.24c0.06-0.59,0.56-1.04,1.15-1.04
				c0,0,0,0,0,0l7.71,0.02c0.3,0,0.6,0.12,0.81,0.34c0.22,0.22,0.34,0.51,0.34,0.82l-0.02,5.3c0,0.64-0.52,1.15-1.16,1.15
				c0,0,0,0,0,0l-4.14-0.01l0,0.82c2.68-0.1,9.38-0.34,15.81-0.34c7.97,0,12.76,0.34,14.63,1.03c1.63,0.6,2.92,1.29,4.17,1.96
				c2.35,1.25,4.39,2.33,8.03,2.35c5.68,0.02,402.1,1.27,428.56,1.36l-1.06-5.92c-1.45-0.91-5.64-3.83-6.03-7.54
				C602.16,530.1,602.4,528.99,603,527.94z M171.66,536.82c-0.11,0.54-0.58,0.92-1.13,0.92c0,0,0,0,0,0l-16.18-0.05
				c-0.3,0-0.6-0.12-0.81-0.34c-0.22-0.22-0.34-0.51-0.34-0.82l0.02-5.01c0-0.43,0.24-0.83,0.63-1.03c0.39-0.2,0.85-0.16,1.2,0.09
				c0.5,0.36,1,0.54,1.48,0.54c0.76,0,1.31-0.44,1.31-0.45c0.33-0.3,0.81-0.38,1.22-0.2l11.92,5.04
				C171.49,535.74,171.77,536.28,171.66,536.82z"/>
			
				<rect x="315" y="435.95" transform="matrix(3.241445e-03 -1 1 3.241445e-03 -119.2878 757.8106)" class="st1" width="10.98" height="5.58"/>
			
				<rect x="325.22" y="434.54" transform="matrix(3.441094e-03 -1 1 3.441094e-03 -105.6539 767.981)" class="st1" width="14.54" height="4.91"/>
			<polygon class="st2" points="316.9,417.9 316.9,416.01 305.05,415.97 305.89,422.41 			"/>
			
				<rect x="331.52" y="422.66" transform="matrix(3.280441e-03 -1 1 3.280441e-03 -73.0399 774.4562)" class="st1" width="40.93" height="2.41"/>
			<polygon class="st1" points="361.98,444.36 362.08,412.78 359.67,412.77 359.57,444.36 361.29,444.36 			"/>
			<polygon class="st2" points="315.5,403.35 315.5,401.45 303.15,401.41 304.01,408.04 			"/>
			
				<rect x="327.31" y="427.31" transform="matrix(3.280441e-03 -1 1 3.280441e-03 -86.527 770.2102)" class="st1" width="31.59" height="2.41"/>
			
				<rect x="207.05" y="442.31" transform="matrix(3.190208e-03 -1 1 3.190208e-03 -237.9693 652.54)" class="st2" width="2.55" height="6.64"/>
			<polygon class="st1" points="226.4,441.53 213.97,441.49 213.97,443.22 213.97,443.22 213.97,443.23 213.95,448.08 
				213.95,448.08 213.95,448.09 213.93,454.68 226.35,454.72 			"/>
			
				<rect x="382.84" y="462.78" transform="matrix(3.170376e-03 -1 1 3.170376e-03 -86.4565 854.2902)" class="st1" width="4.86" height="15.46"/>
			<path class="st2" d="M218.04,435.24l-0.01,3.95l4.04,0.01l0.03-9.82l-10.69-0.03l-0.01,4.72l5.49,0.02
				C217.52,434.08,218.04,434.6,218.04,435.24z"/>
			<polygon class="st1" points="257.52,436.52 242.88,436.47 242.82,454.77 267.98,454.85 			"/>
			
				<rect x="291.84" y="390.03" transform="matrix(3.415233e-03 -1 1 3.415233e-03 -98.0374 686.0237)" class="st2" width="6.64" height="4.33"/>
			<path class="st2" d="M286.48,399.79l-5.64-0.02c-0.3,0-0.6-0.12-0.81-0.34c-0.22-0.22-0.34-0.51-0.34-0.82l0.08-26.83
				l-15.02-0.05l-0.01,4.33l9.53,0.03c0.3,0,0.6,0.12,0.81,0.34c0.22,0.22,0.34,0.51,0.34,0.82l-0.07,21.34
				c0,0.64-0.52,1.15-1.16,1.15c0,0,0,0,0,0l-5.78-0.02l-0.01,3.79l17.55,0.06L286.48,399.79z"/>
			<path class="st1" d="M300.35,397.85l-1.87-0.01c0,0,0,0,0,0c0,0,0,0,0,0c0,0,0,0,0,0l-9.39-0.03l-0.9,6.54
				c0.04,0.12,0.08,0.25,0.08,0.39c0,0.24-0.09,0.45-0.22,0.64l-3.97,28.91l21.05,0.07L300.35,397.85z"/>
			
				<rect x="282.88" y="464.34" transform="matrix(3.162296e-03 -1 1 3.162296e-03 -185.7791 754.0208)" class="st1" width="4.86" height="11.7"/>
			<path class="st2" d="M583.92,487.4c-18.13,4.77-56.01,12.71-86.51,13.28c-0.04,0-0.07,0.02-0.11,0.02c0,0,0,0,0,0
				c-0.03,0-0.06-0.02-0.09-0.02c-1.07,0.02-2.16,0.05-3.22,0.05l-0.54,0l-348.26-1.1c0,0,0,0,0,0c0,0,0,0-0.01,0l-4.82-0.02
				l-8.52-0.03l-0.82,0l0,0l-12.46-0.04c0.38,4.26,1.69,18.26,3.04,24.57l247.17,0.78l236.12,0.75l39.55-50.75
				C633.91,476.86,598.48,483.57,583.92,487.4z"/>
			
				<rect x="268.87" y="464.3" transform="matrix(3.162215e-03 -1 1 3.162215e-03 -199.702 739.965)" class="st1" width="4.86" height="11.7"/>
			<path class="st2" d="M472.53,475.72l0.01-2.02c0.01-3.98-3.22-7.23-7.2-7.24c-3.99,0-7.23,3.23-7.24,7.2l-0.01,2.02l11.11,0.04
				L472.53,475.72z"/>
			<path class="st1" d="M545.73,485.78l-40.15-0.13c-0.01,0-0.01,0-0.02,0c-3.9,0-7.07,3.16-7.08,7.06l-0.02,5.64
				c17.46-0.42,37.22-3.21,54.24-6.4C552.24,488.48,549.31,485.79,545.73,485.78z"/>
		</g>
		<g>
			<path class="st2" d="M278.42,726.89l-0.05,16.76l53.68,0.17l0.05-14.25c0-0.64,0.52-1.15,1.16-1.15c0,0,0,0,0,0l22.57,0.07
				c0.18-0.11,0.38-0.19,0.6-0.19c0,0,0,0,0,0l10.54,0.03l0.02-5.39l-16.63-0.05c-0.64,0-1.15-0.52-1.15-1.16
				c0-0.64,0.52-1.15,1.16-1.15c0,0,0,0,0,0l16.63,0.05l0.01-4.86l-15.21-0.05c-0.64,0-1.15-0.52-1.15-1.16
				c0-0.64,0.52-1.15,1.16-1.15c0,0,0,0,0,0l13.57,0.04l-0.48-0.48c-0.22-0.22-0.34-0.51-0.34-0.82l0.01-4.33l-70.26-0.22
				c-0.05,0.2-0.14,0.38-0.28,0.53c-0.22,0.22-0.51,0.34-0.81,0.34c0,0,0,0,0,0l-6.64-0.02c-0.61,0-1.11-0.48-1.15-1.09l-1.21-21.11
				l-3.74,28.97c-0.08,0.63-0.66,1.07-1.29,1l-8.97-1.12l2.2,2.69c0.28,0.35,0.34,0.82,0.15,1.23c-0.19,0.4-0.6,0.66-1.04,0.66
				c0,0,0,0,0,0l-1.6,0l2.2,1.33c0.38,0.23,0.6,0.66,0.55,1.11c-0.05,0.45-0.35,0.82-0.77,0.97l-2.14,0.74l7.8,1.98
				C278.07,725.9,278.43,726.36,278.42,726.89z"/>
			
				<rect x="276.17" y="748.14" transform="matrix(3.179082e-03 -1 1 3.179082e-03 -470.6898 1031.304)" class="st1" width="11.56" height="7.2"/>
			
				<rect x="286.22" y="747.64" transform="matrix(3.253704e-03 -1 1 3.253704e-03 -460.7215 1041.3333)" class="st1" width="11.56" height="8.28"/>
			<path class="st1" d="M368.34,705.51l0.01-2.89c0-0.31,0.12-0.6,0.34-0.82c0.22-0.22,0.49-0.33,0.82-0.34l4.04,0.01l0-1.44
				l-5.78-0.02c-0.35,0-0.67-0.16-0.88-0.42c-0.21,0.25-0.53,0.41-0.88,0.41c0,0,0,0,0,0l-2.69-0.01c-0.3,0-0.6-0.12-0.81-0.34
				c-0.02-0.02-0.05-0.05-0.07-0.07c-0.21,0.25-0.53,0.41-0.88,0.41c0,0,0,0,0,0L349,699.96c-0.64,0-1.15-0.52-1.15-1.16l0.02-6.64
				c0-0.31,0.12-0.6,0.34-0.82c0.22-0.22,0.41-0.3,0.82-0.34l4.62,0.01l0.06-19.93l-12.13-0.04l-0.06,19.93l2.89,0.01
				c0.64,0,1.15,0.52,1.15,1.16l-0.02,6.64c0,0.31-0.12,0.6-0.34,0.82c-0.22,0.22-0.57,0.33-0.82,0.34l-24.85-0.08
				c-0.59,0-1.09-0.45-1.15-1.05l-1.81-19.07c-0.03-0.32,0.08-0.65,0.3-0.89c0.22-0.24,0.53-0.38,0.85-0.38c0,0,0,0,0,0l16.89,0.05
				l-17.11-0.05c-0.59,0-1.09-0.45-1.15-1.05l-1.12-11.85c-0.03-0.33,0.08-0.65,0.3-0.89c0.22-0.24,0.53-0.38,0.85-0.38c0,0,0,0,0,0
				l13.94,0.04l-14.17-0.05c-0.59,0-1.09-0.45-1.15-1.05l-0.98-10.4c-0.03-0.32,0.08-0.65,0.3-0.89c0.22-0.24,0.62-0.43,0.86-0.38
				l10.27,0.03l-10.5-0.03c-0.59,0-1.09-0.45-1.15-1.05l-0.37-3.87l-3.11-0.01l-0.41,3.87c-0.06,0.59-0.56,1.03-1.15,1.03
				c0,0,0,0,0,0l-0.21,0c0.32,0.01,0.61,0.15,0.83,0.38c0.22,0.24,0.32,0.57,0.29,0.89l-1.1,10.4c-0.06,0.59-0.49,1.01-1.15,1.03
				l-0.21,0c0.32,0.01,0.62,0.15,0.83,0.38c0.22,0.24,0.32,0.57,0.29,0.89l-1.25,11.84c-0.06,0.59-0.56,1.03-1.15,1.03c0,0,0,0,0,0
				l-0.21,0c0.32,0.01,0.61,0.15,0.83,0.38c0.22,0.24,0.32,0.57,0.29,0.89l-2.05,19.35c-0.06,0.59-0.56,1.03-1.15,1.03c0,0,0,0,0,0
				l-9.24-0.03l-0.01,5.2l71.36,0.23L368.34,705.51z"/>
			<path class="st1" d="M355.25,733.78l0.01-2.99l-20.86-0.07l-0.05,14.25c0,0.64-0.52,1.15-1.16,1.15c0,0,0,0,0,0l-26.44-0.08
				l-0.04,11.56l41.75,0.13l7.28,0.02l0.03-10.5c0-0.4,0.2-0.76,0.54-0.97l15.68-9.92l0-1.39l-15.6-0.05
				C355.77,734.93,355.25,734.42,355.25,733.78z"/>
			
				<rect x="295.66" y="748.82" transform="matrix(3.253704e-03 -1 1 3.253704e-03 -451.3451 1050.8)" class="st1" width="11.56" height="5.97"/>
			<path class="st2" d="M457.4,766.89L457.4,766.89l7.22,0.02l0,0c0,0,0,0,0,0c0,0,0,0,0,0l26.02,0.08c0,0,0,0,0,0c0,0,0,0,0,0
				l37.01,0.12c0,0,0,0,0,0l31.51,0.1c0,0,0,0,0,0c0,0,0,0,0.01,0c0,0,0,0,0,0l26.01,0.08c0,0,0,0,0,0l0,0l37.01,0.12l0,0
				c0,0,0,0,0,0l0,0l26.01,0.08c0,0,0,0,0,0l68.7,0.22c0,0,0,0,0,0c0,0,0,0,0,0c0,0,0,0,0,0l134.04,0.42c0,0,0,0,0,0c0,0,0,0,0,0
				c0,0,0,0,0,0l62.9,0.2l0.02-6.5l-844.31-2.67c-4.22,0-7.78,2.72-9.11,6.47L457.4,766.89L457.4,766.89z"/>
			
				<rect x="779.86" y="708.43" transform="matrix(3.183171e-03 -1 1 3.183171e-03 7.1342 1555.7659)" class="st2" width="8.14" height="131.74"/>
			
				<rect x="633.1" y="760.01" transform="matrix(3.007649e-03 -1 1 3.007649e-03 -138.5696 1404.7333)" class="st2" width="4.19" height="23.71"/>
			<path class="st1" d="M224.82,751.9c0.22,0.22,0.34,0.51,0.34,0.82l-0.01,4.62l1.16,0l0.01-4.62c0-0.31,0.12-0.6,0.34-0.82
				c0.22-0.22,0.51-0.34,0.81-0.34c0,0,0,0,0,0l11.84,0.04l0.01-3c0-0.28,0.11-0.54,0.28-0.74l-10.24-0.03
				c-0.38,0-0.73-0.19-0.95-0.5c-0.22-0.31-0.26-0.71-0.13-1.06l0.16-0.44l-2.3-1.48c-0.16-0.11-0.3-0.25-0.39-0.42
				c-0.09,0.17-0.23,0.31-0.39,0.41l-2.31,1.46l0.16,0.45c0.13,0.36,0.08,0.75-0.14,1.06c-0.22,0.31-0.61,0.4-0.95,0.49l-10.24-0.03
				c0.18,0.21,0.28,0.48,0.27,0.75l-0.01,4l0.44,0c0.07-0.57,0.6-0.91,1.15-1.01l10.26,0.03
				C224.31,751.56,224.61,751.69,224.82,751.9z"/>
			<path class="st1" d="M92.05,752.3l-0.01,4.62l1.16,0l0.01-4.62c0-0.31,0.12-0.6,0.34-0.82c0.22-0.22,0.6-0.29,0.82-0.34
				l10.26,0.03c0.59,0,1.07,0.44,1.14,1.01l0.44,0l0.01-4c0-0.28,0.1-0.54,0.28-0.75l-10.24-0.03c-0.38,0-0.73-0.19-0.95-0.5
				c-0.21-0.31-0.26-0.71-0.13-1.06l0.17-0.44l-2.3-1.48c-0.16-0.11-0.3-0.25-0.39-0.42c-0.09,0.17-0.23,0.31-0.39,0.41l-2.31,1.46
				l0.16,0.45c0.13,0.36,0.08,0.75-0.14,1.06c-0.22,0.31-0.6,0.44-0.95,0.49l-10.24-0.03c0.17,0.2,0.27,0.46,0.27,0.75l-0.01,4.01
				l0.44,0c0.03-0.25,0.15-0.49,0.33-0.67c0.22-0.22,0.51-0.4,0.82-0.34l10.26,0.03C91.54,751.14,92.05,751.66,92.05,752.3z"/>
			<path class="st1" d="M135.65,751.62c0.22,0.22,0.34,0.51,0.34,0.82l-0.01,4.62l1.16,0l0.01-4.62c0-0.31,0.12-0.6,0.34-0.82
				c0.22-0.22,0.56-0.28,0.82-0.34l10.26,0.03c0.31,0,0.6,0.12,0.81,0.34c0.18,0.18,0.3,0.42,0.33,0.67l0.44,0l0.01-4
				c0-0.28,0.1-0.54,0.28-0.75l-10.24-0.03c-0.38,0-0.73-0.19-0.95-0.5c-0.22-0.31-0.26-0.71-0.13-1.06l0.16-0.44l-2.3-1.48
				c-0.16-0.11-0.3-0.25-0.39-0.42c-0.09,0.17-0.23,0.31-0.39,0.41l-2.31,1.46l0.16,0.45c0.13,0.36,0.08,0.75-0.14,1.06
				c-0.22,0.31-0.55,0.49-0.95,0.49l-10.24-0.03c0.18,0.21,0.28,0.48,0.27,0.75l-0.01,4l0.44,0c0.07-0.57,0.56-1.01,1.15-1.01
				c0,0,0,0,0,0l10.26,0.03C135.14,751.28,135.43,751.41,135.65,751.62z"/>
			<path class="st1" d="M456.16,753.27l-0.01,4.77l0.36,0l0.01-2.89c0-0.64,0.52-1.15,1.16-1.15c0,0,0,0,0,0l19.54,0.06
				c0.3,0,0.6,0.12,0.81,0.34c0.22,0.22,0.34,0.51,0.34,0.82l-0.01,2.89l0.36,0l0.01-4.77c0-0.31,0.12-0.6,0.34-0.82
				c0.22-0.22,0.51-0.34,0.81-0.34c0,0,0,0,0,0l5.24,0.02c-1.5-1.26-5.29-1.96-8.05-2.05c-0.09,0-0.18-0.02-0.26-0.04
				c-0.39-0.1-0.84-0.25-1.39-0.43c-2.51-0.81-6.71-2.16-13.48-2.18c-8.03,0-13.88,2.84-13.94,2.87c-0.44,0.21-0.96,0.14-1.31-0.2
				l-7.88-7.51l-3.44-0.01c1.65,4.94,3.77,9.18,4.76,9.41l14.85,0.05C455.64,752.12,456.16,752.64,456.16,753.27z"/>
			<path class="st1" d="M721.61,753.3c0.22,0.22,0.34,0.51,0.34,0.82l-0.02,4.77l0.36,0l0.01-2.89c0-0.31,0.12-0.6,0.34-0.82
				c0.22-0.22,0.46-0.3,0.82-0.34L743,754.9c0.64,0,1.15,0.52,1.15,1.16l-0.01,2.89l0.36,0l0.02-4.77c0-0.64,0.52-1.15,1.16-1.15
				c0,0,0,0,0,0l5.24,0.02c-1.5-1.26-5.29-1.96-8.05-2.05c-0.09,0-0.18-0.02-0.26-0.04c-0.39-0.1-0.84-0.25-1.38-0.42
				c-2.51-0.81-6.71-2.16-13.48-2.18c-8.03,0-13.88,2.84-13.94,2.87c-0.44,0.21-0.96,0.13-1.31-0.2l-7.88-7.51l-3.44-0.01
				c1.65,4.94,3.77,9.18,4.76,9.41l14.86,0.05C721.1,752.96,721.4,753.08,721.61,753.3z"/>
			<path class="st1" d="M825.32,753.63c0.22,0.22,0.34,0.51,0.34,0.82l-0.02,4.77l0.36,0l0.01-2.89c0-0.64,0.6-1.2,1.16-1.15
				l19.54,0.06c0.3,0,0.6,0.12,0.81,0.34c0.22,0.22,0.34,0.51,0.34,0.82l-0.01,2.89l0.36,0l0.02-4.77c0-0.64,0.52-1.15,1.16-1.15
				c0,0,0,0,0,0l5.23,0.02c-1.5-1.26-5.29-1.96-8.04-2.05c-0.09,0-0.18-0.02-0.26-0.04c-0.38-0.1-0.84-0.25-1.38-0.42
				c-2.51-0.81-6.71-2.16-13.48-2.18c-8.03,0-13.88,2.84-13.94,2.87c-0.44,0.21-0.96,0.13-1.31-0.2l-7.88-7.51l-3.44-0.01
				c1.65,4.94,3.77,9.18,4.76,9.41l14.85,0.05C824.81,753.29,825.11,753.41,825.32,753.63z"/>
			<path class="st1" d="M84.99,827.01c-0.32,1.43-0.39,2.65-0.19,3.63c0.21,1.07,3.12,2.19,7.61,2.19c4.63,0,8.13-1.18,8.5-2.27
				c0.32-0.95,0.27-2.25-0.15-3.79L84.99,827.01z"/>
			<path class="st1" d="M68.73,821.94c0.87,0.03,2.51,0.05,5.62,0.05l0.75,0c-0.28-0.53-0.5-1.09-0.68-1.66
				c-0.05-0.15-0.08-0.31-0.12-0.46c-0.13-0.48-0.22-0.97-0.27-1.46c-0.02-0.18-0.04-0.36-0.05-0.54c-0.03-0.64-0.03-1.28,0.06-1.92
				c0.08-0.53,0.21-1.03,0.37-1.52c0.05-0.14,0.1-0.27,0.15-0.41c0.15-0.39,0.33-0.77,0.53-1.14c0.05-0.09,0.09-0.19,0.15-0.28
				c0.23-0.39,0.48-0.76,0.77-1.11C72.29,813.18,69.25,816.46,68.73,821.94z"/>
			<path class="st1" d="M878.08,812.65C878.08,812.65,878.08,812.65,878.08,812.65l-781.83-2.47c0,0,0,0-0.01,0l-12.41-0.12
				c-1.29,0-2.46,0.29-3.41,0.84l-0.73,0.43c-2.39,1.46-3.14,3.5-3.36,4.96c-0.32,2.17,0.36,4.44,1.83,6.09
				c0.95,1.07,2.65,2.34,5.34,2.34l70.49-1.1c0,0,0,0,0,0c2.15,0,4.07,0.62,5.69,1.78l17.49,12.5c1.23,0.88,2.67,1.35,4.18,1.35
				l719.27,2.28l0.02,1.16v-1.16c3.97,0,7.22-3.23,7.23-7.21l0.05-14.43c0.01-1.93-0.74-3.75-2.1-5.12
				c-1.36-1.37-3.18-2.13-5.11-2.13l-22.23-0.07C878.36,812.62,878.22,812.65,878.08,812.65z"/>
			<path class="st1" d="M510.18,753.45l-0.01,4.77l0.36,0l0.01-2.89c0-0.64,0.54-1.16,1.16-1.15l19.54,0.06
				c0.3,0,0.6,0.12,0.81,0.34c0.22,0.22,0.34,0.51,0.34,0.82l-0.01,2.89l0.36,0l0.01-4.77c0-0.31,0.12-0.6,0.34-0.82
				c0.22-0.22,0.51-0.34,0.82-0.34c0,0,0,0,0,0l5.24,0.02c-1.5-1.26-5.29-1.96-8.05-2.05c-0.09,0-0.18-0.02-0.26-0.04
				c-0.39-0.1-0.84-0.25-1.38-0.42c-2.51-0.81-6.71-2.16-13.48-2.18c-8.06,0-13.88,2.84-13.94,2.87c-0.44,0.21-0.96,0.14-1.31-0.2
				l-7.88-7.51l-3.44-0.01c1.65,4.95,3.76,9.18,4.76,9.41l14.85,0.05C509.67,752.29,510.18,752.81,510.18,753.45z"/>
			<path class="st1" d="M667.59,753.13c0.22,0.22,0.34,0.51,0.34,0.82l-0.02,4.77l0.36,0l0.01-2.89c0-0.31,0.12-0.6,0.34-0.82
				c0.22-0.22,0.46-0.28,0.82-0.34l19.54,0.06c0.64,0,1.15,0.52,1.15,1.16l-0.01,2.89l0.36,0l0.02-4.77c0-0.64,0.52-1.15,1.16-1.15
				c0,0,0,0,0,0l5.23,0.02c-1.5-1.26-5.29-1.96-8.04-2.05c-0.09,0-0.18-0.02-0.26-0.04c-0.39-0.1-0.84-0.25-1.38-0.42
				c-2.51-0.81-6.71-2.16-13.48-2.18c-8.06,0-13.88,2.84-13.93,2.87c-0.44,0.22-0.96,0.14-1.31-0.2l-7.88-7.51l-3.44-0.01
				c1.65,4.94,3.77,9.18,4.76,9.41l14.85,0.05C667.08,752.79,667.37,752.91,667.59,753.13z"/>
			
				<rect x="601.59" y="759.91" transform="matrix(2.936459e-03 -1 1 2.936459e-03 -169.8478 1373.1727)" class="st2" width="4.19" height="23.71"/>
			<path class="st1" d="M564.21,753.62l-0.01,4.77l0.36,0l0.01-2.89c0-0.64,0.52-1.15,1.16-1.15c0,0,0,0,0,0l19.54,0.06
				c0.3,0,0.6,0.12,0.81,0.34c0.22,0.22,0.34,0.51,0.34,0.82l-0.01,2.89l0.36,0l0.01-4.77c0-0.31,0.12-0.6,0.34-0.82
				c0.22-0.22,0.62-0.29,0.82-0.34l5.24,0.02c-1.5-1.26-5.29-1.96-8.05-2.05c-0.09,0-0.18-0.02-0.26-0.04
				c-0.39-0.1-0.84-0.25-1.38-0.42c-2.51-0.81-6.71-2.16-13.48-2.18c-8.03,0-13.88,2.84-13.94,2.87c-0.44,0.21-0.96,0.13-1.31-0.2
				l-7.88-7.51l-3.44-0.01c1.65,4.94,3.76,9.18,4.76,9.41l14.86,0.05C563.69,752.46,564.21,752.98,564.21,753.62z"/>
			<path class="st1" d="M179.85,751.76c0.22,0.22,0.34,0.51,0.34,0.82l-0.01,4.62l1.16,0l0.01-4.62c0-0.31,0.12-0.6,0.34-0.82
				c0.22-0.22,0.57-0.42,0.82-0.34l10.26,0.03c0.59,0,1.07,0.44,1.14,1.01l0.44,0l0.01-4c0-0.28,0.1-0.54,0.28-0.75l-10.24-0.03
				c-0.38,0-0.73-0.19-0.95-0.5c-0.21-0.31-0.26-0.71-0.13-1.06l0.17-0.44l-2.3-1.48c-0.16-0.11-0.3-0.25-0.39-0.42
				c-0.09,0.17-0.23,0.31-0.39,0.41l-2.31,1.46l0.16,0.45c0.13,0.36,0.08,0.75-0.14,1.06c-0.21,0.31-0.57,0.49-0.95,0.49
				c0,0,0,0,0,0l-10.24-0.03c0.17,0.2,0.27,0.46,0.27,0.75l-0.01,4.01l0.44,0c0.03-0.25,0.15-0.49,0.33-0.67
				c0.22-0.22,0.48-0.37,0.82-0.34l10.26,0.03C179.34,751.42,179.63,751.55,179.85,751.76z"/>
			<path class="st2" d="M69.43,807.7l13.52,0.04c0,0,0,0,0.01,0l0.43,0l12.92,0.04c0.11,0,0.2,0.05,0.3,0.08l360.94,1.14l0.03-8.6
				l-276.97-0.88c-0.3,0-0.6-0.12-0.81-0.34c-0.22-0.22-0.34-0.51-0.34-0.82l0.02-7.66l-91.09-0.29l-0.02,7.66
				c0,0.31-0.12,0.6-0.34,0.82c-0.22,0.22-0.51,0.34-0.81,0.34c0,0,0,0,0,0l-27.31-0.09C60.47,803.94,64.49,807.68,69.43,807.7z"/>
			<path class="st1" d="M86.09,789.26c0-0.31,0.12-0.6,0.34-0.82c0.22-0.22,0.51-0.34,0.81-0.34c0,0,0,0,0,0l93.4,0.3
				c0.3,0,0.6,0.12,0.81,0.34c0.22,0.22,0.34,0.51,0.34,0.82l-0.02,7.66l276.97,0.88c0.64,0,1.15,0.52,1.15,1.16l-0.03,9.75
				l417.39,1.32c5.68-15.57,22.01-24.7,31.34-28.78c3.18-1.39,5.25-4.5,5.26-7.93l0.01-2.98l-61.75-0.2l-0.03,9.29
				c0,0.64-0.52,1.15-1.16,1.15c0,0,0,0,0,0l-134.05-0.42c-0.3,0-0.6-0.12-0.81-0.34c-0.22-0.22-0.34-0.51-0.34-0.82l0.03-9.29
				l-66.39-0.21l-0.02,5.34c0,0.31-0.12,0.6-0.34,0.82s-0.51,0.34-0.81,0.34c0,0,0,0,0,0l-26.02-0.08c-0.64,0-1.15-0.52-1.15-1.16
				l0.02-5.34l-3.19-0.01l-0.02,5.34c0,0.31-0.12,0.6-0.34,0.82c-0.22,0.22-0.51,0.34-0.82,0.34c0,0,0,0,0,0l-26.02-0.08
				c-0.64,0-1.15-0.52-1.15-1.16l0.02-5.34l-3.19-0.01l-0.02,5.34c0,0.31-0.12,0.6-0.34,0.82c-0.22,0.22-0.51,0.34-0.81,0.34
				c0,0,0,0,0,0l-26.02-0.08c-0.64,0-1.15-0.52-1.15-1.16l0.02-5.34l-3.19-0.01l-0.02,5.34c0,0.64-0.52,1.15-1.16,1.15c0,0,0,0,0,0
				l-26.02-0.08c-0.3,0-0.6-0.12-0.81-0.34c-0.22-0.22-0.34-0.51-0.34-0.82l0.02-5.34l-3.19-0.01l-0.02,5.34
				c0,0.31-0.12,0.6-0.34,0.82c-0.22,0.22-0.51,0.34-0.81,0.34c0,0,0,0,0,0l-26.02-0.08c-0.3,0-0.6-0.12-0.81-0.34
				c-0.22-0.22-0.34-0.51-0.34-0.82l0.02-5.34l-3.19-0.01l-0.02,5.34c0,0.31-0.12,0.6-0.34,0.82c-0.22,0.22-0.51,0.34-0.81,0.34
				c0,0,0,0,0,0l-26.02-0.08c-0.64,0-1.15-0.52-1.15-1.16l0.02-5.34l-4.91-0.02l-0.03,9.1c0,0.31-0.12,0.6-0.34,0.82
				c-0.22,0.22-0.51,0.34-0.81,0.34c0,0,0,0,0,0l-128.56-0.41c-0.64,0-1.15-0.52-1.15-1.16l0.03-9.1l-267.7-0.85
				c-0.03,0.29-0.09,0.56-0.09,0.86l-0.09,28.04l26.27,0.08L86.09,789.26z M589.45,792.78c0-0.31,0.12-0.6,0.34-0.82
				c0.22-0.22,0.51-0.34,0.81-0.34c0,0,0,0,0,0l219.84,0.7c0.41,0,0.79,0.22,1,0.58c0.21,0.36,0.2,0.8-0.01,1.16l-4.65,7.88
				c-0.21,0.35-0.59,0.57-1,0.57c0,0,0,0,0,0l-215.22-0.68c-0.64,0-1.15-0.52-1.15-1.16L589.45,792.78z M579.35,782.16
				c1.33,0,2.56,0.52,3.48,1.45c0.93,0.93,1.43,2.17,1.43,3.48c-0.01,2.7-2.21,4.9-4.91,4.9c0,0-0.01,0-0.01,0
				c-2.71-0.01-4.91-2.22-4.9-4.93C574.45,784.35,576.66,782.16,579.35,782.16z M579.31,795.73c1.33,0,2.56,0.52,3.48,1.45
				c0.93,0.93,1.43,2.17,1.43,3.48c-0.01,2.7-2.21,4.9-4.91,4.9c0,0-0.01,0-0.01,0c-2.71-0.01-4.91-2.22-4.9-4.93
				C574.41,797.93,576.61,795.73,579.31,795.73z M560.85,782.1c2.72,0.01,4.92,2.22,4.91,4.93c-0.01,2.7-2.21,4.9-4.91,4.9
				c0,0-0.02,0-0.02,0c-2.7-0.01-4.9-2.22-4.9-4.93C555.95,784.29,558.15,782.1,560.85,782.1z M560.81,795.68
				c1.33,0,2.56,0.52,3.48,1.45c0.92,0.93,1.43,2.17,1.43,3.48c-0.01,2.7-2.21,4.9-4.91,4.9c0,0-0.01,0-0.01,0
				c-2.71-0.01-4.9-2.22-4.9-4.93C555.9,797.87,558.11,795.68,560.81,795.68z M542.34,782.04c2.73,0.01,4.92,2.22,4.91,4.93
				c-0.01,2.7-2.21,4.9-4.91,4.9c0,0-0.02,0-0.02,0c-2.71-0.01-4.9-2.22-4.89-4.93C537.44,784.23,539.64,782.04,542.34,782.04z
				 M542.3,795.62c2.73,0.01,4.92,2.22,4.91,4.93c-0.01,2.7-2.21,4.9-4.91,4.9c0,0-0.02,0-0.02,0c-2.71-0.01-4.9-2.22-4.89-4.93
				C537.4,797.81,539.6,795.62,542.3,795.62z M523.83,781.98c2.73,0.01,4.92,2.22,4.91,4.93c-0.01,2.7-2.21,4.9-4.91,4.9
				c0,0-0.02,0-0.02,0c-2.71-0.01-4.9-2.22-4.9-4.93C518.93,784.18,521.14,781.98,523.83,781.98z M523.79,795.56
				c2.73,0.01,4.92,2.22,4.91,4.93c-0.01,2.7-2.21,4.9-4.91,4.9c0,0-0.02,0-0.02,0c-2.71-0.01-4.9-2.22-4.9-4.93
				C518.89,797.75,521.09,795.56,523.79,795.56z M505.33,781.92c2.72,0.01,4.92,2.22,4.91,4.93c-0.01,2.7-2.21,4.9-4.91,4.9
				c0,0-0.02,0-0.02,0c-2.71-0.01-4.9-2.22-4.9-4.93C500.43,784.12,502.63,781.92,505.33,781.92z M505.28,795.5
				c2.72,0.01,4.92,2.22,4.91,4.93c-0.01,2.7-2.21,4.9-4.91,4.9c0,0-0.02,0-0.02,0c-2.71-0.01-4.9-2.22-4.9-4.93
				C500.38,797.7,502.59,795.5,505.28,795.5z M486.82,781.86c2.73,0.01,4.92,2.22,4.91,4.93c-0.01,2.7-2.21,4.9-4.91,4.9
				c0,0-0.02,0-0.02,0c-2.71-0.01-4.9-2.22-4.89-4.93C481.92,784.06,484.12,781.86,486.82,781.86z M486.78,795.44
				c2.72,0.01,4.92,2.22,4.91,4.93c-0.01,2.7-2.21,4.9-4.91,4.9c0,0-0.02,0-0.02,0c-2.71-0.01-4.9-2.22-4.89-4.93
				C481.87,797.64,484.08,795.44,486.78,795.44z M468.31,781.8c2.72,0.01,4.92,2.22,4.91,4.93c-0.01,2.7-2.21,4.9-4.91,4.9
				c0,0-0.02,0-0.02,0c-2.71-0.01-4.9-2.22-4.9-4.93C463.41,784,465.62,781.8,468.31,781.8z M468.27,795.38
				c2.73,0.01,4.92,2.22,4.91,4.93c-0.01,2.7-2.21,4.9-4.91,4.9c0,0-0.02,0-0.02,0c-2.71-0.01-4.9-2.22-4.9-4.93
				C463.37,797.58,465.57,795.38,468.27,795.38z M447.87,781.74c2.72,0.01,4.92,2.22,4.91,4.93c-0.01,2.7-2.21,4.9-4.91,4.9
				c0,0-0.02,0-0.02,0c-2.71-0.01-4.9-2.22-4.9-4.93C442.97,783.94,445.17,781.74,447.87,781.74z M429.36,781.68
				c2.73,0.01,4.92,2.22,4.91,4.93c-0.01,2.7-2.21,4.9-4.91,4.9c0,0-0.02,0-0.02,0c-2.71-0.01-4.9-2.22-4.89-4.93
				C424.46,783.88,426.66,781.68,429.36,781.68z M410.85,781.62c2.73,0.01,4.92,2.22,4.91,4.93c-0.01,2.7-2.21,4.9-4.91,4.9
				c0,0-0.02,0-0.02,0c-2.71-0.01-4.9-2.22-4.9-4.93C405.95,783.82,408.16,781.62,410.85,781.62z M392.35,781.56
				c2.72,0.01,4.92,2.22,4.91,4.93c-0.01,2.7-2.21,4.9-4.91,4.9c0,0-0.02,0-0.02,0c-1.31,0-2.54-0.52-3.47-1.45
				c-0.93-0.93-1.43-2.17-1.43-3.48C387.45,783.76,389.65,781.56,392.35,781.56z M373.84,781.51c2.72,0.01,4.92,2.22,4.91,4.92
				c-0.01,2.7-2.21,4.9-4.91,4.9c0,0-0.02,0-0.02,0c-1.31,0-2.54-0.52-3.47-1.45c-0.92-0.93-1.43-2.17-1.43-3.48
				C368.94,783.7,371.14,781.51,373.84,781.51z M355.33,781.45c1.33,0,2.56,0.52,3.48,1.45c0.93,0.93,1.43,2.17,1.43,3.48
				c-0.01,2.7-2.21,4.9-4.91,4.9c0,0-0.01,0-0.01,0c-2.71-0.01-4.91-2.22-4.9-4.93C350.43,783.64,352.64,781.45,355.33,781.45z
				 M336.82,781.39c2.73,0.01,4.92,2.22,4.91,4.93c-0.01,2.7-2.21,4.9-4.91,4.9c0,0-0.02,0-0.02,0c-2.71-0.01-4.9-2.22-4.9-4.93
				C331.92,783.58,334.13,781.39,336.82,781.39z M230.02,772.38l93.6,0.3c0.64,0,1.15,0.52,1.15,1.16c0,0.64-0.52,1.15-1.16,1.15
				c0,0,0,0,0,0l-93.6-0.3c-0.64,0-1.15-0.52-1.15-1.16C228.86,772.89,229.39,772.37,230.02,772.38z M229.96,788.56
				C229.96,788.56,229.96,788.56,229.96,788.56l93.61,0.3c0.64,0,1.15,0.52,1.15,1.16c0,0.64-0.52,1.15-1.16,1.15c0,0,0,0,0,0
				l-93.6-0.3c-0.64,0-1.15-0.52-1.15-1.16C228.81,789.08,229.32,788.56,229.96,788.56z"/>
			
				<rect x="570.07" y="759.81" transform="matrix(2.936249e-03 -1 1 2.936249e-03 -201.1717 1341.5577)" class="st2" width="4.19" height="23.71"/>
			<polygon class="st2" points="808.43,794.63 591.76,793.94 591.74,799.53 805.14,800.2 			"/>
			
				<rect x="389.13" y="709.85" transform="matrix(2.995657e-03 -1 1 2.995657e-03 -381.0463 1163.7543)" class="st2" width="7.94" height="126.25"/>
			
				<rect x="475.52" y="759.51" transform="matrix(3.007864e-03 -1 1 3.007864e-03 -295.1771 1246.6566)" class="st1" width="4.19" height="23.71"/>
			
				<rect x="507.04" y="759.61" transform="matrix(2.912655e-03 -1 1 2.912655e-03 -263.8078 1278.3446)" class="st1" width="4.19" height="23.71"/>
			
				<rect x="538.56" y="759.71" transform="matrix(2.984562e-03 -1 1 2.984562e-03 -232.5213 1309.9052)" class="st2" width="4.19" height="23.71"/>
			<g>
				<path class="st2" d="M447.86,789.25L447.86,789.25c1.44,0,2.6-1.16,2.61-2.59c0-1.43-1.16-2.6-2.59-2.61
					c-1.44,0-2.6,1.16-2.61,2.59C445.26,788.08,446.43,789.25,447.86,789.25z"/>
				<path class="st2" d="M429.35,789.19L429.35,789.19c1.44,0,2.6-1.16,2.61-2.59c0-1.43-1.16-2.6-2.59-2.61
					c-1.44,0-2.6,1.16-2.61,2.59C426.76,788.02,427.92,789.19,429.35,789.19z"/>
				<path class="st2" d="M468.26,802.89L468.26,802.89c1.44,0,2.6-1.16,2.61-2.59c0-1.43-1.16-2.6-2.59-2.61
					c-1.44,0-2.6,1.16-2.61,2.59C465.67,801.72,466.83,802.89,468.26,802.89z"/>
				<path class="st2" d="M410.85,789.13L410.85,789.13c1.44,0,2.6-1.16,2.61-2.59c0-1.43-1.16-2.6-2.59-2.61
					c-1.44,0-2.6,1.16-2.61,2.59C408.25,787.96,409.41,789.13,410.85,789.13z"/>
				<path class="st2" d="M468.31,789.32L468.31,789.32c1.44,0,2.6-1.16,2.61-2.59c0-1.43-1.16-2.6-2.59-2.61
					c-1.44,0-2.6,1.16-2.61,2.59C465.71,788.14,466.87,789.31,468.31,789.32z"/>
				<path class="st2" d="M486.81,789.37L486.81,789.37c1.44,0,2.6-1.16,2.61-2.59c0-1.43-1.16-2.6-2.59-2.61
					c-1.44,0-2.6,1.16-2.61,2.59C484.22,788.2,485.38,789.37,486.81,789.37z"/>
				<path class="st2" d="M486.77,802.95L486.77,802.95c1.44,0,2.6-1.16,2.61-2.59c0-1.43-1.16-2.6-2.59-2.61
					c-1.44,0-2.6,1.16-2.61,2.59C484.17,801.78,485.34,802.95,486.77,802.95z"/>
				<path class="st2" d="M505.28,803.01L505.28,803.01c1.44,0,2.6-1.16,2.61-2.59c0-1.43-1.16-2.6-2.59-2.61
					c-1.44,0-2.6,1.16-2.61,2.59C502.68,801.84,503.84,803.01,505.28,803.01z"/>
				<path class="st2" d="M373.83,789.02h0.01c1.43,0,2.6-1.16,2.6-2.59c0-1.43-1.16-2.6-2.59-2.61c-1.44,0-2.61,1.16-2.61,2.59
					c0,0.7,0.27,1.35,0.76,1.84C372.49,788.74,373.14,789.01,373.83,789.02z"/>
				<path class="st2" d="M336.82,788.9L336.82,788.9c1.44,0,2.6-1.16,2.61-2.59c0-1.43-1.16-2.6-2.59-2.61
					c-1.44,0-2.6,1.16-2.61,2.59C334.22,787.73,335.38,788.9,336.82,788.9z"/>
				<path class="st2" d="M392.34,789.08h0.01c1.43,0,2.59-1.16,2.6-2.59c0-1.43-1.16-2.6-2.59-2.61c-1.44,0-2.6,1.16-2.61,2.59
					c0,0.7,0.27,1.35,0.76,1.84C390.99,788.8,391.65,789.07,392.34,789.08z"/>
				<path class="st2" d="M355.33,788.96L355.33,788.96c1.44,0,2.6-1.16,2.61-2.59c0-0.7-0.27-1.35-0.76-1.84
					c-0.49-0.49-1.14-0.77-1.84-0.77c-1.44,0-2.6,1.16-2.61,2.59C352.73,787.78,353.89,788.95,355.33,788.96z"/>
				<path class="st2" d="M579.35,789.67L579.35,789.67c1.44,0,2.6-1.16,2.61-2.59c0-0.7-0.27-1.35-0.76-1.84
					c-0.49-0.49-1.14-0.77-1.84-0.77c-1.44,0-2.6,1.16-2.61,2.59C576.75,788.49,577.91,789.66,579.35,789.67z"/>
				<path class="st2" d="M505.32,789.43L505.32,789.43c1.44,0,2.6-1.16,2.61-2.59c0-1.43-1.16-2.6-2.59-2.61
					c-1.44,0-2.6,1.16-2.61,2.59C502.72,788.26,503.89,789.43,505.32,789.43z"/>
				<path class="st2" d="M579.31,803.25L579.31,803.25c1.44,0,2.6-1.16,2.61-2.59c0-0.7-0.27-1.35-0.76-1.84
					c-0.49-0.49-1.14-0.77-1.84-0.77c-1.44,0-2.6,1.16-2.61,2.59C576.71,802.07,577.87,803.24,579.31,803.25z"/>
				<path class="st2" d="M523.83,789.49L523.83,789.49c1.44,0,2.6-1.16,2.61-2.59c0-1.43-1.16-2.6-2.59-2.61
					c-1.44,0-2.6,1.16-2.61,2.59C521.23,788.32,522.39,789.49,523.83,789.49z"/>
				<path class="st2" d="M523.79,803.07L523.79,803.07c1.44,0,2.6-1.16,2.61-2.59c0-1.43-1.16-2.6-2.59-2.61
					c-1.44,0-2.6,1.16-2.61,2.59C521.19,801.89,522.35,803.07,523.79,803.07z"/>
				<path class="st2" d="M560.84,789.61L560.84,789.61c1.44,0,2.6-1.16,2.61-2.59c0-1.43-1.16-2.6-2.59-2.61
					c-1.44,0-2.6,1.16-2.61,2.59C558.25,788.43,559.41,789.6,560.84,789.61z"/>
				<path class="st2" d="M542.29,803.13L542.29,803.13c1.44,0,2.6-1.16,2.61-2.59c0-1.43-1.16-2.6-2.59-2.61
					c-1.44,0-2.6,1.16-2.61,2.59C539.7,801.95,540.86,803.12,542.29,803.13z"/>
				<path class="st2" d="M542.33,789.55L542.33,789.55c1.44,0,2.6-1.16,2.61-2.59c0-1.43-1.16-2.6-2.59-2.61
					c-1.44,0-2.6,1.16-2.61,2.59C539.74,788.38,540.9,789.55,542.33,789.55z"/>
				<path class="st2" d="M560.8,803.19L560.8,803.19c1.44,0,2.6-1.16,2.61-2.59c0-0.7-0.27-1.35-0.76-1.84
					c-0.49-0.49-1.14-0.76-1.83-0.77c-1.44,0-2.61,1.16-2.61,2.59C558.2,802.01,559.37,803.18,560.8,803.19z"/>
			</g>
			<path class="st1" d="M401.8,752.29c0.22,0.22,0.34,0.51,0.34,0.82l-0.02,4.77l0.36,0l0.01-2.89c0-0.64,0.52-1.15,1.16-1.15
				c0,0,0,0,0,0l19.54,0.06c0.3,0,0.6,0.12,0.81,0.34c0.22,0.22,0.34,0.51,0.34,0.82l-0.01,2.89l0.36,0l0.02-4.77
				c0-0.64,0.52-1.15,1.16-1.15c0,0,0,0,0,0l5.23,0.02c-1.5-1.26-5.29-1.96-8.04-2.05c-0.09,0-0.18-0.02-0.26-0.04
				c-0.39-0.1-0.84-0.25-1.39-0.43c-2.51-0.81-6.71-2.16-13.48-2.18c-8.03,0-13.88,2.84-13.94,2.87c-0.44,0.21-0.96,0.14-1.31-0.2
				l-7.88-7.51l-3.44-0.01c1.65,4.94,3.77,9.18,4.76,9.41l14.85,0.05C401.29,751.95,401.59,752.07,401.8,752.29z"/>
		</g>
		<g>
			
				<rect x="1200.78" y="767.63" transform="matrix(2.957241e-03 -1 1 2.957241e-03 415.3633 1987.0127)" class="st1" width="6.7" height="35.16"/>
			
				<rect x="1212.14" y="800.15" transform="matrix(3.016965e-03 -1 1 3.016965e-03 410.2283 2015.3569)" class="st1" width="7.39" height="3.58"/>
			<polygon class="st1" points="1081.42,784.95 1079.7,788.16 1118.38,788.29 1116.56,785.06 			"/>
			
				<rect x="1225.13" y="800.19" transform="matrix(3.003599e-03 -1 1 3.003599e-03 423.1552 2028.3989)" class="st1" width="7.39" height="3.58"/>
			
				<rect x="1029.16" y="762.06" transform="matrix(3.348089e-03 -1 1 3.348089e-03 267.6699 1795.8317)" class="st1" width="11.2" height="3.13"/>
			
				<rect x="1043.94" y="763" transform="matrix(3.526449e-03 -1 1 3.526449e-03 279.0392 1810.5079)" class="st1" width="8.06" height="4.48"/>
			<path class="st1" d="M1225.71,795.59L1225.71,795.59L1225.71,795.59l6.27,0.02l0,0l0,0l92.5,0.29c1.24-0.4,2.49-0.82,3.74-1.24
				c-3.19-1.2-11.33-3.07-31.27-3.13l-307.38-0.97l-0.13,4.28L1225.71,795.59L1225.71,795.59z"/>
			<path class="st1" d="M994.28,744.91l-0.07,24.19l4.03,0.01l0.02-7.17v0l0.01-3.43l0.08-26.13l-8.73-0.03l-0.03,9.83l3.83,1.47
				C993.94,743.86,994.28,744.36,994.28,744.91z"/>
			<path class="st2" d="M1346.27,777.31L1346.27,777.31c-0.07,0-0.12-0.03-0.18-0.04c-3.45-0.22-7.27-0.43-11.39-0.64
				c-0.03,0-0.05,0.01-0.07,0.01c-0.03,0-0.06-0.02-0.09-0.02c-4.68-0.24-9.75-0.48-15.12-0.72c0,0-0.02,0.01-0.03,0.01h-0.01
				c-0.01,0-0.03-0.01-0.04-0.01c-7-0.31-14.51-0.6-22.33-0.89l-0.01,0h-0.01l-0.01,0c-8.52-0.31-17.41-0.6-26.42-0.88l0,0l0,0
				c-13.9-0.42-28.07-0.78-41.57-1.07c-0.03,0-0.05,0.02-0.08,0.02h-0.01c-0.04,0-0.06-0.02-0.1-0.02
				c-11.21-0.24-21.95-0.43-31.69-0.54l-0.01,0h0l-0.01,0c-6.29-0.08-12.16-0.13-17.46-0.14l-14.32-0.05l0,0h-0.01l0,0l-32.7-0.1
				l0,0l0,0l-42.54-0.13l-0.01,0h-0.01c0,0,0,0,0,0l-33.13-0.11l-0.01,0l-0.01,0l-5.36-0.02l-0.01,0l-0.01,0l-7.16-0.02l0,0h-0.01
				l0,0l-6.71-0.02l0,0l0,0l-5.82-0.02l0,0h-0.01l0,0l-32.24-0.1l0,0c0,0,0,0-0.01,0l0,0l-6.71-0.02l0,0c0,0,0,0-0.01,0l0,0
				l-2.72-0.01l-0.47,16.1l86.99,0.28l2.77-5.19c0.24-0.44,0.69-0.71,1.19-0.71h0.01l36.73,0.12c0.48,0,0.93,0.26,1.17,0.68
				l2.96,5.24l62.38,0.2l0.02-8.04c0-0.36,0.14-0.7,0.4-0.95c0.25-0.25,0.59-0.39,0.95-0.39h0.01l37.85,0.12
				c0.35,0,0.7,0.14,0.95,0.4c0.25,0.25,0.39,0.6,0.39,0.95l-0.03,8.04l72.58,0.23c25.03,0.08,32.49,3.03,34.7,4.65
				c15.56-5.37,30.62-11.56,33.44-14.44c-2.54-0.57-9.23-1.17-18.74-1.76C1346.33,777.29,1346.3,777.31,1346.27,777.31z"/>
			
				<rect x="1015.94" y="799.53" transform="matrix(3.043776e-03 -1 1 3.043776e-03 215.2145 1818.5178)" class="st1" width="7.39" height="3.58"/>
			<path class="st1" d="M1324.7,798.59L1324.7,798.59L1324.7,798.59l-5.17-0.02c-3.77,1.18-64.16,19.85-96.76,19.85
				c-0.09,0-0.18,0-0.27,0l-255.33-0.81l-0.04,13.44l360.82,1.14l0.05,1.34v-1.34c9.23,0,16.77-7.51,16.8-16.74
				c0.03-9.26-7.48-16.82-16.75-16.85L1324.7,798.59z"/>
			
				<rect x="1002.95" y="799.49" transform="matrix(3.043529e-03 -1 1 3.043529e-03 202.3049 1805.4869)" class="st1" width="7.39" height="3.58"/>
			<path class="st2" d="M1222.78,815.74c25.7,0,69.12-11.83,87.51-17.19l-76.96-0.24l-0.03,8.73c0,0.36-0.14,0.7-0.4,0.95
				c-0.25,0.25-0.59,0.39-0.95,0.39c0,0,0,0-0.01,0l-6.27-0.02c-0.74,0-1.34-0.61-1.34-1.35l0.03-8.74l-4.03-0.01l-0.03,8.73
				c0,0.36-0.14,0.7-0.4,0.95c-0.25,0.25-0.59,0.39-0.95,0.39h0l-6.28-0.02c-0.35,0-0.7-0.14-0.95-0.4
				c-0.25-0.25-0.39-0.6-0.39-0.95l0.03-8.74l-187.24-0.59l-0.03,8.74c0,0.36-0.14,0.7-0.4,0.95c-0.25,0.25-0.59,0.39-0.95,0.39
				h-0.01l-6.27-0.02c-0.74,0-1.34-0.61-1.34-1.35l0.03-8.74l-4.03-0.01l-0.03,8.74c0,0.36-0.14,0.7-0.4,0.95
				c-0.25,0.25-0.59,0.39-0.95,0.39h-0.01l-6.27-0.02c-0.35,0-0.7-0.14-0.95-0.4c-0.25-0.25-0.39-0.6-0.39-0.95l0.03-8.74
				l-13.59-0.04l-19.27,17.41l253.2,0.8C1222.6,815.74,1222.69,815.74,1222.78,815.74z"/>
			
				<rect x="1146.85" y="752.46" transform="matrix(2.796764e-03 -1 1 2.796764e-03 378.3016 1914.2904)" class="st1" width="4.26" height="30.01"/>
			<path class="st1" d="M1206.58,756.79L1206.58,756.79L1206.58,756.79l-8.07-0.03l-0.04,13.09c8.97,0.11,18.81,0.28,29.11,0.5
				l0.04-13.5L1206.58,756.79L1206.58,756.79z"/>
			
				<rect x="1105.34" y="680.11" transform="matrix(3.170448e-03 -1 1 3.170448e-03 421.4886 1794.2374)" class="st2" width="10.75" height="11.2"/>
			<path class="st1" d="M1276.88,764.17l-4.92-0.02l-0.02,7.34c1.64,0.05,3.28,0.1,4.92,0.15L1276.88,764.17z"/>
			<polygon class="st2" points="1207.92,754.1 1217.78,754.13 1217.81,743.83 1209.76,743.8 1209.75,743.8 1209.75,743.8 
				1209.75,743.8 1207.96,743.8 			"/>
			<path class="st1" d="M1318.08,765.87l-19.7-0.06l-0.02,6.57c7.29,0.27,13.85,0.53,19.69,0.77L1318.08,765.87z"/>
			<path class="st1" d="M1344.95,769.38l-8.94-0.03l-0.01,4.65c3.32,0.18,6.28,0.35,8.94,0.51L1344.95,769.38z"/>
			<path class="st1" d="M1105.39,738.1l-0.01,4.48l67.19,0.21l0.01-4.48c0-0.36,0.14-0.7,0.4-0.95c0.25-0.25,0.65-0.36,0.95-0.39
				l15.68,0.05l0.07-21.5l-66.75-0.21c-0.35,0-0.7-0.14-0.95-0.4c-0.25-0.25-0.39-0.6-0.39-0.95l0.06-20.16l-17.91-0.06l0,0h0l0,0
				l-12.3-0.04l-7.3,42.98l19.92,0.06C1104.8,736.75,1105.4,737.36,1105.39,738.1z M1166.82,721.72c0-0.74,0.64-1.44,1.35-1.34
				l17.25,0.05c0.35,0,0.7,0.14,0.95,0.4c0.25,0.25,0.39,0.6,0.39,0.95l-0.02,5.82c0,0.36-0.14,0.7-0.4,0.95
				c-0.25,0.25-0.59,0.39-0.95,0.39h-0.01l-17.25-0.06c-0.74,0-1.34-0.61-1.34-1.35L1166.82,721.72z M1142.4,721.64
				c0-0.36,0.14-0.7,0.4-0.95c0.25-0.25,0.49-0.46,0.95-0.39l17.25,0.06c0.74,0,1.34,0.61,1.34,1.35l-0.02,5.82
				c0,0.36-0.14,0.7-0.4,0.95c-0.25,0.25-0.59,0.39-0.95,0.39h-0.01l-17.25-0.06c-0.74,0-1.34-0.61-1.34-1.35L1142.4,721.64z
				 M1105.9,721.53c0-0.36,0.14-0.7,0.4-0.95c0.25-0.25,0.59-0.35,0.95-0.39l27.32,0.09c0.74,0,1.34,0.61,1.34,1.35l-0.02,5.82
				c0,0.36-0.14,0.7-0.4,0.95c-0.25,0.25-0.59,0.39-0.95,0.39h-0.01l-27.32-0.09c-0.74,0-1.34-0.61-1.34-1.35L1105.9,721.53z"/>
			<path class="st1" d="M1091.43,762.24l-0.02,7.17l39.87,0.13l0.02-5.6c0-0.75,0.51-1.32,1.35-1.34l32.7,0.1
				c0.74,0,1.34,0.61,1.34,1.35l-0.02,5.6l12.99,0.04c4.89,0.02,10.33,0.06,16.13,0.13l0.05-14.41c0-0.36,0.14-0.7,0.4-0.95
				c0.25-0.25,0.61-0.32,0.95-0.39l8.06,0.03l0.04-11.65c0-0.74,0.6-1.34,1.34-1.34h0.01l1.79,0.01l0-1.34l-33.15-0.11l-0.01,4.48
				c0,0.36-0.14,0.7-0.4,0.95c-0.25,0.25-0.51,0.3-0.95,0.39l-69.88-0.22c-0.74,0-1.34-0.61-1.34-1.35l0.01-4.48l-19.06-0.06
				l-4.45,21.49l10.9,0.03C1090.83,760.9,1091.43,761.5,1091.43,762.24z"/>
			<polygon class="st1" points="1021.7,714.99 1001.1,714.92 1001.05,731.05 1001.05,731.05 1001.03,736.67 1000.95,760.61 
				1021.56,760.68 			"/>
			<polygon class="st1" points="1088.74,763.58 1077.55,763.54 1077.55,763.54 1077.55,763.54 1058.28,763.48 1058.26,769.31 
				1088.72,769.4 			"/>
			
				<rect x="1119.32" y="712.17" transform="matrix(3.194587e-03 -1 1 3.194587e-03 392.8301 1843.0573)" class="st2" width="3.14" height="24.64"/>
			
				<rect x="1175.21" y="717.38" transform="matrix(3.152630e-03 -1 1 3.152630e-03 448.4049 1899.1447)" class="st2" width="3.14" height="14.56"/>
			
				<rect x="1150.79" y="717.31" transform="matrix(3.248788e-03 -1 1 3.248788e-03 424.0363 1874.5858)" class="st2" width="3.14" height="14.56"/>
		</g>
		<g>
			<polygon class="st1" points="361.62,128.66 360.68,137.13 365.7,132.49 			"/>
			<polygon class="st1" points="372.84,191.73 372.85,189.16 366.82,185.77 355.9,192.94 367.53,197.17 372.83,195.36 			"/>
			<polygon class="st1" points="367.05,157.64 374.15,151.59 367.24,146.64 359.84,151.73 			"/>
			<polygon class="st1" points="367.28,170.81 375.02,167.17 367.08,160.66 359.52,167.1 			"/>
			<path class="st1" d="M375.16,188.49L375.16,188.49l-0.02,7.71c0,0,0,0,0,0l-0.02,6.35l10.98,0.04l0.02-8.09
				c0-0.64,0.52-1.15,1.16-1.15c0,0,0,0,0,0l19.07,0.06l0.03-9.24l-13.48-0.04l-17.72-0.06L375.16,188.49z"/>
			<polygon class="st1" points="359.09,202.5 372.8,202.54 372.81,201.55 367.51,199.62 			"/>
			<path class="st1" d="M372.86,186.51l0.01-3.62c0-0.31,0.12-0.6,0.34-0.82c0.22-0.22,0.48-0.29,0.82-0.34l3.02,0.01l-0.19-2.57
				l-7.87,5.16L372.86,186.51z"/>
			<polygon class="st1" points="372.82,197.81 370.99,198.43 372.82,199.1 			"/>
			<polygon class="st1" points="367.4,134.07 361.4,139.61 367.27,143.81 373.34,139.63 			"/>
			<path class="st2" d="M365.37,114.5c0.41,0.18,0.69,0.59,0.69,1.06l-0.03,9.53l0.62,0l1.2,0l0.03-9.53c0-0.31,0.12-0.6,0.34-0.82
				c0.1-0.1,0.22-0.18,0.36-0.24c-0.41-0.18-0.69-0.59-0.69-1.06l0.02-7.99c0-0.31,0.12-0.6,0.34-0.82c0.1-0.1,0.23-0.18,0.36-0.24
				c-0.13-0.06-0.25-0.14-0.35-0.24c-0.22-0.22-0.34-0.51-0.34-0.82l0-1.54l-1.82-0.01l0,1.54c0,0.31-0.12,0.6-0.34,0.82
				c-0.1,0.1-0.22,0.18-0.36,0.24c0.13,0.06,0.25,0.14,0.35,0.24c0.22,0.22,0.34,0.51,0.34,0.82l-0.03,7.99
				C366.06,113.92,365.78,114.32,365.37,114.5z"/>
			<polygon class="st1" points="371.18,127.42 366.49,127.41 364.86,127.4 364.86,127.4 363.65,127.4 367.41,130.91 			"/>
			<polygon class="st1" points="373.81,136.91 373.22,128.69 369.1,132.5 			"/>
			<polygon class="st1" points="374.69,149.14 374.17,141.87 369.26,145.24 			"/>
			<polygon class="st1" points="366.72,183.07 375.52,177.3 367.27,173.37 357.56,177.93 			"/>
			<polygon class="st1" points="376.58,175.24 376.14,169.2 369.98,172.1 			"/>
			<polygon class="st1" points="375.83,164.84 375.03,153.88 368.87,159.13 			"/>
			
				<rect x="460.03" y="152.93" transform="matrix(3.217420e-03 -1 1 3.217420e-03 307.5211 616.2987)" class="st1" width="5.75" height="1.93"/>
			
				<rect x="462.25" y="147.07" transform="matrix(3.217253e-03 -1 1 3.217253e-03 313.4007 610.4742)" class="st1" width="1.35" height="1.93"/>
			
				<rect x="462.21" y="158.79" transform="matrix(3.218255e-03 -1 1 3.218255e-03 301.6415 622.1223)" class="st1" width="1.35" height="1.93"/>
			
				<rect x="466.74" y="158.52" transform="matrix(3.197554e-03 -1 1 3.197554e-03 306.1483 626.6664)" class="st1" width="1.35" height="2.5"/>
			
				<rect x="466.77" y="146.79" transform="matrix(3.236100e-03 -1 1 3.236100e-03 317.8898 615.0131)" class="st1" width="1.35" height="2.5"/>
			
				<rect x="458.42" y="166.22" transform="matrix(3.219592e-03 -1 1 3.219592e-03 294.1893 629.5029)" class="st1" width="8.89" height="1.93"/>
			
				<rect x="462.16" y="143.31" transform="matrix(2.957185e-03 -1 1 2.957185e-03 317.2883 606.7802)" class="st1" width="1.54" height="1.93"/>
			
				<rect x="457.72" y="146.77" transform="matrix(3.196148e-03 -1 1 3.196148e-03 308.9144 605.9377)" class="st1" width="1.35" height="2.5"/>
			
				<rect x="427.52" y="164.41" transform="matrix(3.452681e-03 -1 1 3.452681e-03 267.5795 600.6027)" class="st2" width="15.22" height="3.27"/>
			
				<rect x="417.02" y="164.38" transform="matrix(3.450467e-03 -1 1 3.450467e-03 257.1533 590.0729)" class="st2" width="15.22" height="3.27"/>
			<polygon class="st1" points="449.54,176.01 448.39,176.01 448.39,176.01 448.39,176.01 448.39,176.01 427.4,175.94 427.4,175.94 
				427.4,175.94 420.65,175.92 420.6,193.45 449.49,193.54 			"/>
			
				<rect x="438.02" y="164.44" transform="matrix(3.450361e-03 -1 1 3.450361e-03 278.0077 611.1321)" class="st2" width="15.22" height="3.27"/>
			
				<rect x="457.68" y="158.49" transform="matrix(3.193214e-03 -1 1 3.193214e-03 297.1561 617.5858)" class="st1" width="1.35" height="2.5"/>
			
				<rect x="390.99" y="174.5" transform="matrix(3.186577e-03 -1 1 3.186577e-03 218.3144 572.241)" class="st2" width="10.4" height="4.24"/>
			<path class="st1" d="M363.41,221.39l-37.28-0.12c-0.64,0-1.15-0.52-1.15-1.16l0.01-4.62l-53.54-0.17l-80.51-0.26l-0.03,8.09
				l172.48,0.55L363.41,221.39z"/>
			<path class="st2" d="M606.49,216.09c-0.27-0.3-6.58-7.26-15.77-4.81c-3.17,0.84-4.95,2.53-5.17,4.89
				c-0.28,3.05,2.16,6.87,5.31,8.36c0.49,0.23,0.75,0.77,0.63,1.3c-0.12,0.53-0.59,0.9-1.13,0.9c0,0,0,0,0,0l-197.6-0.63l0,0
				c0,0,0,0,0,0c0,0,0,0,0,0l-28.2-0.09c0,0,0,0,0,0c0,0,0,0,0,0l-174.79-0.55c0,0,0,0,0,0c0,0,0,0,0,0c0,0,0,0,0,0l-39.28-0.12
				c0,0,0,0-0.01,0c0,0,0,0,0,0l-11.56-0.04c0,0,0,0,0,0l-17.33-0.05l-0.03,11.56c0,0.31-0.12,0.6-0.34,0.82
				c-0.22,0.22-0.45,0.35-0.82,0.34l-8.85-0.03c0,0,0,0,0,0c0,0,0,0,0,0l-12.23-0.04l-10.1-0.03c0,0,0,0,0,0c0,0,0,0,0,0l-8.86-0.03
				c0,0,0,0,0,0l-7.31-0.02l0,0c0,0,0,0,0,0l-8.86-0.03c0,0,0,0,0,0l-1.3,0l2.23,12.33l614.06,1.94l31.2-35.24l-102.99-0.33
				C607.02,216.48,606.71,216.33,606.49,216.09z"/>
			<path class="st1" d="M65.23,261.07L71,277.13l8.27,0.03l3.71-16.84c0.12-0.53,0.59-0.91,1.13-0.91c0,0,0,0,0,0l17.5,0.06
				c0.3,0,0.6,0.12,0.81,0.34c0.22,0.22,0.34,0.51,0.34,0.82l-0.03,8.48c0,0.64-0.52,1.15-1.16,1.15c0,0,0,0,0,0l-6.33-0.02
				l-0.01,3.85l122.11,0.39c15.28,0.05,25.66,2.8,27.11,3.21l365.78,1.16c9.76,0.03,33.71,9.76,36.4,10.86l30.19,0.09
				c-3.1-3.46-8.85-10.85-8.6-17.78c0.25-6.89,5.84-14.23,8.8-17.65l-611.78-1.94L65.23,261.07z M109.52,262.76
				c0-0.32,0.13-0.62,0.36-0.84c0.23-0.22,0.52-0.33,0.86-0.31c0,0,15.21,0.82,28.88,1.44c13.65,0.62,30.51,5.48,30.68,5.53
				c0.55,0.16,0.9,0.7,0.82,1.27c-0.08,0.57-0.57,0.99-1.14,0.99c0,0,0,0,0,0l-59.32-0.19c-0.64,0-1.15-0.52-1.15-1.16
				L109.52,262.76z"/>
			<polygon class="st1" points="88.04,235.54 88.08,220.52 81.54,220.49 81.49,235.52 83.09,235.52 			"/>
			<polygon class="st1" points="110.38,235.61 110.41,226.75 97.69,226.71 97.67,235.57 102.49,235.58 			"/>
			
				<rect x="61.1" y="224.69" transform="matrix(3.268256e-03 -1 1 3.268256e-03 -159.5808 295.8285)" class="st1" width="15.02" height="6.55"/>
			<polygon class="st2" points="294.58,167.24 294.6,158.32 293.01,158.31 292.99,167.24 294.17,167.24 			"/>
			<polygon class="st2" points="310.08,152.27 309.93,152.27 309.9,162.15 310.05,162.15 			"/>
			<polygon class="st1" points="354.33,194.82 353.54,201.95 364.05,198.36 			"/>
			<path class="st1" d="M336.28,178.93l-7.7-0.02c-0.3,0-0.6-0.12-0.81-0.34c-0.22-0.22-0.34-0.51-0.34-0.82l0.02-6.55l-12.33-0.04
				c-0.3,0-0.6-0.12-0.81-0.34c-0.22-0.22-0.34-0.51-0.34-0.82l0.02-5.39l-7.7-0.02l-0.01,3.85c0,0.64-0.52,1.15-1.16,1.15
				c0,0,0,0,0,0l-9.38-0.03l0,0c0,0,0,0,0,0l-3.9-0.01l-7.9-0.02l-0.03,11.17c0,0.31-0.12,0.6-0.34,0.82
				c-0.22,0.22-0.42,0.28-0.82,0.34l-3.47-0.01l-0.03,8.86l57.01,0.18L336.28,178.93z"/>
			<polygon class="st1" points="358.84,153.89 357.53,165.76 365.27,159.17 			"/>
			
				<rect x="348.2" y="196.58" transform="matrix(3.181199e-03 -1 1 3.181199e-03 135.4056 562.3135)" class="st1" width="3.11" height="33.32"/>
			<polygon class="st1" points="355.99,179.7 354.76,190.92 364.55,184.5 			"/>
			<polygon class="st1" points="357.22,168.57 356.41,175.91 364.58,172.08 			"/>
			<polygon class="st1" points="360.19,141.58 359.35,149.26 365.24,145.2 			"/>
			
				<rect x="219.44" y="178.92" transform="matrix(3.182554e-03 -1 1 3.182554e-03 11.3387 431.62)" class="st2" width="5.46" height="62.4"/>
			<path class="st1" d="M139.76,215.34c0.22,0.22,0.34,0.51,0.34,0.82l-0.02,6.83l0.87,0l8.37,0.03l0.02-6.83
				c0-0.64,0.52-1.15,1.16-1.15c0,0,0,0,0,0l9.63,0.03l0-1.64l-9.63-0.03c-0.3,0-0.6-0.12-0.81-0.34c-0.22-0.22-0.34-0.51-0.34-0.82
				l0.01-2.88l-9.24-0.03l-0.01,2.88c0,0.64-0.52,1.15-1.16,1.15c0,0,0,0,0,0l-8.86-0.03l0,1.64l8.86,0.03
				C139.25,215,139.55,215.13,139.76,215.34z"/>
			
				<rect x="307.01" y="200.51" transform="matrix(3.095106e-03 -1 1 3.095106e-03 96.1927 519.4763)" class="st1" width="3.26" height="21.96"/>
			<path class="st2" d="M295.36,208.66c0-0.64,0.46-1.23,1.16-1.15l24.27,0.08c0.3,0,0.6,0.12,0.81,0.34
				c0.22,0.22,0.34,0.51,0.34,0.82l-0.01,4.42l4.24,0.01c0.64,0,1.15,0.52,1.15,1.16l-0.01,4.62l37.28,0.12
				c0.3,0,0.6,0.12,0.81,0.34c0.22,0.22,0.34,0.51,0.34,0.82l-0.01,3.47l25.89,0.08l0.05-16.18c0-0.31,0.12-0.6,0.34-0.82
				c0.22-0.22,0.41-0.29,0.82-0.34l55.47,0.18c0.64,0,1.15,0.52,1.15,1.16l-0.05,16.18l6.55,0.02l0.05-16.18
				c0-0.64,0.52-1.15,1.16-1.15c0,0,0,0,0,0l56.24,0.18l0.01-3.85l-3.97-20.43l-4.83-0.01c-0.3,0-0.6-0.12-0.81-0.34
				c-0.22-0.22-0.34-0.51-0.34-0.82l0.02-7.32l-38.51-0.12c0,0,0,0,0,0c0,0,0,0,0,0l0,0l-4.23-0.01l0,0c0,0,0,0,0,0l-3.47-0.01
				l-0.07,20.8c0,0.64-0.52,1.15-1.16,1.15c0,0,0,0,0,0l-5.39-0.02l0,0c0,0,0,0,0,0l0,0l-43.14-0.14c0,0,0,0,0,0c0,0,0,0,0,0
				c0,0,0,0,0,0l-19.07-0.06l-0.02,8.09c0,0.64-0.6,1.14-1.16,1.15l-13.28-0.04l0,0c0,0,0,0,0,0l0,0l-21.75-0.07c0,0,0,0,0,0l0,0
				l0,0l0,0c0,0,0,0-0.01,0l-5.2-0.02c-0.64,0-1.15-0.52-1.15-1.16l0.03-10.4l-73.19-0.23l-0.06,20.03l22.73,0.07L295.36,208.66z
				 M330.79,210.47c0-0.64,0.52-1.15,1.16-1.15c0,0,0,0,0,0l35.63,0.11c0.3,0,0.6,0.12,0.81,0.34c0.22,0.22,0.34,0.51,0.34,0.82
				l-0.02,5.42c0,0.64-0.52,1.15-1.16,1.15c0,0,0,0,0,0l-35.63-0.11c-0.3,0-0.6-0.12-0.81-0.34c-0.22-0.22-0.34-0.51-0.34-0.82
				L330.79,210.47z M294.8,203.45c0,0.31-0.12,0.6-0.34,0.82c-0.22,0.22-0.51,0.34-0.81,0.34c0,0,0,0,0,0l-5.97-0.02
				c-0.64,0-1.15-0.52-1.15-1.16l0.02-5.01c0-0.64,0.52-1.15,1.16-1.15c0,0,0,0,0,0l5.97,0.02c0.3,0,0.6,0.12,0.81,0.34
				c0.22,0.22,0.34,0.51,0.34,0.82L294.8,203.45z"/>
			
				<rect x="413.01" y="189.79" transform="matrix(3.075290e-03 -1 1 3.075290e-03 202.8656 636.2251)" class="st1" width="15.02" height="53.16"/>
			
				<rect x="289.32" y="199.1" transform="matrix(3.389348e-03 -1 1 3.389348e-03 88.7472 490.9165)" class="st1" width="2.7" height="3.66"/>
			
				<rect x="478.3" y="189.03" transform="matrix(3.274961e-03 -1 1 3.274961e-03 267.6527 701.6785)" class="st1" width="15.02" height="55.08"/>
		</g>
		<g>
			
				<rect x="876.22" y="242.5" transform="matrix(3.156518e-03 -1 1 3.156518e-03 628.6322 1125.4424)" class="st2" width="5.2" height="9.82"/>
			
				<rect x="739.28" y="245.34" transform="matrix(3.174587e-03 -1 1 3.174587e-03 492.5545 986.4338)" class="st2" width="3.56" height="1.64"/>
			
				<rect x="864.08" y="242.46" transform="matrix(3.156004e-03 -1 1 3.156004e-03 616.576 1113.2712)" class="st2" width="5.2" height="9.82"/>
			
				<rect x="839.82" y="242.38" transform="matrix(3.166184e-03 -1 1 3.166184e-03 592.4534 1088.9246)" class="st2" width="5.2" height="9.82"/>
			<path class="st1" d="M745.57,267.81l0,0.56l7.51,0.02c0.54,0,1.02,0.38,1.13,0.92l1.83,8.79l7.12,1.36l0.03-9.01
				c0-0.31,0.13-0.61,0.35-0.82c0.23-0.22,0.52-0.29,0.83-0.33l18.06,0.43c0.63,0.02,1.13,0.53,1.13,1.16l-0.01,2.3
				c0,0.31-0.13,0.6-0.35,0.82c-0.22,0.22-0.43,0.39-0.83,0.33l-6.2-0.08l0,1.71c4.75-0.02,23.31-0.08,42.72-0.08
				c28.9,0,45.84,0.13,50.37,0.38c6.1,0.34,9.57,1.7,12.63,2.9c2.44,0.95,4.54,1.78,7.52,1.79c6.93,0.02,299.3,0.95,299.3,0.95
				c0.13,0,0.26,0.02,0.39,0.07c0.16,0.06,16.06,5.76,23.28,5.78l24.45,0.08c-1.8-3.38-2.97-8.37-3.41-10.43L745.57,267.81z
				 M834.07,273.04l-2.32,1.73c-0.2,0.15-0.44,0.23-0.69,0.23c0,0-0.01,0-0.02,0l-43.7-0.59c-0.63-0.01-1.14-0.53-1.14-1.16
				l0.01-2.24c0-0.31,0.13-0.61,0.35-0.82c0.23-0.22,0.51-0.31,0.83-0.33l46,1.11c0.49,0.01,0.93,0.34,1.07,0.8
				C834.63,272.23,834.47,272.74,834.07,273.04z"/>
			
				<rect x="828.4" y="243.07" transform="matrix(3.163408e-03 -1 1 3.163408e-03 581.1164 1077.4778)" class="st2" width="5.2" height="8.38"/>
			<polygon class="st2" points="745.28,265.49 1233.64,275.1 1239.89,262.23 743.97,261.19 			"/>
			
				<rect x="851.95" y="242.42" transform="matrix(3.176300e-03 -1 1 3.176300e-03 604.5016 1101.094)" class="st2" width="5.2" height="9.82"/>
			
				<rect x="936.88" y="242.69" transform="matrix(3.176397e-03 -1 1 3.176397e-03 688.8982 1186.2969)" class="st2" width="5.2" height="9.82"/>
			
				<rect x="949.57" y="242.18" transform="matrix(3.165207e-03 -1 1 3.165207e-03 701.5163 1199.0277)" class="st2" width="5.2" height="10.93"/>
			
				<rect x="924.75" y="242.65" transform="matrix(3.145823e-03 -1 1 3.145823e-03 676.8698 1174.1327)" class="st2" width="5.2" height="9.82"/>
			
				<rect x="900.48" y="242.58" transform="matrix(3.176300e-03 -1 1 3.176300e-03 652.7279 1149.7809)" class="st2" width="5.2" height="9.82"/>
			
				<rect x="888.35" y="242.54" transform="matrix(3.176300e-03 -1 1 3.176300e-03 640.671 1137.609)" class="st2" width="5.2" height="9.82"/>
			
				<rect x="912.62" y="242.62" transform="matrix(3.156036e-03 -1 1 3.156036e-03 664.8032 1161.958)" class="st2" width="5.2" height="9.82"/>
			
				<rect x="989.52" y="189.91" transform="matrix(3.154721e-03 -1 1 3.154721e-03 781.5331 1196.7646)" class="st2" width="3.03" height="32.93"/>
			<path class="st1" d="M929.58,214.06c0-0.31,0.12-0.6,0.34-0.82c0.22-0.22,0.45-0.35,0.82-0.34l32.84,0.1
				c0.3,0,0.6,0.12,0.81,0.34c0.22,0.22,0.34,0.51,0.34,0.82l-0.02,6.21l59.91,0.19l-4.03-9.88l-4.62-0.01
				c-0.57,0-1.05-0.42-1.14-0.98l-1.74-10.97l-9.99-0.03l0,0c0,0,0,0,0,0l0,0l-34.47-0.11c-0.43,0-0.83-0.24-1.02-0.63l-12.83-24.89
				c-0.19-0.36-0.17-0.79,0.04-1.13c0.21-0.35,0.68-0.63,0.99-0.55l4.24,0.01l0-0.96l-19.55-0.06c0,0,0,0,0,0l-14.73-0.05l0,0
				c0,0,0,0,0,0l0,0l-13.38-0.04l0,0h0l0,0l-10.44-0.03c0,0,0,0,0,0c0,0,0,0,0,0c0,0,0,0,0,0l-13.38-0.04c0,0,0,0,0,0c0,0,0,0,0,0
				l0,0l-8.42-0.03l0,1.73l5.01,0.02c0.42,0,0.81,0.23,1.01,0.6c0.2,0.37,0.19,0.82-0.04,1.18l-29.64,46.33l73.11,0.23
				L929.58,214.06z M972.27,203.65c0-0.31,0.12-0.6,0.34-0.82c0.22-0.22,0.42-0.37,0.82-0.34l35.25,0.11c0.64,0,1.15,0.52,1.15,1.16
				l-0.02,5.34c0,0.31-0.12,0.6-0.34,0.82c-0.22,0.22-0.51,0.34-0.81,0.34c0,0,0,0,0,0l-35.25-0.11c-0.64,0-1.15-0.52-1.15-1.16
				L972.27,203.65z M896.28,206.44c0,0.64-0.52,1.15-1.16,1.15c0,0,0,0,0,0l-22.53-0.07c-0.3,0-0.6-0.12-0.81-0.34
				c-0.22-0.22-0.34-0.51-0.34-0.82l0.02-6.07c0-0.64,0.52-1.15,1.16-1.15c0,0,0,0,0,0l22.53,0.07c0.3,0,0.6,0.12,0.81,0.34
				c0.22,0.22,0.34,0.51,0.34,0.82L896.28,206.44z M915.61,214.01c0,0.64-0.52,1.15-1.16,1.15c0,0,0,0,0,0l-12.66-0.04
				c-0.3,0-0.6-0.12-0.81-0.34c-0.22-0.22-0.34-0.51-0.34-0.82l0.02-6.36c0-0.64,0.52-1.15,1.16-1.15c0,0,0,0,0,0l12.66,0.04
				c0.3,0,0.6,0.12,0.81,0.34c0.22,0.22,0.34,0.51,0.34,0.82L915.61,214.01z M919.96,208.83l0.02-5.34c0-0.31,0.12-0.6,0.34-0.82
				c0.22-0.22,0.53-0.36,0.82-0.34l19.26,0.06c0.3,0,0.6,0.12,0.81,0.34c0.22,0.22,0.34,0.51,0.34,0.82l-0.02,5.34
				c0,0.64-0.52,1.15-1.16,1.15h0l-19.26-0.06C920.48,209.99,919.96,209.47,919.96,208.83z"/>
			
				<rect x="906.11" y="205.64" transform="matrix(3.158398e-03 -1 1 3.158398e-03 694.4552 1118.2787)" class="st2" width="4.04" height="10.35"/>
			<polygon class="st2" points="921.85,160.68 921.87,153.17 916.38,153.16 916.36,160.67 919.01,160.68 			"/>
			
				<rect x="881.99" y="193.26" transform="matrix(3.179532e-03 -1 1 3.179532e-03 677.6882 1086.5856)" class="st2" width="3.76" height="20.22"/>
			
				<rect x="758.59" y="230.04" transform="matrix(3.161607e-03 -1 1 3.161607e-03 511.7499 1005.8058)" class="st2" width="3.56" height="32.36"/>
			
				<rect x="892.75" y="159.88" transform="matrix(3.160797e-03 -1 1 3.160797e-03 727.0099 1060.1415)" class="st2" width="5.01" height="11.07"/>
			<path class="st1" d="M1172.96,240.8c-0.22,0.26-0.54,0.41-0.88,0.41h-0.01l-5.91-0.05l0,0l0,0l-78.86-0.68l0,0l0,0l-18.05-0.16
				l0,0h-0.01l0,0l-244.83-2.12l0,0c0,0,0,0,0,0l0,0l-3.61-0.03l-16.29,12.04c-0.2,0.15-0.44,0.23-0.69,0.23c0,0,0,0,0,0
				l-60.76-0.19l0,0c0,0,0,0,0,0c0,0,0,0,0,0l-2.38-0.01l2.63,8.63l497.97,1.04l25.15-26.39l-89.89,3.06L1172.96,240.8z
				 M959.94,251.42c0,0.64-0.52,1.15-1.16,1.15c0,0,0,0,0,0l-13.24-0.04l0,0c0,0,0,0,0,0l0,0l-12.13-0.04l0,0h0l0,0l-12.13-0.04l0,0
				c0,0,0,0,0,0l0,0l-12.13-0.04l0,0h0l0,0L897,252.38l0,0c0,0,0,0,0,0l0,0l-12.13-0.04l0,0c0,0,0,0,0,0c0,0,0,0,0,0l-12.13-0.04
				c0,0,0,0,0,0l0,0l-12.13-0.04c0,0,0,0,0,0l-12.13-0.04c0,0,0,0,0,0l-12.13-0.04c0,0,0,0,0,0l-10.69-0.03
				c-0.64,0-1.15-0.52-1.15-1.16l0.02-7.51c0-0.31,0.12-0.6,0.34-0.82c0.22-0.22,0.53-0.3,0.82-0.34l133.14,0.42
				c0.3,0,0.6,0.12,0.81,0.34c0.22,0.22,0.34,0.51,0.34,0.82L959.94,251.42z"/>
			<polygon class="st2" points="924.63,163 919.07,162.99 915.2,162.98 915.19,162.97 913.56,162.97 913.54,167.98 924.62,168.01 
							"/>
			
				<rect x="784.81" y="238.57" transform="matrix(3.157436e-03 -1 1 3.157436e-03 537.8049 1032.1073)" class="st2" width="3.56" height="15.46"/>
			<polygon class="st2" points="937.98,220.3 962.39,220.37 962.41,215.32 931.88,215.22 931.87,220.28 			"/>
			
				<rect x="759.59" y="225.15" transform="matrix(3.173969e-03 -1 1 3.173969e-03 516.643 1000.9466)" class="st2" width="1.59" height="32.36"/>
			<polygon class="st2" points="808.21,244.59 796.63,244.55 796.62,248.11 803.41,248.14 			"/>
			<polygon class="st2" points="813.69,240.54 813.73,229 804.09,228.97 796.66,236.22 796.64,242.24 811.33,242.29 			"/>
			<path class="st2" d="M1068.09,233.29l-5.84-10.43l-8.71-0.03c-0.64,0-1.15-0.52-1.15-1.16l0.02-5.06c0-0.31,0.12-0.6,0.34-0.82
				c0.22-0.22,0.41-0.29,0.82-0.34l2.6,0.01l0.01-2.46l-7.94-0.03l-0.01,2.46l2.02,0.01c0.64,0,1.15,0.52,1.15,1.16l-0.02,5.2
				c0,0.31-0.12,0.6-0.34,0.82c-0.22,0.22-0.51,0.34-0.81,0.34h0l-86.67-0.27h0l-32.84-0.1l0,0l-90.52-0.29
				c-0.64,0-1.15-0.52-1.15-1.16l0.02-6.93l-3.03-0.01l-0.02,6.93c0,0.29-0.11,0.56-0.3,0.77l-10.14,11.19l-0.01,2.81l242.53,2.1
				L1068.09,233.29z"/>
			
				<rect x="929.24" y="197.72" transform="matrix(3.197982e-03 -1 1 3.197982e-03 721.5903 1136.2823)" class="st2" width="3.03" height="16.95"/>
			
				<rect x="944.7" y="160.04" transform="matrix(3.160141e-03 -1 1 3.160141e-03 778.6349 1112.259)" class="st2" width="5.01" height="11.07"/>
			
				<rect x="995.8" y="190.2" transform="matrix(3.282475e-03 -1 1 3.282475e-03 801.9335 1191.5244)" class="st2" width="5.78" height="6.55"/>
			<polygon class="st2" points="1134.27,226.9 1119.97,226.85 1119.93,238.45 1134.23,238.57 			"/>
			<path class="st2" d="M1175.06,234.7c0.21-0.25,0.52-0.4,0.85-0.41l2.83-0.1l0.01-3.46l-11.41-0.04l-0.03,8.16l4.23,0.04
				L1175.06,234.7z"/>
			<path class="st2" d="M1097.81,227.94c-0.15-0.36-0.12-0.77,0.1-1.09c0.21-0.32,0.58-0.52,0.96-0.52h0l4.77,0.02l0.01-4.37
				l-4.55-5.22l-4.2-0.01l-4.83,4.8l-0.01,4.29l4.04,0.01c0.41,0,0.79,0.22,0.99,0.57c0.21,0.35,0.21,0.79,0.01,1.14l-5.89,10.62
				l12.99,0.11L1097.81,227.94z"/>
		</g>
		<g>
			
				<rect x="1057.91" y="439.18" transform="matrix(3.362572e-03 -1 1 3.362572e-03 623.233 1507.7407)" class="st2" width="20.22" height="4.04"/>
			
				<rect x="1022.74" y="446.37" transform="matrix(3.337848e-03 -1 1 3.337848e-03 573.7253 1472.4198)" class="st2" width="5.59" height="4.04"/>
			
				<rect x="1029.15" y="442.07" transform="matrix(3.362572e-03 -1 1 3.362572e-03 588.7102 1478.8704)" class="st2" width="14.25" height="4.04"/>
			
				<rect x="1194.08" y="493.04" transform="matrix(3.201784e-03 -1 1 3.201784e-03 690.5602 1700.233)" class="st1" width="8.09" height="21.38"/>
			<polygon class="st1" points="1249.14,507.94 1256.18,507.96 1256.2,499.87 1234.83,499.8 1234.8,507.89 			"/>
			<path class="st2" d="M847.67,506.67C847.67,506.67,847.67,506.67,847.67,506.67C847.68,506.67,847.68,506.67,847.67,506.67
				c0.01,0,0.01,0,0.01,0l196.45,0.62l0.03-9.24c0-0.31,0.12-0.6,0.34-0.82c0.22-0.22,0.44-0.38,0.82-0.34l22.53,0.07l0,0l0,0
				l118.45,0.37v0h0l0,0l94.18,0.3c0.3,0,0.6,0.12,0.81,0.34c0.22,0.22,0.34,0.51,0.34,0.82l-0.03,9.25l59.54,0.19
				c-1.04-5.24-3.59-10.07-7.44-13.94c-5.17-5.2-12.05-8.08-19.38-8.1l-222.73-0.7l0,0l0,0l-134.63-0.43
				c-27.65,0-91.83,15.66-115.16,21.59L847.67,506.67z M1293.78,493.63c0-0.64,0.52-1.15,1.16-1.15h0l29.47,0.09
				c0.3,0,0.6,0.12,0.81,0.34c0.22,0.22,0.34,0.51,0.34,0.82l-0.02,6.35c0,0.64-0.52,1.15-1.16,1.15c0,0,0,0,0,0l-29.47-0.09
				c-0.3,0-0.6-0.12-0.81-0.34c-0.22-0.22-0.34-0.51-0.34-0.82L1293.78,493.63z"/>
			
				<rect x="1264.86" y="493.55" transform="matrix(3.078202e-03 -1 1 3.078202e-03 761.0467 1771.299)" class="st1" width="8.09" height="20.8"/>
			
				<rect x="1217.77" y="493.11" transform="matrix(3.201784e-03 -1 1 3.201784e-03 714.0992 1723.9973)" class="st1" width="8.09" height="21.38"/>
			
				<rect x="1307.64" y="483.28" transform="matrix(3.196284e-03 -1 1 3.196284e-03 808.6174 1804.9255)" class="st1" width="4.04" height="27.16"/>
			<path class="st2" d="M1081.31,475.27l-2.78-21.61l-13.71-0.04l0,0h0l-0.01,0l-25.37-0.08l0,0h0l0,0l-6.34-0.02l0,0h0l-0.01,0
				l-10.72-0.03l0,0c0,0,0,0,0,0l-0.01,0l-21.53-0.07l-3.41,23.6c8.84-1.71,20.89-3.39,36.94-4.43
				C1058.58,471.03,1072.89,472.61,1081.31,475.27z"/>
			
				<rect x="1005.05" y="439.01" transform="matrix(3.090602e-03 -1 1 3.090602e-03 570.9854 1454.8262)" class="st2" width="20.22" height="4.04"/>
			<path class="st1" d="M1034.48,474.9c-27.58,1.78-43.35,5.53-50.97,7.93l106.28,0.34C1087.3,479.27,1076.96,472.16,1034.48,474.9z
				"/>
			
				<rect x="1052.52" y="493.17" transform="matrix(3.041078e-03 -1 1 3.041078e-03 550.0714 1558.3088)" class="st1" width="8.09" height="20.22"/>
			
				<rect x="1075.63" y="492.66" transform="matrix(3.078164e-03 -1 1 3.078164e-03 572.9999 1581.475)" class="st1" width="8.09" height="21.38"/>
			
				<rect x="1099.32" y="492.74" transform="matrix(3.065802e-03 -1 1 3.065802e-03 596.5554 1605.2455)" class="st1" width="8.09" height="21.38"/>
			
				<rect x="1123.01" y="492.82" transform="matrix(3.201784e-03 -1 1 3.201784e-03 619.944 1628.9404)" class="st1" width="8.09" height="21.38"/>
			
				<rect x="1146.7" y="492.89" transform="matrix(3.238869e-03 -1 1 3.238869e-03 643.4398 1652.6854)" class="st1" width="8.09" height="21.38"/>
			<path class="st2" d="M846.51,508.97l-13.7-0.04l-39.75-0.13c-1.76,0-3.18,1.42-3.19,3.17c0,1.75,1.42,3.18,3.17,3.19l8.38,0.03
				l45.07,0.14L846.51,508.97z"/>
			<path class="st1" d="M842.35,523.44c0.09,0,0.19,0.01,0.28,0.03c0.65,0.16,65.72,16.35,118.7,16.52l353.32,1.12l0.09,1.16v-1.16
				c15.08,0,27.39-12.27,27.44-27.36c0-1.07-0.07-2.13-0.19-3.18l-84.15-0.27l0,0h0l-0.01,0l-47.37-0.15l0,0h0l0,0l-47.37-0.15l0,0
				h0l0,0l-23.68-0.07l0,0h0l0,0l-47.37-0.15l0,0l0,0l-242.68-0.77l-0.02,7.51c0,0.3-0.12,0.6-0.34,0.81
				c-0.22,0.22-0.51,0.34-0.81,0.34c0,0,0,0,0,0l-45.07-0.14l-0.07,21.96l32.15,0.1l6.12-15.43
				C841.46,523.72,841.89,523.44,842.35,523.44z"/>
			<path class="st1" d="M856.19,500.68l-9.25-29.27l-25.73-0.08l-0.11,35.25l11.57,0.04C833.96,506.28,843.14,503.86,856.19,500.68z
				"/>
			
				<rect x="1170.39" y="492.96" transform="matrix(3.201784e-03 -1 1 3.201784e-03 667.0214 1676.4686)" class="st1" width="8.09" height="21.38"/>
		</g>
	</g>
</g>
<g id="Designed_by_Vecteezy">
</g>
</svg>
