<?xml version="1.0" encoding="utf-8"?>
<!-- Generator: Adobe Illustrator 23.1.0, SVG Export Plug-In . SVG Version: 6.00 Build 0)  -->
<svg version="1.1" id="Ñëîé_1" xmlns="http://www.w3.org/2000/svg" xmlns:xlink="http://www.w3.org/1999/xlink" x="0px" y="0px"
	 viewBox="0 0 850.4 850.4" style="enable-background:new 0 0 850.4 850.4;" xml:space="preserve">
<style type="text/css">
	.st0{fill:#BCBEC0;}
	.st1{fill:#313130;}
	.st2{display:none;}
	.st3{display:inline;}
	.st4{display:inline;fill:none;stroke:#313130;stroke-width:8;stroke-miterlimit:10;}
</style>
<g>
	<rect x="0" y="0" class="st0" width="850.4" height="850.4"/>
	<g>
		<path class="st1" d="M602.7,299c24.8,0,45.1-20.2,45.1-45c0-24.8-20.2-45-45.1-45c-24.8,0-45,20.2-45,45
			C557.7,278.8,577.9,299,602.7,299L602.7,299z M602.7,238.3L602.7,238.3c8.6,0,15.7,7.1,15.7,15.7c0,8.6-7.1,15.6-15.7,15.6
			c-8.6,0-15.6-7-15.6-15.6C587.1,245.3,594.1,238.3,602.7,238.3L602.7,238.3z"/>
		<path class="st1" d="M425.2,552c-24.8,0-45,20.2-45,45c0,24.8,20.2,45.1,45,45.1s45-20.2,45-45.1C470.2,572.2,450,552,425.2,552
			L425.2,552z M425.2,612.7L425.2,612.7c-8.6,0-15.7-7.1-15.7-15.7c0-8.6,7.1-15.6,15.7-15.6s15.6,7,15.6,15.6
			C440.8,605.6,433.8,612.7,425.2,612.7L425.2,612.7z"/>
		<path class="st1" d="M479,388.1c0-4.5-1.8-8.7-4.9-11.8c-3.2-3.2-7.4-4.9-11.9-4.9c-4.5,0-8.7,1.8-11.8,4.9l-25.2,25.2L400,376.3
			c-3.2-3.2-7.4-4.9-11.9-4.9c-4.5,0-8.7,1.8-11.8,4.9c-6.6,6.5-6.6,17.1,0,23.7l25.2,25.2l-25.2,25.2c-6.6,6.5-6.6,17.1,0,23.7
			c3.2,3.2,7.3,4.9,11.8,4.9c4.5,0,8.7-1.8,11.9-4.9l25.2-25.2l25.2,25.2c3.1,3.2,7.3,4.9,11.8,4.9c4.5,0,8.7-1.8,11.9-4.9
			c6.6-6.6,6.6-17.1,0-23.7l-25.2-25.2l25.2-25.2C477.3,396.8,479,392.6,479,388.1L479,388.1z"/>
		<path class="st1" d="M304.2,216.9c0-4.5-1.8-8.7-4.9-11.8c-3.2-3.2-7.3-4.9-11.8-4.9c-4.5,0-8.7,1.8-11.9,4.9l-25.2,25.2
			l-25.2-25.2c-3.2-3.2-7.3-4.9-11.8-4.9c-4.5,0-8.7,1.8-11.9,4.9c-6.6,6.5-6.6,17.1,0,23.7l25.2,25.2l-25.2,25.2
			c-3.2,3.1-4.9,7.3-4.9,11.8c0,4.5,1.8,8.7,4.9,11.9c3.2,3.2,7.4,4.9,11.9,4.9c4.5,0,8.7-1.8,11.8-4.9l25.2-25.2l25.2,25.2
			c3.2,3.2,7.3,4.9,11.9,4.9c4.5,0,8.7-1.8,11.8-4.9c6.6-6.6,6.6-17.2,0-23.7L274.1,254l25.2-25.2
			C302.5,225.6,304.2,221.3,304.2,216.9L304.2,216.9z"/>
		<path class="st1" d="M155.9,159.7v531.1h382.4V355.4h156.2V159.7H155.9z M660.2,193.9L660.2,193.9v121.9H538.3V193.9H660.2z
			 M190.2,315.8L190.2,315.8V193.9h121.9v121.9H190.2z M190.2,495L190.2,495V355.4h121.9V495H190.2z M190.2,656.5L190.2,656.5V534.5
			h121.9v121.9H190.2z M351.7,315.8L351.7,315.8V193.9h147.1v121.9H351.7z M351.7,495L351.7,495V355.4h147.1V495H351.7z
			 M351.7,656.5L351.7,656.5V534.5h147.1v121.9H351.7z"/>
		<rect x="579.3" y="466.4" class="st1" width="100.7" height="171.4"/>
		<polygon class="st1" points="606.2,417.2 578.3,461.9 681,461.9 653.1,417.2 		"/>
		<polygon class="st1" points="610.2,410.5 649.1,410.5 629.6,379.3 		"/>
		<path class="st1" d="M579.3,671.2c0,8.8,7.3,16,16.1,16h68.5c8.9,0,16.1-7.2,16.1-16v-29.4H579.3V671.2z"/>
	</g>
	<g class="st2">
		<g class="st3">
			<path class="st1" d="M798.4,755.1c3.7,0,6.7-3,6.7-6.7s-3-6.7-6.7-6.7c-3.7,0-6.6,3-6.6,6.7S794.7,755.1,798.4,755.1L798.4,755.1
				z M798.4,746.1L798.4,746.1c1.3,0,2.3,1,2.3,2.3c0,1.3-1,2.3-2.3,2.3c-1.3,0-2.3-1-2.3-2.3C796.1,747.1,797.1,746.1,798.4,746.1
				L798.4,746.1z"/>
			<path class="st1" d="M778.8,799.3c0-3.7-3-6.7-6.6-6.7l0,0c-3.7,0-6.6,3-6.6,6.7"/>
			<path class="st1" d="M753.6,752.1"/>
			<path class="st1" d="M750.1,755.7c0.5,0.5,1.1,0.7,1.8,0.7"/>
			<path class="st1" d="M738.4,753.9c0,0.7,0.3,1.3,0.7,1.8c0.5,0.5,1.1,0.7,1.8,0.7c0.7,0,1.3-0.3,1.7-0.7"/>
			<path class="st1" d="M739.1,744.7l3.7,3.7"/>
			<path class="st1" d="M742.6,741.2c-0.5-0.5-1.1-0.7-1.7-0.7"/>
			<path class="st1" d="M751.8,740.4c-0.7,0-1.3,0.3-1.8,0.7"/>
			<path class="st1" d="M753.6,744.7c0.5-0.5,0.7-1.1,0.7-1.8l0,0"/>
			<line class="st1" x1="809.8" y1="805.3" x2="809.8" y2="779.9"/>
			<path class="st1" d="M794.9,805.3"/>
			<path class="st1" d="M798.9,772.6"/>
			<path class="st1" d="M809.9,779.2"/>
			<path class="st1" d="M809.8,810.3"/>
			<path class="st1" d="M794.9,805.9v4.4c0,1.3,1.1,2.4,2.4,2.4"/>
		</g>
		<path class="st4" d="M772.2,712.6"/>
		<path class="st4" d="M711.2,773.8"/>
		<path class="st4" d="M772.2,835"/>
		<path class="st4" d="M833.1,773.8"/>
	</g>
</g>
</svg>
