<?xml version="1.0" encoding="utf-8"?>
<!-- Generator: Adobe Illustrator 23.1.0, SVG Export Plug-In . SVG Version: 6.00 Build 0)  -->
<svg version="1.1" id="Ñëîé_1" xmlns="http://www.w3.org/2000/svg" xmlns:xlink="http://www.w3.org/1999/xlink" x="0px" y="0px"
	 viewBox="0 0 850.39 850.39" style="enable-background:new 0 0 850.39 850.39;" xml:space="preserve">
<style type="text/css">
	.st0{fill:#1C75BC;}
	.st1{fill:#FFFFFF;}
</style>
<g>
	<rect x="0" y="-2.78" class="st0" width="850.39" height="850.39"/>
	<path class="st1" d="M409.05,478.21c-2.26-1.18-4.99-0.98-7.05,0.54c-6.17,4.49-37.09,27.38-42.52,37.9
		c-3.27,6.27-3.84,13.42-1.72,20.13c2.13,6.71,6.78,12.21,13.02,15.44c3.74,1.92,7.92,2.93,12.11,2.93
		c9.91,0,18.92-5.46,23.43-14.26c5.46-10.55,6.27-49.03,6.37-56.62C412.72,481.72,411.3,479.39,409.05,478.21L409.05,478.21z
		 M642.75,266.95c1.21-4.92,1.82-9.95,1.82-15.04c0-34.63-28.16-62.75-62.72-62.75c-5.19,0-10.32,0.64-15.34,1.92
		c-9.91-15.04-23.97-26.47-40.19-33.18c-10.62-4.42-22.19-6.85-34.19-6.85c-7.01,0-16.25,1.45-22.96,3.24
		c-10.01,2.66-19.56,6.91-28.15,12.91c-24.75-18.31-55.1-28.26-86.49-28.26c-54.59,0-102.54,30.31-125.97,74.18
		c-3.37,6.34-6.17,12.98-8.46,19.83c-3.27,9.68-5.53,19.76-6.34,30.21c-10.93,6.24-20.16,14.7-27.45,24.52
		c-11.19,15.11-17.7,33.58-17.7,52.97c0,41.51,28.05,78.9,66.69,89.02c1.01,0.24,2.02,0.37,3.04,0.37c0,0,0,0,0.04,0l357.38-0.24
		c48.25-1.75,86.05-40.87,86.05-89.15C681.8,310.82,667.06,283.44,642.75,266.95L642.75,266.95z M539.91,462.87h-66.12
		c-5.06,0-9.54,3.61-10.62,8.56l-24.68,113.91c-0.71,3.23,0.1,6.54,2.16,9.14c2.09,2.6,5.19,4.05,8.5,4.05h20.27l-21.18,95.86
		c-0.61,2.83,0.07,5.7,1.85,7.92c1.79,2.23,4.55,3.57,7.45,3.57c3.41,0,6.44-1.79,8.16-4.82l76.1-134.1
		c1.92-3.41,1.92-7.48-0.07-10.86c-1.96-3.41-5.5-5.43-9.41-5.43H518.4l31.49-72.57c1.48-3.4,1.15-7.25-0.88-10.35
		C547.02,464.69,543.62,462.87,539.91,462.87L539.91,462.87z M328.15,580.24c-2.26-1.15-4.99-0.98-7.05,0.54
		c-6.17,4.49-37.09,27.38-42.52,37.9c-3.24,6.27-3.84,13.42-1.72,20.13c2.16,6.71,6.78,12.21,13.02,15.44
		c3.74,1.92,7.92,2.93,12.11,2.93c9.91,0,18.92-5.46,23.47-14.26c5.43-10.52,6.24-49,6.34-56.62
		C331.83,583.75,330.41,581.42,328.15,580.24L328.15,580.24z M304.28,540.89c5.46-10.55,6.24-49.03,6.34-56.62
		c0.03-2.56-1.35-4.89-3.61-6.07c-2.29-1.18-5.02-0.98-7.05,0.54c-6.17,4.49-37.12,27.38-42.55,37.9
		c-3.24,6.27-3.84,13.42-1.69,20.13c2.12,6.71,6.75,12.21,13.02,15.44c3.74,1.92,7.92,2.93,12.11,2.93
		C290.76,555.16,299.76,549.7,304.28,540.89L304.28,540.89z"/>
</g>
</svg>
